<?xml version="1.0" encoding="utf-8" standalone="no"?>
<!DOCTYPE svg PUBLIC "-//W3C//DTD SVG 1.1//EN"
  "http://www.w3.org/Graphics/SVG/1.1/DTD/svg11.dtd">
<svg xmlns:xlink="http://www.w3.org/1999/xlink" width="1202.4pt" height="388.8pt" viewBox="0 0 1202.4 388.8" xmlns="http://www.w3.org/2000/svg" version="1.1">
 <metadata>
  <rdf:RDF xmlns:dc="http://purl.org/dc/elements/1.1/" xmlns:cc="http://creativecommons.org/ns#" xmlns:rdf="http://www.w3.org/1999/02/22-rdf-syntax-ns#">
   <cc:Work>
    <dc:type rdf:resource="http://purl.org/dc/dcmitype/StillImage"/>
    <dc:date>2026-06-12T13:33:38.733311</dc:date>
    <dc:format>image/svg+xml</dc:format>
    <dc:creator>
     <cc:Agent>
      <dc:title>Matplotlib v3.10.9, https://matplotlib.org/</dc:title>
     </cc:Agent>
    </dc:creator>
   </cc:Work>
  </rdf:RDF>
 </metadata>
 <defs>
  <style type="text/css">*{stroke-linejoin: round; stroke-linecap: butt}</style>
 </defs>
 <g id="figure_1">
  <g id="patch_1">
   <path d="M 0 388.8 
L 1202.4 388.8 
L 1202.4 -0 
L 0 -0 
L 0 388.8 
z
" style="fill: none"/>
  </g>
  <g id="axes_1">
   <g id="patch_2">
    <path d="M 942.48 256.68 
L 1164.24 256.68 
Q 1171.44 256.68 1171.44 249.48 
L 1171.44 74.52 
Q 1171.44 67.32 1164.24 67.32 
L 942.48 67.32 
Q 935.28 67.32 935.28 74.52 
L 935.28 249.48 
Q 935.28 256.68 942.48 256.68 
z
" clip-path="url(#pcd3af581fe)" style="fill: #d7f0e6; stroke: #009e73; stroke-width: 2.5; stroke-linejoin: miter"/>
   </g>
   <g id="patch_3">
    <path d="M 43.92 248.04 
L 229.68 248.04 
Q 235.44 248.04 235.44 242.28 
L 235.44 81.72 
Q 235.44 75.96 229.68 75.96 
L 43.92 75.96 
Q 38.16 75.96 38.16 81.72 
L 38.16 242.28 
Q 38.16 248.04 43.92 248.04 
z
" clip-path="url(#pcd3af581fe)" style="fill: #56b4e9; stroke: #56b4e9; stroke-width: 2; stroke-linejoin: miter"/>
   </g>
   <g id="patch_4">
    <path d="M 268.56 248.04 
L 454.32 248.04 
Q 460.08 248.04 460.08 242.28 
L 460.08 81.72 
Q 460.08 75.96 454.32 75.96 
L 268.56 75.96 
Q 262.8 75.96 262.8 81.72 
L 262.8 242.28 
Q 262.8 248.04 268.56 248.04 
z
" clip-path="url(#pcd3af581fe)" style="fill: #0072b2; stroke: #0072b2; stroke-width: 2; stroke-linejoin: miter"/>
   </g>
   <g id="patch_5">
    <path d="M 493.2 248.04 
L 657.36 248.04 
Q 663.12 248.04 663.12 242.28 
L 663.12 81.72 
Q 663.12 75.96 657.36 75.96 
L 493.2 75.96 
Q 487.44 75.96 487.44 81.72 
L 487.44 242.28 
Q 487.44 248.04 493.2 248.04 
z
" clip-path="url(#pcd3af581fe)" style="fill: #e69f00; stroke: #e69f00; stroke-width: 2; stroke-linejoin: miter"/>
   </g>
   <g id="patch_6">
    <path d="M 696.24 248.04 
L 910.8 248.04 
Q 916.56 248.04 916.56 242.28 
L 916.56 81.72 
Q 916.56 75.96 910.8 75.96 
L 696.24 75.96 
Q 690.48 75.96 690.48 81.72 
L 690.48 242.28 
Q 690.48 248.04 696.24 248.04 
z
" clip-path="url(#pcd3af581fe)" style="fill: #555555; stroke: #555555; stroke-width: 2; stroke-linejoin: miter"/>
   </g>
   <g id="patch_7">
    <path d="M 915.12 162 
Q 930.24 162 941.782291 162 
" clip-path="url(#pcd3af581fe)" style="fill: none; stroke: #444444; stroke-width: 3.2; stroke-linecap: round"/>
    <path d="M 932.982291 157.6 
L 941.782291 162 
L 932.982291 166.4 
z
" clip-path="url(#pcd3af581fe)" style="fill: #444444; stroke: #444444; stroke-width: 3.2; stroke-linecap: round"/>
   </g>
   <g id="patch_8">
    <path d="M 949.68 248.04 
L 1157.04 248.04 
Q 1162.8 248.04 1162.8 242.28 
L 1162.8 81.72 
Q 1162.8 75.96 1157.04 75.96 
L 949.68 75.96 
Q 943.92 75.96 943.92 81.72 
L 943.92 242.28 
Q 943.92 248.04 949.68 248.04 
z
" clip-path="url(#pcd3af581fe)" style="fill: #009e73; stroke: #009e73; stroke-width: 2; stroke-linejoin: miter"/>
   </g>
   <g id="patch_9">
    <path d="M 234 162 
Q 249.12 162 260.662291 162 
" clip-path="url(#pcd3af581fe)" style="fill: none; stroke: #444444; stroke-width: 3.2; stroke-linecap: round"/>
    <path d="M 251.862291 157.6 
L 260.662291 162 
L 251.862291 166.4 
z
" clip-path="url(#pcd3af581fe)" style="fill: #444444; stroke: #444444; stroke-width: 3.2; stroke-linecap: round"/>
   </g>
   <g id="patch_10">
    <path d="M 458.64 162 
Q 473.76 162 485.302291 162 
" clip-path="url(#pcd3af581fe)" style="fill: none; stroke: #444444; stroke-width: 3.2; stroke-linecap: round"/>
    <path d="M 476.502291 157.6 
L 485.302291 162 
L 476.502291 166.4 
z
" clip-path="url(#pcd3af581fe)" style="fill: #444444; stroke: #444444; stroke-width: 3.2; stroke-linecap: round"/>
   </g>
   <g id="patch_11">
    <path d="M 661.68 162 
Q 676.8 162 688.342291 162 
" clip-path="url(#pcd3af581fe)" style="fill: none; stroke: #444444; stroke-width: 3.2; stroke-linecap: round"/>
    <path d="M 679.542291 157.6 
L 688.342291 162 
L 679.542291 166.4 
z
" clip-path="url(#pcd3af581fe)" style="fill: #444444; stroke: #444444; stroke-width: 3.2; stroke-linecap: round"/>
   </g>
   <g id="text_1">
    <!-- ← why we can validate -->
    <g style="fill: #0b5c43" transform="translate(964.746562 281.717812) scale(0.14 -0.14)">
     <defs>
      <path id="DejaVuSans-Bold-2190" d="M 313 1788 
L 313 2225 
L 1541 3453 
L 1994 3000 
L 1375 2381 
L 4997 2381 
L 4997 1631 
L 1375 1631 
L 1994 1013 
L 1541 559 
L 313 1788 
z
" transform="scale(0.015625)"/>
      <path id="DejaVuSans-Bold-20" transform="scale(0.015625)"/>
      <path id="DejaVuSans-Bold-77" d="M 225 3500 
L 1313 3500 
L 1900 1088 
L 2491 3500 
L 3425 3500 
L 4013 1113 
L 4603 3500 
L 5691 3500 
L 4769 0 
L 3547 0 
L 2956 2406 
L 2369 0 
L 1147 0 
L 225 3500 
z
" transform="scale(0.015625)"/>
      <path id="DejaVuSans-Bold-68" d="M 4056 2131 
L 4056 0 
L 2931 0 
L 2931 347 
L 2931 1625 
Q 2931 2084 2911 2256 
Q 2891 2428 2841 2509 
Q 2775 2619 2662 2680 
Q 2550 2741 2406 2741 
Q 2056 2741 1856 2470 
Q 1656 2200 1656 1722 
L 1656 0 
L 538 0 
L 538 4863 
L 1656 4863 
L 1656 2988 
Q 1909 3294 2193 3439 
Q 2478 3584 2822 3584 
Q 3428 3584 3742 3212 
Q 4056 2841 4056 2131 
z
" transform="scale(0.015625)"/>
      <path id="DejaVuSans-Bold-79" d="M 78 3500 
L 1197 3500 
L 2138 1125 
L 2938 3500 
L 4056 3500 
L 2584 -331 
Q 2363 -916 2067 -1148 
Q 1772 -1381 1288 -1381 
L 641 -1381 
L 641 -647 
L 991 -647 
Q 1275 -647 1404 -556 
Q 1534 -466 1606 -231 
L 1638 -134 
L 78 3500 
z
" transform="scale(0.015625)"/>
      <path id="DejaVuSans-Bold-65" d="M 4031 1759 
L 4031 1441 
L 1416 1441 
Q 1456 1047 1700 850 
Q 1944 653 2381 653 
Q 2734 653 3104 758 
Q 3475 863 3866 1075 
L 3866 213 
Q 3469 63 3072 -14 
Q 2675 -91 2278 -91 
Q 1328 -91 801 392 
Q 275 875 275 1747 
Q 275 2603 792 3093 
Q 1309 3584 2216 3584 
Q 3041 3584 3536 3087 
Q 4031 2591 4031 1759 
z
M 2881 2131 
Q 2881 2450 2695 2645 
Q 2509 2841 2209 2841 
Q 1884 2841 1681 2658 
Q 1478 2475 1428 2131 
L 2881 2131 
z
" transform="scale(0.015625)"/>
      <path id="DejaVuSans-Bold-63" d="M 3366 3391 
L 3366 2478 
Q 3138 2634 2908 2709 
Q 2678 2784 2431 2784 
Q 1963 2784 1702 2511 
Q 1441 2238 1441 1747 
Q 1441 1256 1702 982 
Q 1963 709 2431 709 
Q 2694 709 2930 787 
Q 3166 866 3366 1019 
L 3366 103 
Q 3103 6 2833 -42 
Q 2563 -91 2291 -91 
Q 1344 -91 809 395 
Q 275 881 275 1747 
Q 275 2613 809 3098 
Q 1344 3584 2291 3584 
Q 2566 3584 2833 3536 
Q 3100 3488 3366 3391 
z
" transform="scale(0.015625)"/>
      <path id="DejaVuSans-Bold-61" d="M 2106 1575 
Q 1756 1575 1579 1456 
Q 1403 1338 1403 1106 
Q 1403 894 1545 773 
Q 1688 653 1941 653 
Q 2256 653 2472 879 
Q 2688 1106 2688 1447 
L 2688 1575 
L 2106 1575 
z
M 3816 1997 
L 3816 0 
L 2688 0 
L 2688 519 
Q 2463 200 2181 54 
Q 1900 -91 1497 -91 
Q 953 -91 614 226 
Q 275 544 275 1050 
Q 275 1666 698 1953 
Q 1122 2241 2028 2241 
L 2688 2241 
L 2688 2328 
Q 2688 2594 2478 2717 
Q 2269 2841 1825 2841 
Q 1466 2841 1156 2769 
Q 847 2697 581 2553 
L 581 3406 
Q 941 3494 1303 3539 
Q 1666 3584 2028 3584 
Q 2975 3584 3395 3211 
Q 3816 2838 3816 1997 
z
" transform="scale(0.015625)"/>
      <path id="DejaVuSans-Bold-6e" d="M 4056 2131 
L 4056 0 
L 2931 0 
L 2931 347 
L 2931 1631 
Q 2931 2084 2911 2256 
Q 2891 2428 2841 2509 
Q 2775 2619 2662 2680 
Q 2550 2741 2406 2741 
Q 2056 2741 1856 2470 
Q 1656 2200 1656 1722 
L 1656 0 
L 538 0 
L 538 3500 
L 1656 3500 
L 1656 2988 
Q 1909 3294 2193 3439 
Q 2478 3584 2822 3584 
Q 3428 3584 3742 3212 
Q 4056 2841 4056 2131 
z
" transform="scale(0.015625)"/>
      <path id="DejaVuSans-Bold-76" d="M 97 3500 
L 1216 3500 
L 2088 1081 
L 2956 3500 
L 4078 3500 
L 2700 0 
L 1472 0 
L 97 3500 
z
" transform="scale(0.015625)"/>
      <path id="DejaVuSans-Bold-6c" d="M 538 4863 
L 1656 4863 
L 1656 0 
L 538 0 
L 538 4863 
z
" transform="scale(0.015625)"/>
      <path id="DejaVuSans-Bold-69" d="M 538 3500 
L 1656 3500 
L 1656 0 
L 538 0 
L 538 3500 
z
M 538 4863 
L 1656 4863 
L 1656 3950 
L 538 3950 
L 538 4863 
z
" transform="scale(0.015625)"/>
      <path id="DejaVuSans-Bold-64" d="M 2919 2988 
L 2919 4863 
L 4044 4863 
L 4044 0 
L 2919 0 
L 2919 506 
Q 2688 197 2409 53 
Q 2131 -91 1766 -91 
Q 1119 -91 703 423 
Q 288 938 288 1747 
Q 288 2556 703 3070 
Q 1119 3584 1766 3584 
Q 2128 3584 2408 3439 
Q 2688 3294 2919 2988 
z
M 2181 722 
Q 2541 722 2730 984 
Q 2919 1247 2919 1747 
Q 2919 2247 2730 2509 
Q 2541 2772 2181 2772 
Q 1825 2772 1636 2509 
Q 1447 2247 1447 1747 
Q 1447 1247 1636 984 
Q 1825 722 2181 722 
z
" transform="scale(0.015625)"/>
      <path id="DejaVuSans-Bold-74" d="M 1759 4494 
L 1759 3500 
L 2913 3500 
L 2913 2700 
L 1759 2700 
L 1759 1216 
Q 1759 972 1856 886 
Q 1953 800 2241 800 
L 2816 800 
L 2816 0 
L 1856 0 
Q 1194 0 917 276 
Q 641 553 641 1216 
L 641 2700 
L 84 2700 
L 84 3500 
L 641 3500 
L 641 4494 
L 1759 4494 
z
" transform="scale(0.015625)"/>
     </defs>
     <use xlink:href="#DejaVuSans-Bold-2190"/>
     <use xlink:href="#DejaVuSans-Bold-20" transform="translate(83.789062 0)"/>
     <use xlink:href="#DejaVuSans-Bold-77" transform="translate(118.603516 0)"/>
     <use xlink:href="#DejaVuSans-Bold-68" transform="translate(210.986328 0)"/>
     <use xlink:href="#DejaVuSans-Bold-79" transform="translate(282.177734 0)"/>
     <use xlink:href="#DejaVuSans-Bold-20" transform="translate(347.363281 0)"/>
     <use xlink:href="#DejaVuSans-Bold-77" transform="translate(382.177734 0)"/>
     <use xlink:href="#DejaVuSans-Bold-65" transform="translate(474.560547 0)"/>
     <use xlink:href="#DejaVuSans-Bold-20" transform="translate(542.382812 0)"/>
     <use xlink:href="#DejaVuSans-Bold-63" transform="translate(577.197266 0)"/>
     <use xlink:href="#DejaVuSans-Bold-61" transform="translate(636.474609 0)"/>
     <use xlink:href="#DejaVuSans-Bold-6e" transform="translate(703.955078 0)"/>
     <use xlink:href="#DejaVuSans-Bold-20" transform="translate(775.146484 0)"/>
     <use xlink:href="#DejaVuSans-Bold-76" transform="translate(809.960938 0)"/>
     <use xlink:href="#DejaVuSans-Bold-61" transform="translate(875.146484 0)"/>
     <use xlink:href="#DejaVuSans-Bold-6c" transform="translate(942.626953 0)"/>
     <use xlink:href="#DejaVuSans-Bold-69" transform="translate(976.904297 0)"/>
     <use xlink:href="#DejaVuSans-Bold-64" transform="translate(1011.181641 0)"/>
     <use xlink:href="#DejaVuSans-Bold-61" transform="translate(1082.763672 0)"/>
     <use xlink:href="#DejaVuSans-Bold-74" transform="translate(1150.244141 0)"/>
     <use xlink:href="#DejaVuSans-Bold-65" transform="translate(1198.046875 0)"/>
    </g>
   </g>
   <g id="text_2">
    <!-- Calibrated, trustworthy parameters:  PSF widths · lipid brightness · spot density -->
    <g style="fill: #222222" transform="translate(39.6 355.223125) scale(0.14 -0.14)">
     <defs>
      <path id="DejaVuSans-Oblique-43" d="M 4447 4306 
L 4319 3641 
Q 4019 3944 3683 4091 
Q 3347 4238 2956 4238 
Q 2422 4238 2017 3981 
Q 1613 3725 1319 3200 
Q 1131 2863 1032 2486 
Q 934 2109 934 1728 
Q 934 1091 1264 756 
Q 1594 422 2222 422 
Q 2656 422 3056 561 
Q 3456 700 3834 978 
L 3688 231 
Q 3316 72 2936 -9 
Q 2556 -91 2175 -91 
Q 1278 -91 773 396 
Q 269 884 269 1753 
Q 269 2309 461 2846 
Q 653 3384 1013 3828 
Q 1394 4300 1883 4525 
Q 2372 4750 3022 4750 
Q 3422 4750 3780 4639 
Q 4138 4528 4447 4306 
z
" transform="scale(0.015625)"/>
      <path id="DejaVuSans-Oblique-61" d="M 3438 1997 
L 3047 0 
L 2472 0 
L 2578 531 
Q 2325 219 2001 64 
Q 1678 -91 1281 -91 
Q 834 -91 548 182 
Q 263 456 263 884 
Q 263 1497 752 1853 
Q 1241 2209 2100 2209 
L 2900 2209 
L 2931 2363 
Q 2938 2388 2941 2417 
Q 2944 2447 2944 2509 
Q 2944 2788 2717 2942 
Q 2491 3097 2081 3097 
Q 1800 3097 1504 3025 
Q 1209 2953 897 2809 
L 997 3341 
Q 1322 3463 1633 3523 
Q 1944 3584 2234 3584 
Q 2853 3584 3176 3315 
Q 3500 3047 3500 2534 
Q 3500 2431 3484 2292 
Q 3469 2153 3438 1997 
z
M 2816 1759 
L 2241 1759 
Q 1534 1759 1195 1570 
Q 856 1381 856 984 
Q 856 709 1029 553 
Q 1203 397 1509 397 
Q 1978 397 2328 733 
Q 2678 1069 2791 1631 
L 2816 1759 
z
" transform="scale(0.015625)"/>
      <path id="DejaVuSans-Oblique-6c" d="M 1172 4863 
L 1747 4863 
L 800 0 
L 225 0 
L 1172 4863 
z
" transform="scale(0.015625)"/>
      <path id="DejaVuSans-Oblique-69" d="M 1172 4863 
L 1747 4863 
L 1606 4134 
L 1031 4134 
L 1172 4863 
z
M 909 3500 
L 1484 3500 
L 800 0 
L 225 0 
L 909 3500 
z
" transform="scale(0.015625)"/>
      <path id="DejaVuSans-Oblique-62" d="M 3169 2138 
Q 3169 2591 2961 2847 
Q 2753 3103 2388 3103 
Q 2122 3103 1889 2973 
Q 1656 2844 1484 2597 
Q 1303 2338 1198 1995 
Q 1094 1653 1094 1313 
Q 1094 881 1298 636 
Q 1503 391 1863 391 
Q 2134 391 2365 517 
Q 2597 644 2772 891 
Q 2950 1147 3059 1487 
Q 3169 1828 3169 2138 
z
M 1381 2969 
Q 1594 3256 1914 3420 
Q 2234 3584 2584 3584 
Q 3122 3584 3439 3221 
Q 3756 2859 3756 2241 
Q 3756 1734 3570 1259 
Q 3384 784 3041 416 
Q 2816 172 2522 40 
Q 2228 -91 1906 -91 
Q 1566 -91 1316 65 
Q 1066 222 909 531 
L 806 0 
L 231 0 
L 1178 4863 
L 1753 4863 
L 1381 2969 
z
" transform="scale(0.015625)"/>
      <path id="DejaVuSans-Oblique-72" d="M 2853 2969 
Q 2766 3016 2653 3041 
Q 2541 3066 2413 3066 
Q 1953 3066 1609 2717 
Q 1266 2369 1153 1784 
L 800 0 
L 225 0 
L 909 3500 
L 1484 3500 
L 1375 2956 
Q 1603 3259 1920 3421 
Q 2238 3584 2597 3584 
Q 2691 3584 2781 3573 
Q 2872 3563 2963 3538 
L 2853 2969 
z
" transform="scale(0.015625)"/>
      <path id="DejaVuSans-Oblique-74" d="M 2706 3500 
L 2619 3053 
L 1472 3053 
L 1100 1153 
Q 1081 1047 1072 975 
Q 1063 903 1063 863 
Q 1063 663 1183 572 
Q 1303 481 1569 481 
L 2150 481 
L 2053 0 
L 1503 0 
Q 991 0 739 200 
Q 488 400 488 806 
Q 488 878 497 964 
Q 506 1050 525 1153 
L 897 3053 
L 409 3053 
L 500 3500 
L 978 3500 
L 1172 4494 
L 1747 4494 
L 1556 3500 
L 2706 3500 
z
" transform="scale(0.015625)"/>
      <path id="DejaVuSans-Oblique-65" d="M 3078 2063 
Q 3088 2113 3092 2166 
Q 3097 2219 3097 2272 
Q 3097 2653 2873 2875 
Q 2650 3097 2266 3097 
Q 1838 3097 1509 2826 
Q 1181 2556 1013 2059 
L 3078 2063 
z
M 3578 1613 
L 903 1613 
Q 884 1494 878 1425 
Q 872 1356 872 1306 
Q 872 872 1139 634 
Q 1406 397 1894 397 
Q 2269 397 2603 481 
Q 2938 566 3225 728 
L 3116 159 
Q 2806 34 2476 -28 
Q 2147 -91 1806 -91 
Q 1078 -91 686 257 
Q 294 606 294 1247 
Q 294 1794 489 2264 
Q 684 2734 1063 3103 
Q 1306 3334 1642 3459 
Q 1978 3584 2356 3584 
Q 2950 3584 3301 3228 
Q 3653 2872 3653 2272 
Q 3653 2128 3634 1964 
Q 3616 1800 3578 1613 
z
" transform="scale(0.015625)"/>
      <path id="DejaVuSans-Oblique-64" d="M 2675 525 
Q 2444 222 2128 65 
Q 1813 -91 1428 -91 
Q 903 -91 598 267 
Q 294 625 294 1247 
Q 294 1766 478 2236 
Q 663 2706 1013 3078 
Q 1244 3325 1534 3454 
Q 1825 3584 2144 3584 
Q 2481 3584 2739 3421 
Q 2997 3259 3138 2956 
L 3513 4863 
L 4091 4863 
L 3144 0 
L 2566 0 
L 2675 525 
z
M 891 1350 
Q 891 897 1095 644 
Q 1300 391 1663 391 
Q 1931 391 2161 520 
Q 2391 650 2566 903 
Q 2750 1166 2856 1509 
Q 2963 1853 2963 2188 
Q 2963 2622 2758 2865 
Q 2553 3109 2194 3109 
Q 1922 3109 1687 2981 
Q 1453 2853 1288 2613 
Q 1106 2353 998 2009 
Q 891 1666 891 1350 
z
" transform="scale(0.015625)"/>
      <path id="DejaVuSans-Oblique-2c" d="M 575 794 
L 1234 794 
L 1131 256 
L 422 -744 
L 19 -744 
L 469 256 
L 575 794 
z
" transform="scale(0.015625)"/>
      <path id="DejaVuSans-Oblique-20" transform="scale(0.015625)"/>
      <path id="DejaVuSans-Oblique-75" d="M 428 1388 
L 838 3500 
L 1416 3500 
L 1006 1409 
Q 975 1256 961 1147 
Q 947 1038 947 966 
Q 947 700 1109 554 
Q 1272 409 1569 409 
Q 2031 409 2368 721 
Q 2706 1034 2809 1563 
L 3194 3500 
L 3769 3500 
L 3091 0 
L 2516 0 
L 2631 550 
Q 2388 244 2052 76 
Q 1716 -91 1338 -91 
Q 878 -91 622 161 
Q 366 413 366 863 
Q 366 956 381 1097 
Q 397 1238 428 1388 
z
" transform="scale(0.015625)"/>
      <path id="DejaVuSans-Oblique-73" d="M 3200 3397 
L 3091 2853 
Q 2863 2978 2609 3040 
Q 2356 3103 2088 3103 
Q 1634 3103 1373 2948 
Q 1113 2794 1113 2528 
Q 1113 2219 1719 2053 
Q 1766 2041 1788 2034 
L 1972 1978 
Q 2547 1819 2739 1644 
Q 2931 1469 2931 1166 
Q 2931 609 2489 259 
Q 2047 -91 1331 -91 
Q 1053 -91 747 -37 
Q 441 16 72 128 
L 184 722 
Q 500 559 806 475 
Q 1113 391 1394 391 
Q 1816 391 2080 572 
Q 2344 753 2344 1031 
Q 2344 1331 1650 1516 
L 1591 1531 
L 1394 1581 
Q 956 1697 753 1886 
Q 550 2075 550 2369 
Q 550 2928 970 3256 
Q 1391 3584 2113 3584 
Q 2397 3584 2667 3537 
Q 2938 3491 3200 3397 
z
" transform="scale(0.015625)"/>
      <path id="DejaVuSans-Oblique-77" d="M 544 3500 
L 1113 3500 
L 1259 684 
L 2566 3500 
L 3231 3500 
L 3425 684 
L 4666 3500 
L 5241 3500 
L 3641 0 
L 2969 0 
L 2797 2900 
L 1459 0 
L 781 0 
L 544 3500 
z
" transform="scale(0.015625)"/>
      <path id="DejaVuSans-Oblique-6f" d="M 1625 -91 
Q 1009 -91 651 289 
Q 294 669 294 1325 
Q 294 1706 417 2101 
Q 541 2497 738 2766 
Q 1047 3184 1428 3384 
Q 1809 3584 2291 3584 
Q 2888 3584 3255 3212 
Q 3622 2841 3622 2241 
Q 3622 1825 3500 1412 
Q 3378 1000 3181 728 
Q 2875 309 2494 109 
Q 2113 -91 1625 -91 
z
M 891 1344 
Q 891 869 1089 633 
Q 1288 397 1691 397 
Q 2269 397 2648 901 
Q 3028 1406 3028 2181 
Q 3028 2634 2825 2865 
Q 2622 3097 2228 3097 
Q 1903 3097 1650 2945 
Q 1397 2794 1197 2484 
Q 1050 2253 970 1956 
Q 891 1659 891 1344 
z
" transform="scale(0.015625)"/>
      <path id="DejaVuSans-Oblique-68" d="M 3566 2113 
L 3156 0 
L 2578 0 
L 2988 2091 
Q 3016 2238 3031 2350 
Q 3047 2463 3047 2528 
Q 3047 2791 2881 2937 
Q 2716 3084 2419 3084 
Q 1956 3084 1617 2771 
Q 1278 2459 1178 1941 
L 800 0 
L 225 0 
L 1172 4863 
L 1747 4863 
L 1375 2950 
Q 1594 3244 1934 3414 
Q 2275 3584 2650 3584 
Q 3113 3584 3367 3334 
Q 3622 3084 3622 2631 
Q 3622 2519 3608 2391 
Q 3594 2263 3566 2113 
z
" transform="scale(0.015625)"/>
      <path id="DejaVuSans-Oblique-79" d="M 1588 -325 
Q 1188 -997 936 -1164 
Q 684 -1331 294 -1331 
L -159 -1331 
L -63 -850 
L 269 -850 
Q 509 -850 678 -719 
Q 847 -588 1056 -206 
L 1234 128 
L 459 3500 
L 1069 3500 
L 1650 819 
L 3256 3500 
L 3859 3500 
L 1588 -325 
z
" transform="scale(0.015625)"/>
      <path id="DejaVuSans-Oblique-70" d="M 3175 2156 
Q 3175 2616 2975 2859 
Q 2775 3103 2400 3103 
Q 2144 3103 1911 2972 
Q 1678 2841 1497 2591 
Q 1319 2344 1212 1994 
Q 1106 1644 1106 1300 
Q 1106 863 1306 627 
Q 1506 391 1875 391 
Q 2147 391 2380 519 
Q 2613 647 2778 891 
Q 2956 1147 3065 1494 
Q 3175 1841 3175 2156 
z
M 1394 2969 
Q 1625 3272 1939 3428 
Q 2253 3584 2638 3584 
Q 3175 3584 3472 3232 
Q 3769 2881 3769 2247 
Q 3769 1728 3584 1258 
Q 3400 788 3053 416 
Q 2822 169 2531 39 
Q 2241 -91 1919 -91 
Q 1547 -91 1294 64 
Q 1041 219 916 525 
L 556 -1331 
L -19 -1331 
L 922 3500 
L 1497 3500 
L 1394 2969 
z
" transform="scale(0.015625)"/>
      <path id="DejaVuSans-Oblique-6d" d="M 5747 2113 
L 5338 0 
L 4763 0 
L 5166 2094 
Q 5191 2228 5203 2325 
Q 5216 2422 5216 2491 
Q 5216 2772 5059 2928 
Q 4903 3084 4622 3084 
Q 4203 3084 3875 2770 
Q 3547 2456 3450 1953 
L 3066 0 
L 2491 0 
L 2900 2094 
Q 2925 2209 2937 2307 
Q 2950 2406 2950 2484 
Q 2950 2769 2794 2926 
Q 2638 3084 2363 3084 
Q 1938 3084 1609 2770 
Q 1281 2456 1184 1953 
L 800 0 
L 225 0 
L 909 3500 
L 1484 3500 
L 1375 2956 
Q 1609 3263 1923 3423 
Q 2238 3584 2597 3584 
Q 2978 3584 3223 3384 
Q 3469 3184 3519 2828 
Q 3781 3197 4126 3390 
Q 4472 3584 4856 3584 
Q 5306 3584 5551 3325 
Q 5797 3066 5797 2591 
Q 5797 2488 5784 2364 
Q 5772 2241 5747 2113 
z
" transform="scale(0.015625)"/>
      <path id="DejaVuSans-Oblique-3a" d="M 978 3309 
L 1638 3309 
L 1484 2516 
L 825 2516 
L 978 3309 
z
M 488 794 
L 1147 794 
L 991 0 
L 331 0 
L 488 794 
z
" transform="scale(0.015625)"/>
      <path id="DejaVuSans-Oblique-50" d="M 1081 4666 
L 2541 4666 
Q 3178 4666 3512 4369 
Q 3847 4072 3847 3500 
Q 3847 2731 3353 2303 
Q 2859 1875 1966 1875 
L 1172 1875 
L 806 0 
L 172 0 
L 1081 4666 
z
M 1613 4147 
L 1275 2394 
L 2069 2394 
Q 2606 2394 2893 2669 
Q 3181 2944 3181 3456 
Q 3181 3784 2986 3965 
Q 2791 4147 2438 4147 
L 1613 4147 
z
" transform="scale(0.015625)"/>
      <path id="DejaVuSans-Oblique-53" d="M 3859 4513 
L 3738 3897 
Q 3422 4066 3111 4152 
Q 2800 4238 2509 4238 
Q 1944 4238 1609 3991 
Q 1275 3744 1275 3334 
Q 1275 3109 1398 2989 
Q 1522 2869 2034 2731 
L 2413 2638 
Q 3053 2472 3303 2217 
Q 3553 1963 3553 1503 
Q 3553 797 2998 353 
Q 2444 -91 1538 -91 
Q 1166 -91 791 -17 
Q 416 56 38 206 
L 166 856 
Q 513 641 861 531 
Q 1209 422 1556 422 
Q 2147 422 2503 684 
Q 2859 947 2859 1369 
Q 2859 1650 2717 1795 
Q 2575 1941 2106 2059 
L 1728 2156 
Q 1081 2325 845 2545 
Q 609 2766 609 3163 
Q 609 3859 1145 4304 
Q 1681 4750 2541 4750 
Q 2875 4750 3203 4690 
Q 3531 4631 3859 4513 
z
" transform="scale(0.015625)"/>
      <path id="DejaVuSans-Oblique-46" d="M 1081 4666 
L 3756 4666 
L 3653 4134 
L 1606 4134 
L 1338 2759 
L 3188 2759 
L 3084 2228 
L 1234 2228 
L 800 0 
L 172 0 
L 1081 4666 
z
" transform="scale(0.015625)"/>
      <path id="DejaVuSans-Oblique-b7" d="M 884 2619 
L 1544 2619 
L 1388 1825 
L 728 1825 
L 884 2619 
z
" transform="scale(0.015625)"/>
      <path id="DejaVuSans-Oblique-67" d="M 3816 3500 
L 3219 434 
Q 3047 -456 2561 -893 
Q 2075 -1331 1253 -1331 
Q 950 -1331 690 -1286 
Q 431 -1241 206 -1147 
L 313 -588 
Q 525 -725 762 -790 
Q 1000 -856 1269 -856 
Q 1816 -856 2167 -557 
Q 2519 -259 2631 300 
L 2681 563 
Q 2441 288 2122 144 
Q 1803 0 1434 0 
Q 903 0 598 351 
Q 294 703 294 1319 
Q 294 1803 478 2267 
Q 663 2731 997 3091 
Q 1219 3328 1514 3456 
Q 1809 3584 2131 3584 
Q 2484 3584 2746 3420 
Q 3009 3256 3138 2956 
L 3238 3500 
L 3816 3500 
z
M 2950 2216 
Q 2950 2641 2750 2872 
Q 2550 3103 2181 3103 
Q 1953 3103 1747 3012 
Q 1541 2922 1394 2759 
Q 1156 2491 1023 2127 
Q 891 1763 891 1375 
Q 891 944 1092 712 
Q 1294 481 1672 481 
Q 2219 481 2584 976 
Q 2950 1472 2950 2216 
z
" transform="scale(0.015625)"/>
      <path id="DejaVuSans-Oblique-6e" d="M 3566 2113 
L 3156 0 
L 2578 0 
L 2988 2091 
Q 3016 2238 3031 2350 
Q 3047 2463 3047 2528 
Q 3047 2791 2881 2937 
Q 2716 3084 2419 3084 
Q 1956 3084 1622 2776 
Q 1288 2469 1184 1941 
L 800 0 
L 225 0 
L 903 3500 
L 1478 3500 
L 1363 2950 
Q 1603 3253 1940 3418 
Q 2278 3584 2650 3584 
Q 3113 3584 3367 3334 
Q 3622 3084 3622 2631 
Q 3622 2519 3608 2391 
Q 3594 2263 3566 2113 
z
" transform="scale(0.015625)"/>
     </defs>
     <use xlink:href="#DejaVuSans-Oblique-43"/>
     <use xlink:href="#DejaVuSans-Oblique-61" transform="translate(69.824219 0)"/>
     <use xlink:href="#DejaVuSans-Oblique-6c" transform="translate(131.103516 0)"/>
     <use xlink:href="#DejaVuSans-Oblique-69" transform="translate(158.886719 0)"/>
     <use xlink:href="#DejaVuSans-Oblique-62" transform="translate(186.669922 0)"/>
     <use xlink:href="#DejaVuSans-Oblique-72" transform="translate(250.146484 0)"/>
     <use xlink:href="#DejaVuSans-Oblique-61" transform="translate(291.259766 0)"/>
     <use xlink:href="#DejaVuSans-Oblique-74" transform="translate(352.539062 0)"/>
     <use xlink:href="#DejaVuSans-Oblique-65" transform="translate(391.748047 0)"/>
     <use xlink:href="#DejaVuSans-Oblique-64" transform="translate(453.271484 0)"/>
     <use xlink:href="#DejaVuSans-Oblique-2c" transform="translate(516.748047 0)"/>
     <use xlink:href="#DejaVuSans-Oblique-20" transform="translate(548.535156 0)"/>
     <use xlink:href="#DejaVuSans-Oblique-74" transform="translate(580.322266 0)"/>
     <use xlink:href="#DejaVuSans-Oblique-72" transform="translate(619.53125 0)"/>
     <use xlink:href="#DejaVuSans-Oblique-75" transform="translate(660.644531 0)"/>
     <use xlink:href="#DejaVuSans-Oblique-73" transform="translate(724.023438 0)"/>
     <use xlink:href="#DejaVuSans-Oblique-74" transform="translate(776.123047 0)"/>
     <use xlink:href="#DejaVuSans-Oblique-77" transform="translate(815.332031 0)"/>
     <use xlink:href="#DejaVuSans-Oblique-6f" transform="translate(897.119141 0)"/>
     <use xlink:href="#DejaVuSans-Oblique-72" transform="translate(958.300781 0)"/>
     <use xlink:href="#DejaVuSans-Oblique-74" transform="translate(999.414062 0)"/>
     <use xlink:href="#DejaVuSans-Oblique-68" transform="translate(1038.623047 0)"/>
     <use xlink:href="#DejaVuSans-Oblique-79" transform="translate(1102.001953 0)"/>
     <use xlink:href="#DejaVuSans-Oblique-20" transform="translate(1161.181641 0)"/>
     <use xlink:href="#DejaVuSans-Oblique-70" transform="translate(1192.96875 0)"/>
     <use xlink:href="#DejaVuSans-Oblique-61" transform="translate(1256.445312 0)"/>
     <use xlink:href="#DejaVuSans-Oblique-72" transform="translate(1317.724609 0)"/>
     <use xlink:href="#DejaVuSans-Oblique-61" transform="translate(1358.837891 0)"/>
     <use xlink:href="#DejaVuSans-Oblique-6d" transform="translate(1420.117188 0)"/>
     <use xlink:href="#DejaVuSans-Oblique-65" transform="translate(1517.529297 0)"/>
     <use xlink:href="#DejaVuSans-Oblique-74" transform="translate(1579.052734 0)"/>
     <use xlink:href="#DejaVuSans-Oblique-65" transform="translate(1618.261719 0)"/>
     <use xlink:href="#DejaVuSans-Oblique-72" transform="translate(1679.785156 0)"/>
     <use xlink:href="#DejaVuSans-Oblique-73" transform="translate(1720.898438 0)"/>
     <use xlink:href="#DejaVuSans-Oblique-3a" transform="translate(1772.998047 0)"/>
     <use xlink:href="#DejaVuSans-Oblique-20" transform="translate(1806.689453 0)"/>
     <use xlink:href="#DejaVuSans-Oblique-20" transform="translate(1838.476562 0)"/>
     <use xlink:href="#DejaVuSans-Oblique-50" transform="translate(1870.263672 0)"/>
     <use xlink:href="#DejaVuSans-Oblique-53" transform="translate(1930.566406 0)"/>
     <use xlink:href="#DejaVuSans-Oblique-46" transform="translate(1994.042969 0)"/>
     <use xlink:href="#DejaVuSans-Oblique-20" transform="translate(2051.5625 0)"/>
     <use xlink:href="#DejaVuSans-Oblique-77" transform="translate(2083.349609 0)"/>
     <use xlink:href="#DejaVuSans-Oblique-69" transform="translate(2165.136719 0)"/>
     <use xlink:href="#DejaVuSans-Oblique-64" transform="translate(2192.919922 0)"/>
     <use xlink:href="#DejaVuSans-Oblique-74" transform="translate(2256.396484 0)"/>
     <use xlink:href="#DejaVuSans-Oblique-68" transform="translate(2295.605469 0)"/>
     <use xlink:href="#DejaVuSans-Oblique-73" transform="translate(2358.984375 0)"/>
     <use xlink:href="#DejaVuSans-Oblique-20" transform="translate(2411.083984 0)"/>
     <use xlink:href="#DejaVuSans-Oblique-b7" transform="translate(2442.871094 0)"/>
     <use xlink:href="#DejaVuSans-Oblique-20" transform="translate(2474.658203 0)"/>
     <use xlink:href="#DejaVuSans-Oblique-6c" transform="translate(2506.445312 0)"/>
     <use xlink:href="#DejaVuSans-Oblique-69" transform="translate(2534.228516 0)"/>
     <use xlink:href="#DejaVuSans-Oblique-70" transform="translate(2562.011719 0)"/>
     <use xlink:href="#DejaVuSans-Oblique-69" transform="translate(2625.488281 0)"/>
     <use xlink:href="#DejaVuSans-Oblique-64" transform="translate(2653.271484 0)"/>
     <use xlink:href="#DejaVuSans-Oblique-20" transform="translate(2716.748047 0)"/>
     <use xlink:href="#DejaVuSans-Oblique-62" transform="translate(2748.535156 0)"/>
     <use xlink:href="#DejaVuSans-Oblique-72" transform="translate(2812.011719 0)"/>
     <use xlink:href="#DejaVuSans-Oblique-69" transform="translate(2853.125 0)"/>
     <use xlink:href="#DejaVuSans-Oblique-67" transform="translate(2880.908203 0)"/>
     <use xlink:href="#DejaVuSans-Oblique-68" transform="translate(2944.384766 0)"/>
     <use xlink:href="#DejaVuSans-Oblique-74" transform="translate(3007.763672 0)"/>
     <use xlink:href="#DejaVuSans-Oblique-6e" transform="translate(3046.972656 0)"/>
     <use xlink:href="#DejaVuSans-Oblique-65" transform="translate(3110.351562 0)"/>
     <use xlink:href="#DejaVuSans-Oblique-73" transform="translate(3171.875 0)"/>
     <use xlink:href="#DejaVuSans-Oblique-73" transform="translate(3223.974609 0)"/>
     <use xlink:href="#DejaVuSans-Oblique-20" transform="translate(3276.074219 0)"/>
     <use xlink:href="#DejaVuSans-Oblique-b7" transform="translate(3307.861328 0)"/>
     <use xlink:href="#DejaVuSans-Oblique-20" transform="translate(3339.648438 0)"/>
     <use xlink:href="#DejaVuSans-Oblique-73" transform="translate(3371.435547 0)"/>
     <use xlink:href="#DejaVuSans-Oblique-70" transform="translate(3423.535156 0)"/>
     <use xlink:href="#DejaVuSans-Oblique-6f" transform="translate(3487.011719 0)"/>
     <use xlink:href="#DejaVuSans-Oblique-74" transform="translate(3548.193359 0)"/>
     <use xlink:href="#DejaVuSans-Oblique-20" transform="translate(3587.402344 0)"/>
     <use xlink:href="#DejaVuSans-Oblique-64" transform="translate(3619.189453 0)"/>
     <use xlink:href="#DejaVuSans-Oblique-65" transform="translate(3682.666016 0)"/>
     <use xlink:href="#DejaVuSans-Oblique-6e" transform="translate(3744.189453 0)"/>
     <use xlink:href="#DejaVuSans-Oblique-73" transform="translate(3807.568359 0)"/>
     <use xlink:href="#DejaVuSans-Oblique-69" transform="translate(3859.667969 0)"/>
     <use xlink:href="#DejaVuSans-Oblique-74" transform="translate(3887.451172 0)"/>
     <use xlink:href="#DejaVuSans-Oblique-79" transform="translate(3926.660156 0)"/>
    </g>
   </g>
   <g id="text_3">
    <!-- Sample sizes -->
    <g style="fill: #ffffff" transform="translate(78.27625 148.436) scale(0.16 -0.16)">
     <defs>
      <path id="DejaVuSans-Bold-53" d="M 3834 4519 
L 3834 3531 
Q 3450 3703 3084 3790 
Q 2719 3878 2394 3878 
Q 1963 3878 1756 3759 
Q 1550 3641 1550 3391 
Q 1550 3203 1689 3098 
Q 1828 2994 2194 2919 
L 2706 2816 
Q 3484 2659 3812 2340 
Q 4141 2022 4141 1434 
Q 4141 663 3683 286 
Q 3225 -91 2284 -91 
Q 1841 -91 1394 -6 
Q 947 78 500 244 
L 500 1259 
Q 947 1022 1364 901 
Q 1781 781 2169 781 
Q 2563 781 2772 912 
Q 2981 1044 2981 1288 
Q 2981 1506 2839 1625 
Q 2697 1744 2272 1838 
L 1806 1941 
Q 1106 2091 782 2419 
Q 459 2747 459 3303 
Q 459 4000 909 4375 
Q 1359 4750 2203 4750 
Q 2588 4750 2994 4692 
Q 3400 4634 3834 4519 
z
" transform="scale(0.015625)"/>
      <path id="DejaVuSans-Bold-6d" d="M 3781 2919 
Q 3994 3244 4286 3414 
Q 4578 3584 4928 3584 
Q 5531 3584 5847 3212 
Q 6163 2841 6163 2131 
L 6163 0 
L 5038 0 
L 5038 1825 
Q 5041 1866 5042 1909 
Q 5044 1953 5044 2034 
Q 5044 2406 4934 2573 
Q 4825 2741 4581 2741 
Q 4263 2741 4089 2478 
Q 3916 2216 3909 1719 
L 3909 0 
L 2784 0 
L 2784 1825 
Q 2784 2406 2684 2573 
Q 2584 2741 2328 2741 
Q 2006 2741 1831 2477 
Q 1656 2213 1656 1722 
L 1656 0 
L 531 0 
L 531 3500 
L 1656 3500 
L 1656 2988 
Q 1863 3284 2130 3434 
Q 2397 3584 2719 3584 
Q 3081 3584 3359 3409 
Q 3638 3234 3781 2919 
z
" transform="scale(0.015625)"/>
      <path id="DejaVuSans-Bold-70" d="M 1656 506 
L 1656 -1331 
L 538 -1331 
L 538 3500 
L 1656 3500 
L 1656 2988 
Q 1888 3294 2169 3439 
Q 2450 3584 2816 3584 
Q 3463 3584 3878 3070 
Q 4294 2556 4294 1747 
Q 4294 938 3878 423 
Q 3463 -91 2816 -91 
Q 2450 -91 2169 54 
Q 1888 200 1656 506 
z
M 2400 2772 
Q 2041 2772 1848 2508 
Q 1656 2244 1656 1747 
Q 1656 1250 1848 986 
Q 2041 722 2400 722 
Q 2759 722 2948 984 
Q 3138 1247 3138 1747 
Q 3138 2247 2948 2509 
Q 2759 2772 2400 2772 
z
" transform="scale(0.015625)"/>
      <path id="DejaVuSans-Bold-73" d="M 3272 3391 
L 3272 2541 
Q 2913 2691 2578 2766 
Q 2244 2841 1947 2841 
Q 1628 2841 1473 2761 
Q 1319 2681 1319 2516 
Q 1319 2381 1436 2309 
Q 1553 2238 1856 2203 
L 2053 2175 
Q 2913 2066 3209 1816 
Q 3506 1566 3506 1031 
Q 3506 472 3093 190 
Q 2681 -91 1863 -91 
Q 1516 -91 1145 -36 
Q 775 19 384 128 
L 384 978 
Q 719 816 1070 734 
Q 1422 653 1784 653 
Q 2113 653 2278 743 
Q 2444 834 2444 1013 
Q 2444 1163 2330 1236 
Q 2216 1309 1875 1350 
L 1678 1375 
Q 931 1469 631 1722 
Q 331 1975 331 2491 
Q 331 3047 712 3315 
Q 1094 3584 1881 3584 
Q 2191 3584 2531 3537 
Q 2872 3491 3272 3391 
z
" transform="scale(0.015625)"/>
      <path id="DejaVuSans-Bold-7a" d="M 366 3500 
L 3419 3500 
L 3419 2719 
L 1575 800 
L 3419 800 
L 3419 0 
L 288 0 
L 288 781 
L 2131 2700 
L 366 2700 
L 366 3500 
z
" transform="scale(0.015625)"/>
     </defs>
     <use xlink:href="#DejaVuSans-Bold-53"/>
     <use xlink:href="#DejaVuSans-Bold-61" transform="translate(72.021484 0)"/>
     <use xlink:href="#DejaVuSans-Bold-6d" transform="translate(139.501953 0)"/>
     <use xlink:href="#DejaVuSans-Bold-70" transform="translate(243.701172 0)"/>
     <use xlink:href="#DejaVuSans-Bold-6c" transform="translate(315.283203 0)"/>
     <use xlink:href="#DejaVuSans-Bold-65" transform="translate(349.560547 0)"/>
     <use xlink:href="#DejaVuSans-Bold-20" transform="translate(417.382812 0)"/>
     <use xlink:href="#DejaVuSans-Bold-73" transform="translate(452.197266 0)"/>
     <use xlink:href="#DejaVuSans-Bold-69" transform="translate(511.71875 0)"/>
     <use xlink:href="#DejaVuSans-Bold-7a" transform="translate(545.996094 0)"/>
     <use xlink:href="#DejaVuSans-Bold-65" transform="translate(604.199219 0)"/>
     <use xlink:href="#DejaVuSans-Bold-73" transform="translate(672.021484 0)"/>
    </g>
    <!-- + place at -->
    <g style="fill: #ffffff" transform="translate(91.2675 166.3525) scale(0.16 -0.16)">
     <defs>
      <path id="DejaVuSans-Bold-2b" d="M 3053 4013 
L 3053 2375 
L 4684 2375 
L 4684 1638 
L 3053 1638 
L 3053 0 
L 2309 0 
L 2309 1638 
L 678 1638 
L 678 2375 
L 2309 2375 
L 2309 4013 
L 3053 4013 
z
" transform="scale(0.015625)"/>
     </defs>
     <use xlink:href="#DejaVuSans-Bold-2b"/>
     <use xlink:href="#DejaVuSans-Bold-20" transform="translate(83.789062 0)"/>
     <use xlink:href="#DejaVuSans-Bold-70" transform="translate(118.603516 0)"/>
     <use xlink:href="#DejaVuSans-Bold-6c" transform="translate(190.185547 0)"/>
     <use xlink:href="#DejaVuSans-Bold-61" transform="translate(224.462891 0)"/>
     <use xlink:href="#DejaVuSans-Bold-63" transform="translate(291.943359 0)"/>
     <use xlink:href="#DejaVuSans-Bold-65" transform="translate(351.220703 0)"/>
     <use xlink:href="#DejaVuSans-Bold-20" transform="translate(419.042969 0)"/>
     <use xlink:href="#DejaVuSans-Bold-61" transform="translate(453.857422 0)"/>
     <use xlink:href="#DejaVuSans-Bold-74" transform="translate(521.337891 0)"/>
    </g>
    <!-- calibrated density -->
    <g style="fill: #ffffff" transform="translate(54.9525 184.269) scale(0.16 -0.16)">
     <defs>
      <path id="DejaVuSans-Bold-62" d="M 2400 722 
Q 2759 722 2948 984 
Q 3138 1247 3138 1747 
Q 3138 2247 2948 2509 
Q 2759 2772 2400 2772 
Q 2041 2772 1848 2508 
Q 1656 2244 1656 1747 
Q 1656 1250 1848 986 
Q 2041 722 2400 722 
z
M 1656 2988 
Q 1888 3294 2169 3439 
Q 2450 3584 2816 3584 
Q 3463 3584 3878 3070 
Q 4294 2556 4294 1747 
Q 4294 938 3878 423 
Q 3463 -91 2816 -91 
Q 2450 -91 2169 54 
Q 1888 200 1656 506 
L 1656 0 
L 538 0 
L 538 4863 
L 1656 4863 
L 1656 2988 
z
" transform="scale(0.015625)"/>
      <path id="DejaVuSans-Bold-72" d="M 3138 2547 
Q 2991 2616 2845 2648 
Q 2700 2681 2553 2681 
Q 2122 2681 1889 2404 
Q 1656 2128 1656 1613 
L 1656 0 
L 538 0 
L 538 3500 
L 1656 3500 
L 1656 2925 
Q 1872 3269 2151 3426 
Q 2431 3584 2822 3584 
Q 2878 3584 2943 3579 
Q 3009 3575 3134 3559 
L 3138 2547 
z
" transform="scale(0.015625)"/>
     </defs>
     <use xlink:href="#DejaVuSans-Bold-63"/>
     <use xlink:href="#DejaVuSans-Bold-61" transform="translate(59.277344 0)"/>
     <use xlink:href="#DejaVuSans-Bold-6c" transform="translate(126.757812 0)"/>
     <use xlink:href="#DejaVuSans-Bold-69" transform="translate(161.035156 0)"/>
     <use xlink:href="#DejaVuSans-Bold-62" transform="translate(195.3125 0)"/>
     <use xlink:href="#DejaVuSans-Bold-72" transform="translate(266.894531 0)"/>
     <use xlink:href="#DejaVuSans-Bold-61" transform="translate(316.210938 0)"/>
     <use xlink:href="#DejaVuSans-Bold-74" transform="translate(383.691406 0)"/>
     <use xlink:href="#DejaVuSans-Bold-65" transform="translate(431.494141 0)"/>
     <use xlink:href="#DejaVuSans-Bold-64" transform="translate(499.316406 0)"/>
     <use xlink:href="#DejaVuSans-Bold-20" transform="translate(570.898438 0)"/>
     <use xlink:href="#DejaVuSans-Bold-64" transform="translate(605.712891 0)"/>
     <use xlink:href="#DejaVuSans-Bold-65" transform="translate(677.294922 0)"/>
     <use xlink:href="#DejaVuSans-Bold-6e" transform="translate(745.117188 0)"/>
     <use xlink:href="#DejaVuSans-Bold-73" transform="translate(816.308594 0)"/>
     <use xlink:href="#DejaVuSans-Bold-69" transform="translate(875.830078 0)"/>
     <use xlink:href="#DejaVuSans-Bold-74" transform="translate(910.107422 0)"/>
     <use xlink:href="#DejaVuSans-Bold-79" transform="translate(957.910156 0)"/>
    </g>
   </g>
   <g id="text_4">
    <!-- Assign intensities -->
    <g style="fill: #ffffff" transform="translate(281.1375 146.7685) scale(0.16 -0.16)">
     <defs>
      <path id="DejaVuSans-Bold-41" d="M 3419 850 
L 1538 850 
L 1241 0 
L 31 0 
L 1759 4666 
L 3194 4666 
L 4922 0 
L 3713 0 
L 3419 850 
z
M 1838 1716 
L 3116 1716 
L 2478 3572 
L 1838 1716 
z
" transform="scale(0.015625)"/>
      <path id="DejaVuSans-Bold-67" d="M 2919 594 
Q 2688 288 2409 144 
Q 2131 0 1766 0 
Q 1125 0 706 504 
Q 288 1009 288 1791 
Q 288 2575 706 3076 
Q 1125 3578 1766 3578 
Q 2131 3578 2409 3434 
Q 2688 3291 2919 2981 
L 2919 3500 
L 4044 3500 
L 4044 353 
Q 4044 -491 3511 -936 
Q 2978 -1381 1966 -1381 
Q 1638 -1381 1331 -1331 
Q 1025 -1281 716 -1178 
L 716 -306 
Q 1009 -475 1290 -558 
Q 1572 -641 1856 -641 
Q 2406 -641 2662 -400 
Q 2919 -159 2919 353 
L 2919 594 
z
M 2181 2772 
Q 1834 2772 1640 2515 
Q 1447 2259 1447 1791 
Q 1447 1309 1634 1061 
Q 1822 813 2181 813 
Q 2531 813 2725 1069 
Q 2919 1325 2919 1791 
Q 2919 2259 2725 2515 
Q 2531 2772 2181 2772 
z
" transform="scale(0.015625)"/>
     </defs>
     <use xlink:href="#DejaVuSans-Bold-41"/>
     <use xlink:href="#DejaVuSans-Bold-73" transform="translate(77.392578 0)"/>
     <use xlink:href="#DejaVuSans-Bold-73" transform="translate(136.914062 0)"/>
     <use xlink:href="#DejaVuSans-Bold-69" transform="translate(196.435547 0)"/>
     <use xlink:href="#DejaVuSans-Bold-67" transform="translate(230.712891 0)"/>
     <use xlink:href="#DejaVuSans-Bold-6e" transform="translate(302.294922 0)"/>
     <use xlink:href="#DejaVuSans-Bold-20" transform="translate(373.486328 0)"/>
     <use xlink:href="#DejaVuSans-Bold-69" transform="translate(408.300781 0)"/>
     <use xlink:href="#DejaVuSans-Bold-6e" transform="translate(442.578125 0)"/>
     <use xlink:href="#DejaVuSans-Bold-74" transform="translate(513.769531 0)"/>
     <use xlink:href="#DejaVuSans-Bold-65" transform="translate(561.572266 0)"/>
     <use xlink:href="#DejaVuSans-Bold-6e" transform="translate(629.394531 0)"/>
     <use xlink:href="#DejaVuSans-Bold-73" transform="translate(700.585938 0)"/>
     <use xlink:href="#DejaVuSans-Bold-69" transform="translate(760.107422 0)"/>
     <use xlink:href="#DejaVuSans-Bold-74" transform="translate(794.384766 0)"/>
     <use xlink:href="#DejaVuSans-Bold-69" transform="translate(842.1875 0)"/>
     <use xlink:href="#DejaVuSans-Bold-65" transform="translate(876.464844 0)"/>
     <use xlink:href="#DejaVuSans-Bold-73" transform="translate(944.287109 0)"/>
    </g>
    <!-- lipid $\propto d^{2}$ -->
    <g style="fill: #ffffff" transform="translate(320.64 167.693) scale(0.16 -0.16)">
     <defs>
      <path id="DejaVuSans-221d" d="M 1647 1134 
Q 2163 1134 2472 1884 
Q 2075 2703 1647 2703 
Q 1334 2703 1175 2478 
Q 1006 2238 1006 1919 
Q 1006 1569 1175 1353 
Q 1350 1134 1647 1134 
z
M 3884 1128 
L 3884 716 
L 3644 716 
Q 3416 716 3247 809 
Q 3078 894 2916 1091 
Q 2819 1203 2666 1466 
Q 2456 1091 2272 925 
Q 2044 725 1681 725 
Q 1259 725 981 1041 
Q 688 1372 688 1919 
Q 688 2444 981 2800 
Q 1241 3116 1688 3116 
Q 1916 3116 2084 3022 
Q 2281 2919 2416 2741 
Q 2541 2581 2666 2366 
Q 2875 2741 3059 2906 
Q 3288 3106 3650 3106 
L 3884 3106 
L 3884 2697 
L 3684 2697 
Q 3222 2697 2859 1947 
Q 3256 1128 3684 1128 
L 3884 1128 
z
" transform="scale(0.015625)"/>
      <path id="DejaVuSans-32" d="M 1228 531 
L 3431 531 
L 3431 0 
L 469 0 
L 469 531 
Q 828 903 1448 1529 
Q 2069 2156 2228 2338 
Q 2531 2678 2651 2914 
Q 2772 3150 2772 3378 
Q 2772 3750 2511 3984 
Q 2250 4219 1831 4219 
Q 1534 4219 1204 4116 
Q 875 4013 500 3803 
L 500 4441 
Q 881 4594 1212 4672 
Q 1544 4750 1819 4750 
Q 2544 4750 2975 4387 
Q 3406 4025 3406 3419 
Q 3406 3131 3298 2873 
Q 3191 2616 2906 2266 
Q 2828 2175 2409 1742 
Q 1991 1309 1228 531 
z
" transform="scale(0.015625)"/>
     </defs>
     <use xlink:href="#DejaVuSans-Bold-6c" transform="translate(0 0.765625)"/>
     <use xlink:href="#DejaVuSans-Bold-69" transform="translate(34.277344 0.765625)"/>
     <use xlink:href="#DejaVuSans-Bold-70" transform="translate(68.554688 0.765625)"/>
     <use xlink:href="#DejaVuSans-Bold-69" transform="translate(140.136719 0.765625)"/>
     <use xlink:href="#DejaVuSans-Bold-64" transform="translate(174.414062 0.765625)"/>
     <use xlink:href="#DejaVuSans-Bold-20" transform="translate(245.996094 0.765625)"/>
     <use xlink:href="#DejaVuSans-221d" transform="translate(300.292969 0.765625)"/>
     <use xlink:href="#DejaVuSans-Oblique-64" transform="translate(391.210938 0.765625)"/>
     <use xlink:href="#DejaVuSans-32" transform="translate(462.135208 39.046875) scale(0.7)"/>
    </g>
    <!-- protein $\propto d^{\alpha}$ -->
    <g style="fill: #ffffff" transform="translate(307.36 186.029) scale(0.16 -0.16)">
     <defs>
      <path id="DejaVuSans-Bold-6f" d="M 2203 2784 
Q 1831 2784 1636 2517 
Q 1441 2250 1441 1747 
Q 1441 1244 1636 976 
Q 1831 709 2203 709 
Q 2569 709 2762 976 
Q 2956 1244 2956 1747 
Q 2956 2250 2762 2517 
Q 2569 2784 2203 2784 
z
M 2203 3584 
Q 3106 3584 3614 3096 
Q 4122 2609 4122 1747 
Q 4122 884 3614 396 
Q 3106 -91 2203 -91 
Q 1297 -91 786 396 
Q 275 884 275 1747 
Q 275 2609 786 3096 
Q 1297 3584 2203 3584 
z
" transform="scale(0.015625)"/>
      <path id="DejaVuSans-Oblique-3b1" d="M 2619 1628 
L 2622 2350 
Q 2625 3088 2069 3091 
Q 1653 3094 1394 2747 
Q 1069 2319 959 1747 
Q 825 1059 994 731 
Q 1169 397 1547 397 
Q 1966 397 2319 1063 
L 2619 1628 
z
M 2166 3578 
Q 3141 3594 3128 2584 
Q 3128 2584 3616 3500 
L 4128 3500 
L 3119 1603 
L 3109 919 
Q 3109 766 3194 638 
Q 3291 488 3391 488 
L 3669 488 
L 3575 0 
L 3228 0 
Q 2934 0 2722 263 
Q 2622 394 2619 669 
Q 2416 334 2066 50 
Q 1900 -81 1453 -78 
Q 722 -72 456 397 
Q 184 884 353 1747 
Q 534 2675 1009 3097 
Q 1544 3569 2166 3578 
z
" transform="scale(0.015625)"/>
     </defs>
     <use xlink:href="#DejaVuSans-Bold-70" transform="translate(0 0.409375)"/>
     <use xlink:href="#DejaVuSans-Bold-72" transform="translate(71.582031 0.409375)"/>
     <use xlink:href="#DejaVuSans-Bold-6f" transform="translate(120.898438 0.409375)"/>
     <use xlink:href="#DejaVuSans-Bold-74" transform="translate(189.599609 0.409375)"/>
     <use xlink:href="#DejaVuSans-Bold-65" transform="translate(237.402344 0.409375)"/>
     <use xlink:href="#DejaVuSans-Bold-69" transform="translate(305.224609 0.409375)"/>
     <use xlink:href="#DejaVuSans-Bold-6e" transform="translate(339.501953 0.409375)"/>
     <use xlink:href="#DejaVuSans-Bold-20" transform="translate(410.693359 0.409375)"/>
     <use xlink:href="#DejaVuSans-221d" transform="translate(464.990234 0.409375)"/>
     <use xlink:href="#DejaVuSans-Oblique-64" transform="translate(555.908203 0.409375)"/>
     <use xlink:href="#DejaVuSans-Oblique-3b1" transform="translate(626.832474 38.690625) scale(0.7)"/>
    </g>
   </g>
   <g id="text_5">
    <!-- Optical blur -->
    <g style="fill: #ffffff" transform="translate(519.104297 157.172797) scale(0.17 -0.17)">
     <defs>
      <path id="DejaVuSans-Bold-4f" d="M 2719 3878 
Q 2169 3878 1866 3472 
Q 1563 3066 1563 2328 
Q 1563 1594 1866 1187 
Q 2169 781 2719 781 
Q 3272 781 3575 1187 
Q 3878 1594 3878 2328 
Q 3878 3066 3575 3472 
Q 3272 3878 2719 3878 
z
M 2719 4750 
Q 3844 4750 4481 4106 
Q 5119 3463 5119 2328 
Q 5119 1197 4481 553 
Q 3844 -91 2719 -91 
Q 1597 -91 958 553 
Q 319 1197 319 2328 
Q 319 3463 958 4106 
Q 1597 4750 2719 4750 
z
" transform="scale(0.015625)"/>
      <path id="DejaVuSans-Bold-75" d="M 500 1363 
L 500 3500 
L 1625 3500 
L 1625 3150 
Q 1625 2866 1622 2436 
Q 1619 2006 1619 1863 
Q 1619 1441 1641 1255 
Q 1663 1069 1716 984 
Q 1784 875 1895 815 
Q 2006 756 2150 756 
Q 2500 756 2700 1025 
Q 2900 1294 2900 1772 
L 2900 3500 
L 4019 3500 
L 4019 0 
L 2900 0 
L 2900 506 
Q 2647 200 2364 54 
Q 2081 -91 1741 -91 
Q 1134 -91 817 281 
Q 500 653 500 1363 
z
" transform="scale(0.015625)"/>
     </defs>
     <use xlink:href="#DejaVuSans-Bold-4f"/>
     <use xlink:href="#DejaVuSans-Bold-70" transform="translate(85.009766 0)"/>
     <use xlink:href="#DejaVuSans-Bold-74" transform="translate(156.591797 0)"/>
     <use xlink:href="#DejaVuSans-Bold-69" transform="translate(204.394531 0)"/>
     <use xlink:href="#DejaVuSans-Bold-63" transform="translate(238.671875 0)"/>
     <use xlink:href="#DejaVuSans-Bold-61" transform="translate(297.949219 0)"/>
     <use xlink:href="#DejaVuSans-Bold-6c" transform="translate(365.429688 0)"/>
     <use xlink:href="#DejaVuSans-Bold-20" transform="translate(399.707031 0)"/>
     <use xlink:href="#DejaVuSans-Bold-62" transform="translate(434.521484 0)"/>
     <use xlink:href="#DejaVuSans-Bold-6c" transform="translate(506.103516 0)"/>
     <use xlink:href="#DejaVuSans-Bold-75" transform="translate(540.380859 0)"/>
     <use xlink:href="#DejaVuSans-Bold-72" transform="translate(611.572266 0)"/>
    </g>
    <!-- (PSF) -->
    <g style="fill: #ffffff" transform="translate(549.352344 176.209078) scale(0.17 -0.17)">
     <defs>
      <path id="DejaVuSans-Bold-28" d="M 2413 -844 
L 1484 -844 
Q 1006 -72 778 623 
Q 550 1319 550 2003 
Q 550 2688 779 3389 
Q 1009 4091 1484 4856 
L 2413 4856 
Q 2013 4116 1813 3408 
Q 1613 2700 1613 2009 
Q 1613 1319 1811 609 
Q 2009 -100 2413 -844 
z
" transform="scale(0.015625)"/>
      <path id="DejaVuSans-Bold-50" d="M 588 4666 
L 2584 4666 
Q 3475 4666 3951 4270 
Q 4428 3875 4428 3144 
Q 4428 2409 3951 2014 
Q 3475 1619 2584 1619 
L 1791 1619 
L 1791 0 
L 588 0 
L 588 4666 
z
M 1791 3794 
L 1791 2491 
L 2456 2491 
Q 2806 2491 2997 2661 
Q 3188 2831 3188 3144 
Q 3188 3456 2997 3625 
Q 2806 3794 2456 3794 
L 1791 3794 
z
" transform="scale(0.015625)"/>
      <path id="DejaVuSans-Bold-46" d="M 588 4666 
L 3834 4666 
L 3834 3756 
L 1791 3756 
L 1791 2888 
L 3713 2888 
L 3713 1978 
L 1791 1978 
L 1791 0 
L 588 0 
L 588 4666 
z
" transform="scale(0.015625)"/>
      <path id="DejaVuSans-Bold-29" d="M 513 -844 
Q 913 -100 1113 609 
Q 1313 1319 1313 2009 
Q 1313 2700 1113 3408 
Q 913 4116 513 4856 
L 1441 4856 
Q 1916 4091 2145 3389 
Q 2375 2688 2375 2003 
Q 2375 1319 2147 623 
Q 1919 -72 1441 -844 
L 513 -844 
z
" transform="scale(0.015625)"/>
     </defs>
     <use xlink:href="#DejaVuSans-Bold-28"/>
     <use xlink:href="#DejaVuSans-Bold-50" transform="translate(45.703125 0)"/>
     <use xlink:href="#DejaVuSans-Bold-53" transform="translate(118.994141 0)"/>
     <use xlink:href="#DejaVuSans-Bold-46" transform="translate(191.015625 0)"/>
     <use xlink:href="#DejaVuSans-Bold-29" transform="translate(259.326172 0)"/>
    </g>
   </g>
   <g id="text_6">
    <!-- Detector physics: -->
    <g style="fill: #ffffff" transform="translate(736.903828 135.385594) scale(0.135 -0.135)">
     <defs>
      <path id="DejaVuSans-Bold-44" d="M 1791 3756 
L 1791 909 
L 2222 909 
Q 2959 909 3348 1275 
Q 3738 1641 3738 2338 
Q 3738 3031 3350 3393 
Q 2963 3756 2222 3756 
L 1791 3756 
z
M 588 4666 
L 1856 4666 
Q 2919 4666 3439 4514 
Q 3959 4363 4331 4000 
Q 4659 3684 4818 3271 
Q 4978 2859 4978 2338 
Q 4978 1809 4818 1395 
Q 4659 981 4331 666 
Q 3956 303 3431 151 
Q 2906 0 1856 0 
L 588 0 
L 588 4666 
z
" transform="scale(0.015625)"/>
      <path id="DejaVuSans-Bold-3a" d="M 716 3500 
L 1844 3500 
L 1844 2291 
L 716 2291 
L 716 3500 
z
M 716 1209 
L 1844 1209 
L 1844 0 
L 716 0 
L 716 1209 
z
" transform="scale(0.015625)"/>
     </defs>
     <use xlink:href="#DejaVuSans-Bold-44"/>
     <use xlink:href="#DejaVuSans-Bold-65" transform="translate(83.007812 0)"/>
     <use xlink:href="#DejaVuSans-Bold-74" transform="translate(150.830078 0)"/>
     <use xlink:href="#DejaVuSans-Bold-65" transform="translate(198.632812 0)"/>
     <use xlink:href="#DejaVuSans-Bold-63" transform="translate(266.455078 0)"/>
     <use xlink:href="#DejaVuSans-Bold-74" transform="translate(325.732422 0)"/>
     <use xlink:href="#DejaVuSans-Bold-6f" transform="translate(373.535156 0)"/>
     <use xlink:href="#DejaVuSans-Bold-72" transform="translate(442.236328 0)"/>
     <use xlink:href="#DejaVuSans-Bold-20" transform="translate(491.552734 0)"/>
     <use xlink:href="#DejaVuSans-Bold-70" transform="translate(526.367188 0)"/>
     <use xlink:href="#DejaVuSans-Bold-68" transform="translate(597.949219 0)"/>
     <use xlink:href="#DejaVuSans-Bold-79" transform="translate(669.140625 0)"/>
     <use xlink:href="#DejaVuSans-Bold-73" transform="translate(734.326172 0)"/>
     <use xlink:href="#DejaVuSans-Bold-69" transform="translate(793.847656 0)"/>
     <use xlink:href="#DejaVuSans-Bold-63" transform="translate(828.125 0)"/>
     <use xlink:href="#DejaVuSans-Bold-73" transform="translate(887.402344 0)"/>
     <use xlink:href="#DejaVuSans-Bold-3a" transform="translate(946.923828 0)"/>
    </g>
    <!-- Poisson shot noise → -->
    <g style="fill: #ffffff" transform="translate(724.399453 150.608109) scale(0.135 -0.135)">
     <defs>
      <path id="DejaVuSans-Bold-2192" d="M 5050 2225 
L 5050 1788 
L 3822 559 
L 3369 1013 
L 3988 1631 
L 366 1631 
L 366 2381 
L 3988 2381 
L 3369 3000 
L 3822 3453 
L 5050 2225 
z
" transform="scale(0.015625)"/>
     </defs>
     <use xlink:href="#DejaVuSans-Bold-50"/>
     <use xlink:href="#DejaVuSans-Bold-6f" transform="translate(73.291016 0)"/>
     <use xlink:href="#DejaVuSans-Bold-69" transform="translate(141.992188 0)"/>
     <use xlink:href="#DejaVuSans-Bold-73" transform="translate(176.269531 0)"/>
     <use xlink:href="#DejaVuSans-Bold-73" transform="translate(235.791016 0)"/>
     <use xlink:href="#DejaVuSans-Bold-6f" transform="translate(295.3125 0)"/>
     <use xlink:href="#DejaVuSans-Bold-6e" transform="translate(364.013672 0)"/>
     <use xlink:href="#DejaVuSans-Bold-20" transform="translate(435.205078 0)"/>
     <use xlink:href="#DejaVuSans-Bold-73" transform="translate(470.019531 0)"/>
     <use xlink:href="#DejaVuSans-Bold-68" transform="translate(529.541016 0)"/>
     <use xlink:href="#DejaVuSans-Bold-6f" transform="translate(600.732422 0)"/>
     <use xlink:href="#DejaVuSans-Bold-74" transform="translate(669.433594 0)"/>
     <use xlink:href="#DejaVuSans-Bold-20" transform="translate(717.236328 0)"/>
     <use xlink:href="#DejaVuSans-Bold-6e" transform="translate(752.050781 0)"/>
     <use xlink:href="#DejaVuSans-Bold-6f" transform="translate(823.242188 0)"/>
     <use xlink:href="#DejaVuSans-Bold-69" transform="translate(891.943359 0)"/>
     <use xlink:href="#DejaVuSans-Bold-73" transform="translate(926.220703 0)"/>
     <use xlink:href="#DejaVuSans-Bold-65" transform="translate(985.742188 0)"/>
     <use xlink:href="#DejaVuSans-Bold-20" transform="translate(1053.564453 0)"/>
     <use xlink:href="#DejaVuSans-Bold-2192" transform="translate(1088.378906 0)"/>
    </g>
    <!-- gain × excess-noise → -->
    <g style="fill: #ffffff" transform="translate(719.951836 165.725156) scale(0.135 -0.135)">
     <defs>
      <path id="DejaVuSans-Bold-d7" d="M 4563 3359 
L 3206 2003 
L 4563 653 
L 4038 128 
L 2681 1478 
L 1325 128 
L 800 653 
L 2156 2003 
L 800 3359 
L 1325 3884 
L 2681 2528 
L 4038 3884 
L 4563 3359 
z
" transform="scale(0.015625)"/>
      <path id="DejaVuSans-Bold-78" d="M 1422 1791 
L 159 3500 
L 1344 3500 
L 2059 2463 
L 2784 3500 
L 3969 3500 
L 2706 1797 
L 4031 0 
L 2847 0 
L 2059 1106 
L 1281 0 
L 97 0 
L 1422 1791 
z
" transform="scale(0.015625)"/>
      <path id="DejaVuSans-Bold-2d" d="M 347 2297 
L 2309 2297 
L 2309 1388 
L 347 1388 
L 347 2297 
z
" transform="scale(0.015625)"/>
     </defs>
     <use xlink:href="#DejaVuSans-Bold-67"/>
     <use xlink:href="#DejaVuSans-Bold-61" transform="translate(71.582031 0)"/>
     <use xlink:href="#DejaVuSans-Bold-69" transform="translate(139.0625 0)"/>
     <use xlink:href="#DejaVuSans-Bold-6e" transform="translate(173.339844 0)"/>
     <use xlink:href="#DejaVuSans-Bold-20" transform="translate(244.53125 0)"/>
     <use xlink:href="#DejaVuSans-Bold-d7" transform="translate(279.345703 0)"/>
     <use xlink:href="#DejaVuSans-Bold-20" transform="translate(363.134766 0)"/>
     <use xlink:href="#DejaVuSans-Bold-65" transform="translate(397.949219 0)"/>
     <use xlink:href="#DejaVuSans-Bold-78" transform="translate(465.771484 0)"/>
     <use xlink:href="#DejaVuSans-Bold-63" transform="translate(530.273438 0)"/>
     <use xlink:href="#DejaVuSans-Bold-65" transform="translate(589.550781 0)"/>
     <use xlink:href="#DejaVuSans-Bold-73" transform="translate(657.373047 0)"/>
     <use xlink:href="#DejaVuSans-Bold-73" transform="translate(716.894531 0)"/>
     <use xlink:href="#DejaVuSans-Bold-2d" transform="translate(776.416016 0)"/>
     <use xlink:href="#DejaVuSans-Bold-6e" transform="translate(817.919922 0)"/>
     <use xlink:href="#DejaVuSans-Bold-6f" transform="translate(889.111328 0)"/>
     <use xlink:href="#DejaVuSans-Bold-69" transform="translate(957.8125 0)"/>
     <use xlink:href="#DejaVuSans-Bold-73" transform="translate(992.089844 0)"/>
     <use xlink:href="#DejaVuSans-Bold-65" transform="translate(1051.611328 0)"/>
     <use xlink:href="#DejaVuSans-Bold-20" transform="translate(1119.433594 0)"/>
     <use xlink:href="#DejaVuSans-Bold-2192" transform="translate(1154.248047 0)"/>
    </g>
    <!-- read noise + bias → -->
    <g style="fill: #ffffff" transform="translate(729.444023 180.947672) scale(0.135 -0.135)">
     <use xlink:href="#DejaVuSans-Bold-72"/>
     <use xlink:href="#DejaVuSans-Bold-65" transform="translate(49.316406 0)"/>
     <use xlink:href="#DejaVuSans-Bold-61" transform="translate(117.138672 0)"/>
     <use xlink:href="#DejaVuSans-Bold-64" transform="translate(184.619141 0)"/>
     <use xlink:href="#DejaVuSans-Bold-20" transform="translate(256.201172 0)"/>
     <use xlink:href="#DejaVuSans-Bold-6e" transform="translate(291.015625 0)"/>
     <use xlink:href="#DejaVuSans-Bold-6f" transform="translate(362.207031 0)"/>
     <use xlink:href="#DejaVuSans-Bold-69" transform="translate(430.908203 0)"/>
     <use xlink:href="#DejaVuSans-Bold-73" transform="translate(465.185547 0)"/>
     <use xlink:href="#DejaVuSans-Bold-65" transform="translate(524.707031 0)"/>
     <use xlink:href="#DejaVuSans-Bold-20" transform="translate(592.529297 0)"/>
     <use xlink:href="#DejaVuSans-Bold-2b" transform="translate(627.34375 0)"/>
     <use xlink:href="#DejaVuSans-Bold-20" transform="translate(711.132812 0)"/>
     <use xlink:href="#DejaVuSans-Bold-62" transform="translate(745.947266 0)"/>
     <use xlink:href="#DejaVuSans-Bold-69" transform="translate(817.529297 0)"/>
     <use xlink:href="#DejaVuSans-Bold-61" transform="translate(851.806641 0)"/>
     <use xlink:href="#DejaVuSans-Bold-73" transform="translate(919.287109 0)"/>
     <use xlink:href="#DejaVuSans-Bold-20" transform="translate(978.808594 0)"/>
     <use xlink:href="#DejaVuSans-Bold-2192" transform="translate(1013.623047 0)"/>
    </g>
    <!-- clip to 12-bit -->
    <g style="fill: #ffffff" transform="translate(754.929492 196.064719) scale(0.135 -0.135)">
     <defs>
      <path id="DejaVuSans-Bold-31" d="M 750 831 
L 1813 831 
L 1813 3847 
L 722 3622 
L 722 4441 
L 1806 4666 
L 2950 4666 
L 2950 831 
L 4013 831 
L 4013 0 
L 750 0 
L 750 831 
z
" transform="scale(0.015625)"/>
      <path id="DejaVuSans-Bold-32" d="M 1844 884 
L 3897 884 
L 3897 0 
L 506 0 
L 506 884 
L 2209 2388 
Q 2438 2594 2547 2791 
Q 2656 2988 2656 3200 
Q 2656 3528 2436 3728 
Q 2216 3928 1850 3928 
Q 1569 3928 1234 3808 
Q 900 3688 519 3450 
L 519 4475 
Q 925 4609 1322 4679 
Q 1719 4750 2100 4750 
Q 2938 4750 3402 4381 
Q 3866 4013 3866 3353 
Q 3866 2972 3669 2642 
Q 3472 2313 2841 1759 
L 1844 884 
z
" transform="scale(0.015625)"/>
     </defs>
     <use xlink:href="#DejaVuSans-Bold-63"/>
     <use xlink:href="#DejaVuSans-Bold-6c" transform="translate(59.277344 0)"/>
     <use xlink:href="#DejaVuSans-Bold-69" transform="translate(93.554688 0)"/>
     <use xlink:href="#DejaVuSans-Bold-70" transform="translate(127.832031 0)"/>
     <use xlink:href="#DejaVuSans-Bold-20" transform="translate(199.414062 0)"/>
     <use xlink:href="#DejaVuSans-Bold-74" transform="translate(234.228516 0)"/>
     <use xlink:href="#DejaVuSans-Bold-6f" transform="translate(282.03125 0)"/>
     <use xlink:href="#DejaVuSans-Bold-20" transform="translate(350.732422 0)"/>
     <use xlink:href="#DejaVuSans-Bold-31" transform="translate(385.546875 0)"/>
     <use xlink:href="#DejaVuSans-Bold-32" transform="translate(455.126953 0)"/>
     <use xlink:href="#DejaVuSans-Bold-2d" transform="translate(524.707031 0)"/>
     <use xlink:href="#DejaVuSans-Bold-62" transform="translate(566.210938 0)"/>
     <use xlink:href="#DejaVuSans-Bold-69" transform="translate(637.792969 0)"/>
     <use xlink:href="#DejaVuSans-Bold-74" transform="translate(672.070312 0)"/>
    </g>
   </g>
   <g id="text_7">
    <!-- Realistic image -->
    <g style="fill: #ffffff" transform="translate(975.785625 146.670187) scale(0.18 -0.18)">
     <defs>
      <path id="DejaVuSans-Bold-52" d="M 2297 2597 
Q 2675 2597 2839 2737 
Q 3003 2878 3003 3200 
Q 3003 3519 2839 3656 
Q 2675 3794 2297 3794 
L 1791 3794 
L 1791 2597 
L 2297 2597 
z
M 1791 1766 
L 1791 0 
L 588 0 
L 588 4666 
L 2425 4666 
Q 3347 4666 3776 4356 
Q 4206 4047 4206 3378 
Q 4206 2916 3982 2619 
Q 3759 2322 3309 2181 
Q 3556 2125 3751 1926 
Q 3947 1728 4147 1325 
L 4800 0 
L 3519 0 
L 2950 1159 
Q 2778 1509 2601 1637 
Q 2425 1766 2131 1766 
L 1791 1766 
z
" transform="scale(0.015625)"/>
     </defs>
     <use xlink:href="#DejaVuSans-Bold-52"/>
     <use xlink:href="#DejaVuSans-Bold-65" transform="translate(77.001953 0)"/>
     <use xlink:href="#DejaVuSans-Bold-61" transform="translate(144.824219 0)"/>
     <use xlink:href="#DejaVuSans-Bold-6c" transform="translate(212.304688 0)"/>
     <use xlink:href="#DejaVuSans-Bold-69" transform="translate(246.582031 0)"/>
     <use xlink:href="#DejaVuSans-Bold-73" transform="translate(280.859375 0)"/>
     <use xlink:href="#DejaVuSans-Bold-74" transform="translate(340.380859 0)"/>
     <use xlink:href="#DejaVuSans-Bold-69" transform="translate(388.183594 0)"/>
     <use xlink:href="#DejaVuSans-Bold-63" transform="translate(422.460938 0)"/>
     <use xlink:href="#DejaVuSans-Bold-20" transform="translate(481.738281 0)"/>
     <use xlink:href="#DejaVuSans-Bold-69" transform="translate(516.552734 0)"/>
     <use xlink:href="#DejaVuSans-Bold-6d" transform="translate(550.830078 0)"/>
     <use xlink:href="#DejaVuSans-Bold-61" transform="translate(655.029297 0)"/>
     <use xlink:href="#DejaVuSans-Bold-67" transform="translate(722.509766 0)"/>
     <use xlink:href="#DejaVuSans-Bold-65" transform="translate(794.091797 0)"/>
    </g>
    <!-- + known -->
    <g style="fill: #ffffff" transform="translate(1009.387969 166.966875) scale(0.18 -0.18)">
     <defs>
      <path id="DejaVuSans-Bold-6b" d="M 538 4863 
L 1656 4863 
L 1656 2216 
L 2944 3500 
L 4244 3500 
L 2534 1894 
L 4378 0 
L 3022 0 
L 1656 1459 
L 1656 0 
L 538 0 
L 538 4863 
z
" transform="scale(0.015625)"/>
     </defs>
     <use xlink:href="#DejaVuSans-Bold-2b"/>
     <use xlink:href="#DejaVuSans-Bold-20" transform="translate(83.789062 0)"/>
     <use xlink:href="#DejaVuSans-Bold-6b" transform="translate(118.603516 0)"/>
     <use xlink:href="#DejaVuSans-Bold-6e" transform="translate(185.107422 0)"/>
     <use xlink:href="#DejaVuSans-Bold-6f" transform="translate(256.298828 0)"/>
     <use xlink:href="#DejaVuSans-Bold-77" transform="translate(325 0)"/>
     <use xlink:href="#DejaVuSans-Bold-6e" transform="translate(417.382812 0)"/>
    </g>
    <!-- ground truth -->
    <g style="fill: #ffffff" transform="translate(988.052344 187.122937) scale(0.18 -0.18)">
     <use xlink:href="#DejaVuSans-Bold-67"/>
     <use xlink:href="#DejaVuSans-Bold-72" transform="translate(71.582031 0)"/>
     <use xlink:href="#DejaVuSans-Bold-6f" transform="translate(120.898438 0)"/>
     <use xlink:href="#DejaVuSans-Bold-75" transform="translate(189.599609 0)"/>
     <use xlink:href="#DejaVuSans-Bold-6e" transform="translate(260.791016 0)"/>
     <use xlink:href="#DejaVuSans-Bold-64" transform="translate(331.982422 0)"/>
     <use xlink:href="#DejaVuSans-Bold-20" transform="translate(403.564453 0)"/>
     <use xlink:href="#DejaVuSans-Bold-74" transform="translate(438.378906 0)"/>
     <use xlink:href="#DejaVuSans-Bold-72" transform="translate(486.181641 0)"/>
     <use xlink:href="#DejaVuSans-Bold-75" transform="translate(535.498047 0)"/>
     <use xlink:href="#DejaVuSans-Bold-74" transform="translate(606.689453 0)"/>
     <use xlink:href="#DejaVuSans-Bold-68" transform="translate(654.492188 0)"/>
    </g>
   </g>
  </g>
 </g>
 <defs>
  <clipPath id="pcd3af581fe">
   <rect x="7.2" y="7.2" width="1188" height="374.4"/>
  </clipPath>
 </defs>
</svg>
