<?xml version="1.0" encoding="utf-8" standalone="no"?>
<!DOCTYPE svg PUBLIC "-//W3C//DTD SVG 1.1//EN"
  "http://www.w3.org/Graphics/SVG/1.1/DTD/svg11.dtd">
<svg xmlns:xlink="http://www.w3.org/1999/xlink" width="1202.4pt" height="388.8pt" viewBox="0 0 1202.4 388.8" xmlns="http://www.w3.org/2000/svg" version="1.1">
 <metadata>
  <rdf:RDF xmlns:dc="http://purl.org/dc/elements/1.1/" xmlns:cc="http://creativecommons.org/ns#" xmlns:rdf="http://www.w3.org/1999/02/22-rdf-syntax-ns#">
   <cc:Work>
    <dc:type rdf:resource="http://purl.org/dc/dcmitype/StillImage"/>
    <dc:date>2026-06-12T14:05:56.612424</dc:date>
    <dc:format>image/svg+xml</dc:format>
    <dc:creator>
     <cc:Agent>
      <dc:title>Matplotlib v3.10.9, https://matplotlib.org/</dc:title>
     </cc:Agent>
    </dc:creator>
   </cc:Work>
  </rdf:RDF>
 </metadata>
 <defs>
  <style type="text/css">*{stroke-linejoin: round; stroke-linecap: butt}</style>
 </defs>
 <g id="figure_1">
  <g id="patch_1">
   <path d="M 0 388.8 
L 1202.4 388.8 
L 1202.4 -0 
L 0 -0 
L 0 388.8 
z
" style="fill: none"/>
  </g>
  <g id="axes_1">
   <g id="patch_2">
    <path d="M 942.48 256.68 
L 1164.24 256.68 
Q 1171.44 256.68 1171.44 249.48 
L 1171.44 74.52 
Q 1171.44 67.32 1164.24 67.32 
L 942.48 67.32 
Q 935.28 67.32 935.28 74.52 
L 935.28 249.48 
Q 935.28 256.68 942.48 256.68 
z
" clip-path="url(#p24653cc3d7)" style="fill: #d7f0e6; stroke: #009e73; stroke-width: 2.5; stroke-linejoin: miter"/>
   </g>
   <g id="patch_3">
    <path d="M 43.92 248.04 
L 229.68 248.04 
Q 235.44 248.04 235.44 242.28 
L 235.44 81.72 
Q 235.44 75.96 229.68 75.96 
L 43.92 75.96 
Q 38.16 75.96 38.16 81.72 
L 38.16 242.28 
Q 38.16 248.04 43.92 248.04 
z
" clip-path="url(#p24653cc3d7)" style="fill: #56b4e9; stroke: #56b4e9; stroke-width: 2; stroke-linejoin: miter"/>
   </g>
   <g id="patch_4">
    <path d="M 268.56 248.04 
L 454.32 248.04 
Q 460.08 248.04 460.08 242.28 
L 460.08 81.72 
Q 460.08 75.96 454.32 75.96 
L 268.56 75.96 
Q 262.8 75.96 262.8 81.72 
L 262.8 242.28 
Q 262.8 248.04 268.56 248.04 
z
" clip-path="url(#p24653cc3d7)" style="fill: #0072b2; stroke: #0072b2; stroke-width: 2; stroke-linejoin: miter"/>
   </g>
   <g id="patch_5">
    <path d="M 493.2 248.04 
L 657.36 248.04 
Q 663.12 248.04 663.12 242.28 
L 663.12 81.72 
Q 663.12 75.96 657.36 75.96 
L 493.2 75.96 
Q 487.44 75.96 487.44 81.72 
L 487.44 242.28 
Q 487.44 248.04 493.2 248.04 
z
" clip-path="url(#p24653cc3d7)" style="fill: #e69f00; stroke: #e69f00; stroke-width: 2; stroke-linejoin: miter"/>
   </g>
   <g id="patch_6">
    <path d="M 696.24 248.04 
L 910.8 248.04 
Q 916.56 248.04 916.56 242.28 
L 916.56 81.72 
Q 916.56 75.96 910.8 75.96 
L 696.24 75.96 
Q 690.48 75.96 690.48 81.72 
L 690.48 242.28 
Q 690.48 248.04 696.24 248.04 
z
" clip-path="url(#p24653cc3d7)" style="fill: #555555; stroke: #555555; stroke-width: 2; stroke-linejoin: miter"/>
   </g>
   <g id="patch_7">
    <path d="M 915.12 162 
Q 930.24 162 941.782291 162 
" clip-path="url(#p24653cc3d7)" style="fill: none; stroke: #444444; stroke-width: 3.2; stroke-linecap: round"/>
    <path d="M 932.982291 157.6 
L 941.782291 162 
L 932.982291 166.4 
z
" clip-path="url(#p24653cc3d7)" style="fill: #444444; stroke: #444444; stroke-width: 3.2; stroke-linecap: round"/>
   </g>
   <g id="patch_8">
    <path d="M 949.68 248.04 
L 1157.04 248.04 
Q 1162.8 248.04 1162.8 242.28 
L 1162.8 81.72 
Q 1162.8 75.96 1157.04 75.96 
L 949.68 75.96 
Q 943.92 75.96 943.92 81.72 
L 943.92 242.28 
Q 943.92 248.04 949.68 248.04 
z
" clip-path="url(#p24653cc3d7)" style="fill: #009e73; stroke: #009e73; stroke-width: 2; stroke-linejoin: miter"/>
   </g>
   <g id="patch_9">
    <path d="M 234 162 
Q 249.12 162 260.662291 162 
" clip-path="url(#p24653cc3d7)" style="fill: none; stroke: #444444; stroke-width: 3.2; stroke-linecap: round"/>
    <path d="M 251.862291 157.6 
L 260.662291 162 
L 251.862291 166.4 
z
" clip-path="url(#p24653cc3d7)" style="fill: #444444; stroke: #444444; stroke-width: 3.2; stroke-linecap: round"/>
   </g>
   <g id="patch_10">
    <path d="M 458.64 162 
Q 473.76 162 485.302291 162 
" clip-path="url(#p24653cc3d7)" style="fill: none; stroke: #444444; stroke-width: 3.2; stroke-linecap: round"/>
    <path d="M 476.502291 157.6 
L 485.302291 162 
L 476.502291 166.4 
z
" clip-path="url(#p24653cc3d7)" style="fill: #444444; stroke: #444444; stroke-width: 3.2; stroke-linecap: round"/>
   </g>
   <g id="patch_11">
    <path d="M 661.68 162 
Q 676.8 162 688.342291 162 
" clip-path="url(#p24653cc3d7)" style="fill: none; stroke: #444444; stroke-width: 3.2; stroke-linecap: round"/>
    <path d="M 679.542291 157.6 
L 688.342291 162 
L 679.542291 166.4 
z
" clip-path="url(#p24653cc3d7)" style="fill: #444444; stroke: #444444; stroke-width: 3.2; stroke-linecap: round"/>
   </g>
   <g id="text_1">
    <!-- ← why we can validate -->
    <g style="fill: #0b5c43" transform="translate(964.746562 281.717812) scale(0.14 -0.14)">
     <defs>
      <path id="DejaVuSans-Bold-2190" d="M 313 1788 
L 313 2225 
L 1541 3453 
L 1994 3000 
L 1375 2381 
L 4997 2381 
L 4997 1631 
L 1375 1631 
L 1994 1013 
L 1541 559 
L 313 1788 
z
" transform="scale(0.015625)"/>
      <path id="DejaVuSans-Bold-20" transform="scale(0.015625)"/>
      <path id="DejaVuSans-Bold-77" d="M 225 3500 
L 1313 3500 
L 1900 1088 
L 2491 3500 
L 3425 3500 
L 4013 1113 
L 4603 3500 
L 5691 3500 
L 4769 0 
L 3547 0 
L 2956 2406 
L 2369 0 
L 1147 0 
L 225 3500 
z
" transform="scale(0.015625)"/>
      <path id="DejaVuSans-Bold-68" d="M 4056 2131 
L 4056 0 
L 2931 0 
L 2931 347 
L 2931 1625 
Q 2931 2084 2911 2256 
Q 2891 2428 2841 2509 
Q 2775 2619 2662 2680 
Q 2550 2741 2406 2741 
Q 2056 2741 1856 2470 
Q 1656 2200 1656 1722 
L 1656 0 
L 538 0 
L 538 4863 
L 1656 4863 
L 1656 2988 
Q 1909 3294 2193 3439 
Q 2478 3584 2822 3584 
Q 3428 3584 3742 3212 
Q 4056 2841 4056 2131 
z
" transform="scale(0.015625)"/>
      <path id="DejaVuSans-Bold-79" d="M 78 3500 
L 1197 3500 
L 2138 1125 
L 2938 3500 
L 4056 3500 
L 2584 -331 
Q 2363 -916 2067 -1148 
Q 1772 -1381 1288 -1381 
L 641 -1381 
L 641 -647 
L 991 -647 
Q 1275 -647 1404 -556 
Q 1534 -466 1606 -231 
L 1638 -134 
L 78 3500 
z
" transform="scale(0.015625)"/>
      <path id="DejaVuSans-Bold-65" d="M 4031 1759 
L 4031 1441 
L 1416 1441 
Q 1456 1047 1700 850 
Q 1944 653 2381 653 
Q 2734 653 3104 758 
Q 3475 863 3866 1075 
L 3866 213 
Q 3469 63 3072 -14 
Q 2675 -91 2278 -91 
Q 1328 -91 801 392 
Q 275 875 275 1747 
Q 275 2603 792 3093 
Q 1309 3584 2216 3584 
Q 3041 3584 3536 3087 
Q 4031 2591 4031 1759 
z
M 2881 2131 
Q 2881 2450 2695 2645 
Q 2509 2841 2209 2841 
Q 1884 2841 1681 2658 
Q 1478 2475 1428 2131 
L 2881 2131 
z
" transform="scale(0.015625)"/>
      <path id="DejaVuSans-Bold-63" d="M 3366 3391 
L 3366 2478 
Q 3138 2634 2908 2709 
Q 2678 2784 2431 2784 
Q 1963 2784 1702 2511 
Q 1441 2238 1441 1747 
Q 1441 1256 1702 982 
Q 1963 709 2431 709 
Q 2694 709 2930 787 
Q 3166 866 3366 1019 
L 3366 103 
Q 3103 6 2833 -42 
Q 2563 -91 2291 -91 
Q 1344 -91 809 395 
Q 275 881 275 1747 
Q 275 2613 809 3098 
Q 1344 3584 2291 3584 
Q 2566 3584 2833 3536 
Q 3100 3488 3366 3391 
z
" transform="scale(0.015625)"/>
      <path id="DejaVuSans-Bold-61" d="M 2106 1575 
Q 1756 1575 1579 1456 
Q 1403 1338 1403 1106 
Q 1403 894 1545 773 
Q 1688 653 1941 653 
Q 2256 653 2472 879 
Q 2688 1106 2688 1447 
L 2688 1575 
L 2106 1575 
z
M 3816 1997 
L 3816 0 
L 2688 0 
L 2688 519 
Q 2463 200 2181 54 
Q 1900 -91 1497 -91 
Q 953 -91 614 226 
Q 275 544 275 1050 
Q 275 1666 698 1953 
Q 1122 2241 2028 2241 
L 2688 2241 
L 2688 2328 
Q 2688 2594 2478 2717 
Q 2269 2841 1825 2841 
Q 1466 2841 1156 2769 
Q 847 2697 581 2553 
L 581 3406 
Q 941 3494 1303 3539 
Q 1666 3584 2028 3584 
Q 2975 3584 3395 3211 
Q 3816 2838 3816 1997 
z
" transform="scale(0.015625)"/>
      <path id="DejaVuSans-Bold-6e" d="M 4056 2131 
L 4056 0 
L 2931 0 
L 2931 347 
L 2931 1631 
Q 2931 2084 2911 2256 
Q 2891 2428 2841 2509 
Q 2775 2619 2662 2680 
Q 2550 2741 2406 2741 
Q 2056 2741 1856 2470 
Q 1656 2200 1656 1722 
L 1656 0 
L 538 0 
L 538 3500 
L 1656 3500 
L 1656 2988 
Q 1909 3294 2193 3439 
Q 2478 3584 2822 3584 
Q 3428 3584 3742 3212 
Q 4056 2841 4056 2131 
z
" transform="scale(0.015625)"/>
      <path id="DejaVuSans-Bold-76" d="M 97 3500 
L 1216 3500 
L 2088 1081 
L 2956 3500 
L 4078 3500 
L 2700 0 
L 1472 0 
L 97 3500 
z
" transform="scale(0.015625)"/>
      <path id="DejaVuSans-Bold-6c" d="M 538 4863 
L 1656 4863 
L 1656 0 
L 538 0 
L 538 4863 
z
" transform="scale(0.015625)"/>
      <path id="DejaVuSans-Bold-69" d="M 538 3500 
L 1656 3500 
L 1656 0 
L 538 0 
L 538 3500 
z
M 538 4863 
L 1656 4863 
L 1656 3950 
L 538 3950 
L 538 4863 
z
" transform="scale(0.015625)"/>
      <path id="DejaVuSans-Bold-64" d="M 2919 2988 
L 2919 4863 
L 4044 4863 
L 4044 0 
L 2919 0 
L 2919 506 
Q 2688 197 2409 53 
Q 2131 -91 1766 -91 
Q 1119 -91 703 423 
Q 288 938 288 1747 
Q 288 2556 703 3070 
Q 1119 3584 1766 3584 
Q 2128 3584 2408 3439 
Q 2688 3294 2919 2988 
z
M 2181 722 
Q 2541 722 2730 984 
Q 2919 1247 2919 1747 
Q 2919 2247 2730 2509 
Q 2541 2772 2181 2772 
Q 1825 2772 1636 2509 
Q 1447 2247 1447 1747 
Q 1447 1247 1636 984 
Q 1825 722 2181 722 
z
" transform="scale(0.015625)"/>
      <path id="DejaVuSans-Bold-74" d="M 1759 4494 
L 1759 3500 
L 2913 3500 
L 2913 2700 
L 1759 2700 
L 1759 1216 
Q 1759 972 1856 886 
Q 1953 800 2241 800 
L 2816 800 
L 2816 0 
L 1856 0 
Q 1194 0 917 276 
Q 641 553 641 1216 
L 641 2700 
L 84 2700 
L 84 3500 
L 641 3500 
L 641 4494 
L 1759 4494 
z
" transform="scale(0.015625)"/>
     </defs>
     <use xlink:href="#DejaVuSans-Bold-2190"/>
     <use xlink:href="#DejaVuSans-Bold-20" transform="translate(83.789062 0)"/>
     <use xlink:href="#DejaVuSans-Bold-77" transform="translate(118.603516 0)"/>
     <use xlink:href="#DejaVuSans-Bold-68" transform="translate(210.986328 0)"/>
     <use xlink:href="#DejaVuSans-Bold-79" transform="translate(282.177734 0)"/>
     <use xlink:href="#DejaVuSans-Bold-20" transform="translate(347.363281 0)"/>
     <use xlink:href="#DejaVuSans-Bold-77" transform="translate(382.177734 0)"/>
     <use xlink:href="#DejaVuSans-Bold-65" transform="translate(474.560547 0)"/>
     <use xlink:href="#DejaVuSans-Bold-20" transform="translate(542.382812 0)"/>
     <use xlink:href="#DejaVuSans-Bold-63" transform="translate(577.197266 0)"/>
     <use xlink:href="#DejaVuSans-Bold-61" transform="translate(636.474609 0)"/>
     <use xlink:href="#DejaVuSans-Bold-6e" transform="translate(703.955078 0)"/>
     <use xlink:href="#DejaVuSans-Bold-20" transform="translate(775.146484 0)"/>
     <use xlink:href="#DejaVuSans-Bold-76" transform="translate(809.960938 0)"/>
     <use xlink:href="#DejaVuSans-Bold-61" transform="translate(875.146484 0)"/>
     <use xlink:href="#DejaVuSans-Bold-6c" transform="translate(942.626953 0)"/>
     <use xlink:href="#DejaVuSans-Bold-69" transform="translate(976.904297 0)"/>
     <use xlink:href="#DejaVuSans-Bold-64" transform="translate(1011.181641 0)"/>
     <use xlink:href="#DejaVuSans-Bold-61" transform="translate(1082.763672 0)"/>
     <use xlink:href="#DejaVuSans-Bold-74" transform="translate(1150.244141 0)"/>
     <use xlink:href="#DejaVuSans-Bold-65" transform="translate(1198.046875 0)"/>
    </g>
   </g>
   <g id="text_2">
    <!-- Sample sizes -->
    <g style="fill: #ffffff" transform="translate(78.27625 148.436) scale(0.16 -0.16)">
     <defs>
      <path id="DejaVuSans-Bold-53" d="M 3834 4519 
L 3834 3531 
Q 3450 3703 3084 3790 
Q 2719 3878 2394 3878 
Q 1963 3878 1756 3759 
Q 1550 3641 1550 3391 
Q 1550 3203 1689 3098 
Q 1828 2994 2194 2919 
L 2706 2816 
Q 3484 2659 3812 2340 
Q 4141 2022 4141 1434 
Q 4141 663 3683 286 
Q 3225 -91 2284 -91 
Q 1841 -91 1394 -6 
Q 947 78 500 244 
L 500 1259 
Q 947 1022 1364 901 
Q 1781 781 2169 781 
Q 2563 781 2772 912 
Q 2981 1044 2981 1288 
Q 2981 1506 2839 1625 
Q 2697 1744 2272 1838 
L 1806 1941 
Q 1106 2091 782 2419 
Q 459 2747 459 3303 
Q 459 4000 909 4375 
Q 1359 4750 2203 4750 
Q 2588 4750 2994 4692 
Q 3400 4634 3834 4519 
z
" transform="scale(0.015625)"/>
      <path id="DejaVuSans-Bold-6d" d="M 3781 2919 
Q 3994 3244 4286 3414 
Q 4578 3584 4928 3584 
Q 5531 3584 5847 3212 
Q 6163 2841 6163 2131 
L 6163 0 
L 5038 0 
L 5038 1825 
Q 5041 1866 5042 1909 
Q 5044 1953 5044 2034 
Q 5044 2406 4934 2573 
Q 4825 2741 4581 2741 
Q 4263 2741 4089 2478 
Q 3916 2216 3909 1719 
L 3909 0 
L 2784 0 
L 2784 1825 
Q 2784 2406 2684 2573 
Q 2584 2741 2328 2741 
Q 2006 2741 1831 2477 
Q 1656 2213 1656 1722 
L 1656 0 
L 531 0 
L 531 3500 
L 1656 3500 
L 1656 2988 
Q 1863 3284 2130 3434 
Q 2397 3584 2719 3584 
Q 3081 3584 3359 3409 
Q 3638 3234 3781 2919 
z
" transform="scale(0.015625)"/>
      <path id="DejaVuSans-Bold-70" d="M 1656 506 
L 1656 -1331 
L 538 -1331 
L 538 3500 
L 1656 3500 
L 1656 2988 
Q 1888 3294 2169 3439 
Q 2450 3584 2816 3584 
Q 3463 3584 3878 3070 
Q 4294 2556 4294 1747 
Q 4294 938 3878 423 
Q 3463 -91 2816 -91 
Q 2450 -91 2169 54 
Q 1888 200 1656 506 
z
M 2400 2772 
Q 2041 2772 1848 2508 
Q 1656 2244 1656 1747 
Q 1656 1250 1848 986 
Q 2041 722 2400 722 
Q 2759 722 2948 984 
Q 3138 1247 3138 1747 
Q 3138 2247 2948 2509 
Q 2759 2772 2400 2772 
z
" transform="scale(0.015625)"/>
      <path id="DejaVuSans-Bold-73" d="M 3272 3391 
L 3272 2541 
Q 2913 2691 2578 2766 
Q 2244 2841 1947 2841 
Q 1628 2841 1473 2761 
Q 1319 2681 1319 2516 
Q 1319 2381 1436 2309 
Q 1553 2238 1856 2203 
L 2053 2175 
Q 2913 2066 3209 1816 
Q 3506 1566 3506 1031 
Q 3506 472 3093 190 
Q 2681 -91 1863 -91 
Q 1516 -91 1145 -36 
Q 775 19 384 128 
L 384 978 
Q 719 816 1070 734 
Q 1422 653 1784 653 
Q 2113 653 2278 743 
Q 2444 834 2444 1013 
Q 2444 1163 2330 1236 
Q 2216 1309 1875 1350 
L 1678 1375 
Q 931 1469 631 1722 
Q 331 1975 331 2491 
Q 331 3047 712 3315 
Q 1094 3584 1881 3584 
Q 2191 3584 2531 3537 
Q 2872 3491 3272 3391 
z
" transform="scale(0.015625)"/>
      <path id="DejaVuSans-Bold-7a" d="M 366 3500 
L 3419 3500 
L 3419 2719 
L 1575 800 
L 3419 800 
L 3419 0 
L 288 0 
L 288 781 
L 2131 2700 
L 366 2700 
L 366 3500 
z
" transform="scale(0.015625)"/>
     </defs>
     <use xlink:href="#DejaVuSans-Bold-53"/>
     <use xlink:href="#DejaVuSans-Bold-61" transform="translate(72.021484 0)"/>
     <use xlink:href="#DejaVuSans-Bold-6d" transform="translate(139.501953 0)"/>
     <use xlink:href="#DejaVuSans-Bold-70" transform="translate(243.701172 0)"/>
     <use xlink:href="#DejaVuSans-Bold-6c" transform="translate(315.283203 0)"/>
     <use xlink:href="#DejaVuSans-Bold-65" transform="translate(349.560547 0)"/>
     <use xlink:href="#DejaVuSans-Bold-20" transform="translate(417.382812 0)"/>
     <use xlink:href="#DejaVuSans-Bold-73" transform="translate(452.197266 0)"/>
     <use xlink:href="#DejaVuSans-Bold-69" transform="translate(511.71875 0)"/>
     <use xlink:href="#DejaVuSans-Bold-7a" transform="translate(545.996094 0)"/>
     <use xlink:href="#DejaVuSans-Bold-65" transform="translate(604.199219 0)"/>
     <use xlink:href="#DejaVuSans-Bold-73" transform="translate(672.021484 0)"/>
    </g>
    <!-- + place at -->
    <g style="fill: #ffffff" transform="translate(91.2675 166.3525) scale(0.16 -0.16)">
     <defs>
      <path id="DejaVuSans-Bold-2b" d="M 3053 4013 
L 3053 2375 
L 4684 2375 
L 4684 1638 
L 3053 1638 
L 3053 0 
L 2309 0 
L 2309 1638 
L 678 1638 
L 678 2375 
L 2309 2375 
L 2309 4013 
L 3053 4013 
z
" transform="scale(0.015625)"/>
     </defs>
     <use xlink:href="#DejaVuSans-Bold-2b"/>
     <use xlink:href="#DejaVuSans-Bold-20" transform="translate(83.789062 0)"/>
     <use xlink:href="#DejaVuSans-Bold-70" transform="translate(118.603516 0)"/>
     <use xlink:href="#DejaVuSans-Bold-6c" transform="translate(190.185547 0)"/>
     <use xlink:href="#DejaVuSans-Bold-61" transform="translate(224.462891 0)"/>
     <use xlink:href="#DejaVuSans-Bold-63" transform="translate(291.943359 0)"/>
     <use xlink:href="#DejaVuSans-Bold-65" transform="translate(351.220703 0)"/>
     <use xlink:href="#DejaVuSans-Bold-20" transform="translate(419.042969 0)"/>
     <use xlink:href="#DejaVuSans-Bold-61" transform="translate(453.857422 0)"/>
     <use xlink:href="#DejaVuSans-Bold-74" transform="translate(521.337891 0)"/>
    </g>
    <!-- calibrated density -->
    <g style="fill: #ffffff" transform="translate(54.9525 184.269) scale(0.16 -0.16)">
     <defs>
      <path id="DejaVuSans-Bold-62" d="M 2400 722 
Q 2759 722 2948 984 
Q 3138 1247 3138 1747 
Q 3138 2247 2948 2509 
Q 2759 2772 2400 2772 
Q 2041 2772 1848 2508 
Q 1656 2244 1656 1747 
Q 1656 1250 1848 986 
Q 2041 722 2400 722 
z
M 1656 2988 
Q 1888 3294 2169 3439 
Q 2450 3584 2816 3584 
Q 3463 3584 3878 3070 
Q 4294 2556 4294 1747 
Q 4294 938 3878 423 
Q 3463 -91 2816 -91 
Q 2450 -91 2169 54 
Q 1888 200 1656 506 
L 1656 0 
L 538 0 
L 538 4863 
L 1656 4863 
L 1656 2988 
z
" transform="scale(0.015625)"/>
      <path id="DejaVuSans-Bold-72" d="M 3138 2547 
Q 2991 2616 2845 2648 
Q 2700 2681 2553 2681 
Q 2122 2681 1889 2404 
Q 1656 2128 1656 1613 
L 1656 0 
L 538 0 
L 538 3500 
L 1656 3500 
L 1656 2925 
Q 1872 3269 2151 3426 
Q 2431 3584 2822 3584 
Q 2878 3584 2943 3579 
Q 3009 3575 3134 3559 
L 3138 2547 
z
" transform="scale(0.015625)"/>
     </defs>
     <use xlink:href="#DejaVuSans-Bold-63"/>
     <use xlink:href="#DejaVuSans-Bold-61" transform="translate(59.277344 0)"/>
     <use xlink:href="#DejaVuSans-Bold-6c" transform="translate(126.757812 0)"/>
     <use xlink:href="#DejaVuSans-Bold-69" transform="translate(161.035156 0)"/>
     <use xlink:href="#DejaVuSans-Bold-62" transform="translate(195.3125 0)"/>
     <use xlink:href="#DejaVuSans-Bold-72" transform="translate(266.894531 0)"/>
     <use xlink:href="#DejaVuSans-Bold-61" transform="translate(316.210938 0)"/>
     <use xlink:href="#DejaVuSans-Bold-74" transform="translate(383.691406 0)"/>
     <use xlink:href="#DejaVuSans-Bold-65" transform="translate(431.494141 0)"/>
     <use xlink:href="#DejaVuSans-Bold-64" transform="translate(499.316406 0)"/>
     <use xlink:href="#DejaVuSans-Bold-20" transform="translate(570.898438 0)"/>
     <use xlink:href="#DejaVuSans-Bold-64" transform="translate(605.712891 0)"/>
     <use xlink:href="#DejaVuSans-Bold-65" transform="translate(677.294922 0)"/>
     <use xlink:href="#DejaVuSans-Bold-6e" transform="translate(745.117188 0)"/>
     <use xlink:href="#DejaVuSans-Bold-73" transform="translate(816.308594 0)"/>
     <use xlink:href="#DejaVuSans-Bold-69" transform="translate(875.830078 0)"/>
     <use xlink:href="#DejaVuSans-Bold-74" transform="translate(910.107422 0)"/>
     <use xlink:href="#DejaVuSans-Bold-79" transform="translate(957.910156 0)"/>
    </g>
   </g>
   <g id="text_3">
    <!-- Assign -->
    <g style="fill: #ffffff" transform="translate(327.827812 156.818531) scale(0.18 -0.18)">
     <defs>
      <path id="DejaVuSans-Bold-41" d="M 3419 850 
L 1538 850 
L 1241 0 
L 31 0 
L 1759 4666 
L 3194 4666 
L 4922 0 
L 3713 0 
L 3419 850 
z
M 1838 1716 
L 3116 1716 
L 2478 3572 
L 1838 1716 
z
" transform="scale(0.015625)"/>
      <path id="DejaVuSans-Bold-67" d="M 2919 594 
Q 2688 288 2409 144 
Q 2131 0 1766 0 
Q 1125 0 706 504 
Q 288 1009 288 1791 
Q 288 2575 706 3076 
Q 1125 3578 1766 3578 
Q 2131 3578 2409 3434 
Q 2688 3291 2919 2981 
L 2919 3500 
L 4044 3500 
L 4044 353 
Q 4044 -491 3511 -936 
Q 2978 -1381 1966 -1381 
Q 1638 -1381 1331 -1331 
Q 1025 -1281 716 -1178 
L 716 -306 
Q 1009 -475 1290 -558 
Q 1572 -641 1856 -641 
Q 2406 -641 2662 -400 
Q 2919 -159 2919 353 
L 2919 594 
z
M 2181 2772 
Q 1834 2772 1640 2515 
Q 1447 2259 1447 1791 
Q 1447 1309 1634 1061 
Q 1822 813 2181 813 
Q 2531 813 2725 1069 
Q 2919 1325 2919 1791 
Q 2919 2259 2725 2515 
Q 2531 2772 2181 2772 
z
" transform="scale(0.015625)"/>
     </defs>
     <use xlink:href="#DejaVuSans-Bold-41"/>
     <use xlink:href="#DejaVuSans-Bold-73" transform="translate(77.392578 0)"/>
     <use xlink:href="#DejaVuSans-Bold-73" transform="translate(136.914062 0)"/>
     <use xlink:href="#DejaVuSans-Bold-69" transform="translate(196.435547 0)"/>
     <use xlink:href="#DejaVuSans-Bold-67" transform="translate(230.712891 0)"/>
     <use xlink:href="#DejaVuSans-Bold-6e" transform="translate(302.294922 0)"/>
    </g>
    <!-- intensities -->
    <g style="fill: #ffffff" transform="translate(307.845 177.115219) scale(0.18 -0.18)">
     <use xlink:href="#DejaVuSans-Bold-69"/>
     <use xlink:href="#DejaVuSans-Bold-6e" transform="translate(34.277344 0)"/>
     <use xlink:href="#DejaVuSans-Bold-74" transform="translate(105.46875 0)"/>
     <use xlink:href="#DejaVuSans-Bold-65" transform="translate(153.271484 0)"/>
     <use xlink:href="#DejaVuSans-Bold-6e" transform="translate(221.09375 0)"/>
     <use xlink:href="#DejaVuSans-Bold-73" transform="translate(292.285156 0)"/>
     <use xlink:href="#DejaVuSans-Bold-69" transform="translate(351.806641 0)"/>
     <use xlink:href="#DejaVuSans-Bold-74" transform="translate(386.083984 0)"/>
     <use xlink:href="#DejaVuSans-Bold-69" transform="translate(433.886719 0)"/>
     <use xlink:href="#DejaVuSans-Bold-65" transform="translate(468.164062 0)"/>
     <use xlink:href="#DejaVuSans-Bold-73" transform="translate(535.986328 0)"/>
    </g>
   </g>
   <g id="text_4">
    <!-- Optical blur -->
    <g style="fill: #ffffff" transform="translate(519.104297 157.172797) scale(0.17 -0.17)">
     <defs>
      <path id="DejaVuSans-Bold-4f" d="M 2719 3878 
Q 2169 3878 1866 3472 
Q 1563 3066 1563 2328 
Q 1563 1594 1866 1187 
Q 2169 781 2719 781 
Q 3272 781 3575 1187 
Q 3878 1594 3878 2328 
Q 3878 3066 3575 3472 
Q 3272 3878 2719 3878 
z
M 2719 4750 
Q 3844 4750 4481 4106 
Q 5119 3463 5119 2328 
Q 5119 1197 4481 553 
Q 3844 -91 2719 -91 
Q 1597 -91 958 553 
Q 319 1197 319 2328 
Q 319 3463 958 4106 
Q 1597 4750 2719 4750 
z
" transform="scale(0.015625)"/>
      <path id="DejaVuSans-Bold-75" d="M 500 1363 
L 500 3500 
L 1625 3500 
L 1625 3150 
Q 1625 2866 1622 2436 
Q 1619 2006 1619 1863 
Q 1619 1441 1641 1255 
Q 1663 1069 1716 984 
Q 1784 875 1895 815 
Q 2006 756 2150 756 
Q 2500 756 2700 1025 
Q 2900 1294 2900 1772 
L 2900 3500 
L 4019 3500 
L 4019 0 
L 2900 0 
L 2900 506 
Q 2647 200 2364 54 
Q 2081 -91 1741 -91 
Q 1134 -91 817 281 
Q 500 653 500 1363 
z
" transform="scale(0.015625)"/>
     </defs>
     <use xlink:href="#DejaVuSans-Bold-4f"/>
     <use xlink:href="#DejaVuSans-Bold-70" transform="translate(85.009766 0)"/>
     <use xlink:href="#DejaVuSans-Bold-74" transform="translate(156.591797 0)"/>
     <use xlink:href="#DejaVuSans-Bold-69" transform="translate(204.394531 0)"/>
     <use xlink:href="#DejaVuSans-Bold-63" transform="translate(238.671875 0)"/>
     <use xlink:href="#DejaVuSans-Bold-61" transform="translate(297.949219 0)"/>
     <use xlink:href="#DejaVuSans-Bold-6c" transform="translate(365.429688 0)"/>
     <use xlink:href="#DejaVuSans-Bold-20" transform="translate(399.707031 0)"/>
     <use xlink:href="#DejaVuSans-Bold-62" transform="translate(434.521484 0)"/>
     <use xlink:href="#DejaVuSans-Bold-6c" transform="translate(506.103516 0)"/>
     <use xlink:href="#DejaVuSans-Bold-75" transform="translate(540.380859 0)"/>
     <use xlink:href="#DejaVuSans-Bold-72" transform="translate(611.572266 0)"/>
    </g>
    <!-- (PSF) -->
    <g style="fill: #ffffff" transform="translate(549.352344 176.209078) scale(0.17 -0.17)">
     <defs>
      <path id="DejaVuSans-Bold-28" d="M 2413 -844 
L 1484 -844 
Q 1006 -72 778 623 
Q 550 1319 550 2003 
Q 550 2688 779 3389 
Q 1009 4091 1484 4856 
L 2413 4856 
Q 2013 4116 1813 3408 
Q 1613 2700 1613 2009 
Q 1613 1319 1811 609 
Q 2009 -100 2413 -844 
z
" transform="scale(0.015625)"/>
      <path id="DejaVuSans-Bold-50" d="M 588 4666 
L 2584 4666 
Q 3475 4666 3951 4270 
Q 4428 3875 4428 3144 
Q 4428 2409 3951 2014 
Q 3475 1619 2584 1619 
L 1791 1619 
L 1791 0 
L 588 0 
L 588 4666 
z
M 1791 3794 
L 1791 2491 
L 2456 2491 
Q 2806 2491 2997 2661 
Q 3188 2831 3188 3144 
Q 3188 3456 2997 3625 
Q 2806 3794 2456 3794 
L 1791 3794 
z
" transform="scale(0.015625)"/>
      <path id="DejaVuSans-Bold-46" d="M 588 4666 
L 3834 4666 
L 3834 3756 
L 1791 3756 
L 1791 2888 
L 3713 2888 
L 3713 1978 
L 1791 1978 
L 1791 0 
L 588 0 
L 588 4666 
z
" transform="scale(0.015625)"/>
      <path id="DejaVuSans-Bold-29" d="M 513 -844 
Q 913 -100 1113 609 
Q 1313 1319 1313 2009 
Q 1313 2700 1113 3408 
Q 913 4116 513 4856 
L 1441 4856 
Q 1916 4091 2145 3389 
Q 2375 2688 2375 2003 
Q 2375 1319 2147 623 
Q 1919 -72 1441 -844 
L 513 -844 
z
" transform="scale(0.015625)"/>
     </defs>
     <use xlink:href="#DejaVuSans-Bold-28"/>
     <use xlink:href="#DejaVuSans-Bold-50" transform="translate(45.703125 0)"/>
     <use xlink:href="#DejaVuSans-Bold-53" transform="translate(118.994141 0)"/>
     <use xlink:href="#DejaVuSans-Bold-46" transform="translate(191.015625 0)"/>
     <use xlink:href="#DejaVuSans-Bold-29" transform="translate(259.326172 0)"/>
    </g>
   </g>
   <g id="text_5">
    <!-- Detector -->
    <g style="fill: #ffffff" transform="translate(759.279375 156.818531) scale(0.18 -0.18)">
     <defs>
      <path id="DejaVuSans-Bold-44" d="M 1791 3756 
L 1791 909 
L 2222 909 
Q 2959 909 3348 1275 
Q 3738 1641 3738 2338 
Q 3738 3031 3350 3393 
Q 2963 3756 2222 3756 
L 1791 3756 
z
M 588 4666 
L 1856 4666 
Q 2919 4666 3439 4514 
Q 3959 4363 4331 4000 
Q 4659 3684 4818 3271 
Q 4978 2859 4978 2338 
Q 4978 1809 4818 1395 
Q 4659 981 4331 666 
Q 3956 303 3431 151 
Q 2906 0 1856 0 
L 588 0 
L 588 4666 
z
" transform="scale(0.015625)"/>
      <path id="DejaVuSans-Bold-6f" d="M 2203 2784 
Q 1831 2784 1636 2517 
Q 1441 2250 1441 1747 
Q 1441 1244 1636 976 
Q 1831 709 2203 709 
Q 2569 709 2762 976 
Q 2956 1244 2956 1747 
Q 2956 2250 2762 2517 
Q 2569 2784 2203 2784 
z
M 2203 3584 
Q 3106 3584 3614 3096 
Q 4122 2609 4122 1747 
Q 4122 884 3614 396 
Q 3106 -91 2203 -91 
Q 1297 -91 786 396 
Q 275 884 275 1747 
Q 275 2609 786 3096 
Q 1297 3584 2203 3584 
z
" transform="scale(0.015625)"/>
     </defs>
     <use xlink:href="#DejaVuSans-Bold-44"/>
     <use xlink:href="#DejaVuSans-Bold-65" transform="translate(83.007812 0)"/>
     <use xlink:href="#DejaVuSans-Bold-74" transform="translate(150.830078 0)"/>
     <use xlink:href="#DejaVuSans-Bold-65" transform="translate(198.632812 0)"/>
     <use xlink:href="#DejaVuSans-Bold-63" transform="translate(266.455078 0)"/>
     <use xlink:href="#DejaVuSans-Bold-74" transform="translate(325.732422 0)"/>
     <use xlink:href="#DejaVuSans-Bold-6f" transform="translate(373.535156 0)"/>
     <use xlink:href="#DejaVuSans-Bold-72" transform="translate(442.236328 0)"/>
    </g>
    <!-- physics -->
    <g style="fill: #ffffff" transform="translate(765.670781 176.974594) scale(0.18 -0.18)">
     <use xlink:href="#DejaVuSans-Bold-70"/>
     <use xlink:href="#DejaVuSans-Bold-68" transform="translate(71.582031 0)"/>
     <use xlink:href="#DejaVuSans-Bold-79" transform="translate(142.773438 0)"/>
     <use xlink:href="#DejaVuSans-Bold-73" transform="translate(207.958984 0)"/>
     <use xlink:href="#DejaVuSans-Bold-69" transform="translate(267.480469 0)"/>
     <use xlink:href="#DejaVuSans-Bold-63" transform="translate(301.757812 0)"/>
     <use xlink:href="#DejaVuSans-Bold-73" transform="translate(361.035156 0)"/>
    </g>
   </g>
   <g id="text_6">
    <!-- Realistic image -->
    <g style="fill: #ffffff" transform="translate(975.785625 146.670187) scale(0.18 -0.18)">
     <defs>
      <path id="DejaVuSans-Bold-52" d="M 2297 2597 
Q 2675 2597 2839 2737 
Q 3003 2878 3003 3200 
Q 3003 3519 2839 3656 
Q 2675 3794 2297 3794 
L 1791 3794 
L 1791 2597 
L 2297 2597 
z
M 1791 1766 
L 1791 0 
L 588 0 
L 588 4666 
L 2425 4666 
Q 3347 4666 3776 4356 
Q 4206 4047 4206 3378 
Q 4206 2916 3982 2619 
Q 3759 2322 3309 2181 
Q 3556 2125 3751 1926 
Q 3947 1728 4147 1325 
L 4800 0 
L 3519 0 
L 2950 1159 
Q 2778 1509 2601 1637 
Q 2425 1766 2131 1766 
L 1791 1766 
z
" transform="scale(0.015625)"/>
     </defs>
     <use xlink:href="#DejaVuSans-Bold-52"/>
     <use xlink:href="#DejaVuSans-Bold-65" transform="translate(77.001953 0)"/>
     <use xlink:href="#DejaVuSans-Bold-61" transform="translate(144.824219 0)"/>
     <use xlink:href="#DejaVuSans-Bold-6c" transform="translate(212.304688 0)"/>
     <use xlink:href="#DejaVuSans-Bold-69" transform="translate(246.582031 0)"/>
     <use xlink:href="#DejaVuSans-Bold-73" transform="translate(280.859375 0)"/>
     <use xlink:href="#DejaVuSans-Bold-74" transform="translate(340.380859 0)"/>
     <use xlink:href="#DejaVuSans-Bold-69" transform="translate(388.183594 0)"/>
     <use xlink:href="#DejaVuSans-Bold-63" transform="translate(422.460938 0)"/>
     <use xlink:href="#DejaVuSans-Bold-20" transform="translate(481.738281 0)"/>
     <use xlink:href="#DejaVuSans-Bold-69" transform="translate(516.552734 0)"/>
     <use xlink:href="#DejaVuSans-Bold-6d" transform="translate(550.830078 0)"/>
     <use xlink:href="#DejaVuSans-Bold-61" transform="translate(655.029297 0)"/>
     <use xlink:href="#DejaVuSans-Bold-67" transform="translate(722.509766 0)"/>
     <use xlink:href="#DejaVuSans-Bold-65" transform="translate(794.091797 0)"/>
    </g>
    <!-- + known -->
    <g style="fill: #ffffff" transform="translate(1009.387969 166.966875) scale(0.18 -0.18)">
     <defs>
      <path id="DejaVuSans-Bold-6b" d="M 538 4863 
L 1656 4863 
L 1656 2216 
L 2944 3500 
L 4244 3500 
L 2534 1894 
L 4378 0 
L 3022 0 
L 1656 1459 
L 1656 0 
L 538 0 
L 538 4863 
z
" transform="scale(0.015625)"/>
     </defs>
     <use xlink:href="#DejaVuSans-Bold-2b"/>
     <use xlink:href="#DejaVuSans-Bold-20" transform="translate(83.789062 0)"/>
     <use xlink:href="#DejaVuSans-Bold-6b" transform="translate(118.603516 0)"/>
     <use xlink:href="#DejaVuSans-Bold-6e" transform="translate(185.107422 0)"/>
     <use xlink:href="#DejaVuSans-Bold-6f" transform="translate(256.298828 0)"/>
     <use xlink:href="#DejaVuSans-Bold-77" transform="translate(325 0)"/>
     <use xlink:href="#DejaVuSans-Bold-6e" transform="translate(417.382812 0)"/>
    </g>
    <!-- ground truth -->
    <g style="fill: #ffffff" transform="translate(988.052344 187.122937) scale(0.18 -0.18)">
     <use xlink:href="#DejaVuSans-Bold-67"/>
     <use xlink:href="#DejaVuSans-Bold-72" transform="translate(71.582031 0)"/>
     <use xlink:href="#DejaVuSans-Bold-6f" transform="translate(120.898438 0)"/>
     <use xlink:href="#DejaVuSans-Bold-75" transform="translate(189.599609 0)"/>
     <use xlink:href="#DejaVuSans-Bold-6e" transform="translate(260.791016 0)"/>
     <use xlink:href="#DejaVuSans-Bold-64" transform="translate(331.982422 0)"/>
     <use xlink:href="#DejaVuSans-Bold-20" transform="translate(403.564453 0)"/>
     <use xlink:href="#DejaVuSans-Bold-74" transform="translate(438.378906 0)"/>
     <use xlink:href="#DejaVuSans-Bold-72" transform="translate(486.181641 0)"/>
     <use xlink:href="#DejaVuSans-Bold-75" transform="translate(535.498047 0)"/>
     <use xlink:href="#DejaVuSans-Bold-74" transform="translate(606.689453 0)"/>
     <use xlink:href="#DejaVuSans-Bold-68" transform="translate(654.492188 0)"/>
    </g>
   </g>
  </g>
 </g>
 <defs>
  <clipPath id="p24653cc3d7">
   <rect x="7.2" y="7.2" width="1188" height="374.4"/>
  </clipPath>
 </defs>
</svg>
