<?xml version="1.0" encoding="utf-8" standalone="no"?>
<!DOCTYPE svg PUBLIC "-//W3C//DTD SVG 1.1//EN"
  "http://www.w3.org/Graphics/SVG/1.1/DTD/svg11.dtd">
<svg xmlns:xlink="http://www.w3.org/1999/xlink" width="1130.4pt" height="475.2pt" viewBox="0 0 1130.4 475.2" xmlns="http://www.w3.org/2000/svg" version="1.1">
 <metadata>
  <rdf:RDF xmlns:dc="http://purl.org/dc/elements/1.1/" xmlns:cc="http://creativecommons.org/ns#" xmlns:rdf="http://www.w3.org/1999/02/22-rdf-syntax-ns#">
   <cc:Work>
    <dc:type rdf:resource="http://purl.org/dc/dcmitype/StillImage"/>
    <dc:date>2026-06-12T12:58:51.356622</dc:date>
    <dc:format>image/svg+xml</dc:format>
    <dc:creator>
     <cc:Agent>
      <dc:title>Matplotlib v3.10.9, https://matplotlib.org/</dc:title>
     </cc:Agent>
    </dc:creator>
   </cc:Work>
  </rdf:RDF>
 </metadata>
 <defs>
  <style type="text/css">*{stroke-linejoin: round; stroke-linecap: butt}</style>
 </defs>
 <g id="figure_1">
  <g id="patch_1">
   <path d="M 0 475.2 
L 1130.4 475.2 
L 1130.4 0 
L 0 0 
L 0 475.2 
z
" style="fill: none"/>
  </g>
  <g id="axes_1">
   <g id="patch_2">
    <path d="M 40.32 210.24 
L 211.68 210.24 
Q 217.44 210.24 217.44 204.48 
L 217.44 90.72 
Q 217.44 84.96 211.68 84.96 
L 40.32 84.96 
Q 34.56 84.96 34.56 90.72 
L 34.56 204.48 
Q 34.56 210.24 40.32 210.24 
z
" clip-path="url(#p782ffdccc7)" style="fill: #0072b2; stroke: #0072b2; stroke-width: 2; stroke-linejoin: miter"/>
   </g>
   <g id="patch_3">
    <path d="M 252.72 210.24 
L 424.08 210.24 
Q 429.84 210.24 429.84 204.48 
L 429.84 90.72 
Q 429.84 84.96 424.08 84.96 
L 252.72 84.96 
Q 246.96 84.96 246.96 90.72 
L 246.96 204.48 
Q 246.96 210.24 252.72 210.24 
z
" clip-path="url(#p782ffdccc7)" style="fill: #56b4e9; stroke: #56b4e9; stroke-width: 2; stroke-linejoin: miter"/>
   </g>
   <g id="patch_4">
    <path d="M 465.12 210.24 
L 636.48 210.24 
Q 642.24 210.24 642.24 204.48 
L 642.24 90.72 
Q 642.24 84.96 636.48 84.96 
L 465.12 84.96 
Q 459.36 84.96 459.36 90.72 
L 459.36 204.48 
Q 459.36 210.24 465.12 210.24 
z
" clip-path="url(#p782ffdccc7)" style="fill: #009e73; stroke: #009e73; stroke-width: 2; stroke-linejoin: miter"/>
   </g>
   <g id="patch_5">
    <path d="M 677.52 210.24 
L 848.88 210.24 
Q 854.64 210.24 854.64 204.48 
L 854.64 90.72 
Q 854.64 84.96 848.88 84.96 
L 677.52 84.96 
Q 671.76 84.96 671.76 90.72 
L 671.76 204.48 
Q 671.76 210.24 677.52 210.24 
z
" clip-path="url(#p782ffdccc7)" style="fill: #e69f00; stroke: #e69f00; stroke-width: 2; stroke-linejoin: miter"/>
   </g>
   <g id="patch_6">
    <path d="M 889.92 210.24 
L 1061.28 210.24 
Q 1067.04 210.24 1067.04 204.48 
L 1067.04 90.72 
Q 1067.04 84.96 1061.28 84.96 
L 889.92 84.96 
Q 884.16 84.96 884.16 90.72 
L 884.16 204.48 
Q 884.16 210.24 889.92 210.24 
z
" clip-path="url(#p782ffdccc7)" style="fill: #d55e00; stroke: #d55e00; stroke-width: 2; stroke-linejoin: miter"/>
   </g>
   <g id="patch_7">
    <path d="M 216 147.6 
Q 232.2 147.6 244.822291 147.6 
" clip-path="url(#p782ffdccc7)" style="fill: none; stroke: #444444; stroke-width: 3.2; stroke-linecap: round"/>
    <path d="M 236.022291 143.2 
L 244.822291 147.6 
L 236.022291 152 
z
" clip-path="url(#p782ffdccc7)" style="fill: #444444; stroke: #444444; stroke-width: 3.2; stroke-linecap: round"/>
   </g>
   <g id="patch_8">
    <path d="M 428.4 147.6 
Q 444.6 147.6 457.222291 147.6 
" clip-path="url(#p782ffdccc7)" style="fill: none; stroke: #444444; stroke-width: 3.2; stroke-linecap: round"/>
    <path d="M 448.422291 143.2 
L 457.222291 147.6 
L 448.422291 152 
z
" clip-path="url(#p782ffdccc7)" style="fill: #444444; stroke: #444444; stroke-width: 3.2; stroke-linecap: round"/>
   </g>
   <g id="patch_9">
    <path d="M 640.8 147.6 
Q 657 147.6 669.622291 147.6 
" clip-path="url(#p782ffdccc7)" style="fill: none; stroke: #444444; stroke-width: 3.2; stroke-linecap: round"/>
    <path d="M 660.822291 143.2 
L 669.622291 147.6 
L 660.822291 152 
z
" clip-path="url(#p782ffdccc7)" style="fill: #444444; stroke: #444444; stroke-width: 3.2; stroke-linecap: round"/>
   </g>
   <g id="patch_10">
    <path d="M 853.2 147.6 
Q 869.4 147.6 882.022291 147.6 
" clip-path="url(#p782ffdccc7)" style="fill: none; stroke: #444444; stroke-width: 3.2; stroke-linecap: round"/>
    <path d="M 873.222291 143.2 
L 882.022291 147.6 
L 873.222291 152 
z
" clip-path="url(#p782ffdccc7)" style="fill: #444444; stroke: #444444; stroke-width: 3.2; stroke-linecap: round"/>
   </g>
   <g id="patch_11">
    <path d="M 616.32 393.84 
L 910.08 393.84 
Q 915.84 393.84 915.84 388.08 
L 915.84 306.72 
Q 915.84 300.96 910.08 300.96 
L 616.32 300.96 
Q 610.56 300.96 610.56 306.72 
L 610.56 388.08 
Q 610.56 393.84 616.32 393.84 
z
" clip-path="url(#p782ffdccc7)" style="fill: #555555; stroke: #555555; stroke-width: 2; stroke-linejoin: miter"/>
   </g>
   <g id="patch_12">
    <path d="M 763.2 208.8 
Q 763.2 255.6 763.2 299.716718 
" clip-path="url(#p782ffdccc7)" style="fill: none; stroke: #555555; stroke-width: 2.4; stroke-linecap: round"/>
    <path d="M 766.4 293.316718 
L 763.2 299.716718 
L 760 293.316718 
z
" clip-path="url(#p782ffdccc7)" style="fill: #555555; stroke: #555555; stroke-width: 2.4; stroke-linecap: round"/>
   </g>
   <g id="patch_13">
    <path d="M 40.32 102.24 
L 1090.08 102.24 
Q 1095.84 102.24 1095.84 96.48 
L 1095.84 36.72 
Q 1095.84 30.96 1090.08 30.96 
L 40.32 30.96 
Q 34.56 30.96 34.56 36.72 
L 34.56 96.48 
Q 34.56 102.24 40.32 102.24 
z
" clip-path="url(#p782ffdccc7)" style="fill: #222222; stroke: #222222; stroke-width: 2; stroke-linejoin: miter"/>
   </g>
   <g id="text_1">
    <!-- ✓ done -->
    <g style="fill: #009e73" transform="translate(90.188437 241.2) scale(0.18 -0.18)">
     <defs>
      <path id="DejaVuSans-Bold-2713" d="M 1416 2044 
Q 1538 2044 1600 1844 
Q 1725 1469 1778 1469 
Q 1819 1469 1863 1531 
Q 2741 2938 3488 3806 
Q 3681 4031 4103 4031 
Q 4203 4031 4237 4012 
Q 4272 3994 4272 3966 
Q 4272 3922 4169 3794 
Q 2963 2344 1931 731 
Q 1859 619 1638 619 
Q 1413 619 1372 638 
Q 1266 684 1122 1116 
Q 959 1594 959 1716 
Q 959 1847 1178 1969 
Q 1313 2044 1416 2044 
z
" transform="scale(0.015625)"/>
      <path id="DejaVuSans-Bold-20" transform="scale(0.015625)"/>
      <path id="DejaVuSans-Bold-64" d="M 2919 2988 
L 2919 4863 
L 4044 4863 
L 4044 0 
L 2919 0 
L 2919 506 
Q 2688 197 2409 53 
Q 2131 -91 1766 -91 
Q 1119 -91 703 423 
Q 288 938 288 1747 
Q 288 2556 703 3070 
Q 1119 3584 1766 3584 
Q 2128 3584 2408 3439 
Q 2688 3294 2919 2988 
z
M 2181 722 
Q 2541 722 2730 984 
Q 2919 1247 2919 1747 
Q 2919 2247 2730 2509 
Q 2541 2772 2181 2772 
Q 1825 2772 1636 2509 
Q 1447 2247 1447 1747 
Q 1447 1247 1636 984 
Q 1825 722 2181 722 
z
" transform="scale(0.015625)"/>
      <path id="DejaVuSans-Bold-6f" d="M 2203 2784 
Q 1831 2784 1636 2517 
Q 1441 2250 1441 1747 
Q 1441 1244 1636 976 
Q 1831 709 2203 709 
Q 2569 709 2762 976 
Q 2956 1244 2956 1747 
Q 2956 2250 2762 2517 
Q 2569 2784 2203 2784 
z
M 2203 3584 
Q 3106 3584 3614 3096 
Q 4122 2609 4122 1747 
Q 4122 884 3614 396 
Q 3106 -91 2203 -91 
Q 1297 -91 786 396 
Q 275 884 275 1747 
Q 275 2609 786 3096 
Q 1297 3584 2203 3584 
z
" transform="scale(0.015625)"/>
      <path id="DejaVuSans-Bold-6e" d="M 4056 2131 
L 4056 0 
L 2931 0 
L 2931 347 
L 2931 1631 
Q 2931 2084 2911 2256 
Q 2891 2428 2841 2509 
Q 2775 2619 2662 2680 
Q 2550 2741 2406 2741 
Q 2056 2741 1856 2470 
Q 1656 2200 1656 1722 
L 1656 0 
L 538 0 
L 538 3500 
L 1656 3500 
L 1656 2988 
Q 1909 3294 2193 3439 
Q 2478 3584 2822 3584 
Q 3428 3584 3742 3212 
Q 4056 2841 4056 2131 
z
" transform="scale(0.015625)"/>
      <path id="DejaVuSans-Bold-65" d="M 4031 1759 
L 4031 1441 
L 1416 1441 
Q 1456 1047 1700 850 
Q 1944 653 2381 653 
Q 2734 653 3104 758 
Q 3475 863 3866 1075 
L 3866 213 
Q 3469 63 3072 -14 
Q 2675 -91 2278 -91 
Q 1328 -91 801 392 
Q 275 875 275 1747 
Q 275 2603 792 3093 
Q 1309 3584 2216 3584 
Q 3041 3584 3536 3087 
Q 4031 2591 4031 1759 
z
M 2881 2131 
Q 2881 2450 2695 2645 
Q 2509 2841 2209 2841 
Q 1884 2841 1681 2658 
Q 1478 2475 1428 2131 
L 2881 2131 
z
" transform="scale(0.015625)"/>
     </defs>
     <use xlink:href="#DejaVuSans-Bold-2713"/>
     <use xlink:href="#DejaVuSans-Bold-20" transform="translate(83.789062 0)"/>
     <use xlink:href="#DejaVuSans-Bold-64" transform="translate(118.603516 0)"/>
     <use xlink:href="#DejaVuSans-Bold-6f" transform="translate(190.185547 0)"/>
     <use xlink:href="#DejaVuSans-Bold-6e" transform="translate(258.886719 0)"/>
     <use xlink:href="#DejaVuSans-Bold-65" transform="translate(330.078125 0)"/>
    </g>
   </g>
   <g id="text_2">
    <!-- in progress -->
    <g style="fill: #9a9a9a" transform="translate(400.2375 241.2) scale(0.16 -0.16)">
     <defs>
      <path id="DejaVuSans-69" d="M 603 3500 
L 1178 3500 
L 1178 0 
L 603 0 
L 603 3500 
z
M 603 4863 
L 1178 4863 
L 1178 4134 
L 603 4134 
L 603 4863 
z
" transform="scale(0.015625)"/>
      <path id="DejaVuSans-6e" d="M 3513 2113 
L 3513 0 
L 2938 0 
L 2938 2094 
Q 2938 2591 2744 2837 
Q 2550 3084 2163 3084 
Q 1697 3084 1428 2787 
Q 1159 2491 1159 1978 
L 1159 0 
L 581 0 
L 581 3500 
L 1159 3500 
L 1159 2956 
Q 1366 3272 1645 3428 
Q 1925 3584 2291 3584 
Q 2894 3584 3203 3211 
Q 3513 2838 3513 2113 
z
" transform="scale(0.015625)"/>
      <path id="DejaVuSans-20" transform="scale(0.015625)"/>
      <path id="DejaVuSans-70" d="M 1159 525 
L 1159 -1331 
L 581 -1331 
L 581 3500 
L 1159 3500 
L 1159 2969 
Q 1341 3281 1617 3432 
Q 1894 3584 2278 3584 
Q 2916 3584 3314 3078 
Q 3713 2572 3713 1747 
Q 3713 922 3314 415 
Q 2916 -91 2278 -91 
Q 1894 -91 1617 61 
Q 1341 213 1159 525 
z
M 3116 1747 
Q 3116 2381 2855 2742 
Q 2594 3103 2138 3103 
Q 1681 3103 1420 2742 
Q 1159 2381 1159 1747 
Q 1159 1113 1420 752 
Q 1681 391 2138 391 
Q 2594 391 2855 752 
Q 3116 1113 3116 1747 
z
" transform="scale(0.015625)"/>
      <path id="DejaVuSans-72" d="M 2631 2963 
Q 2534 3019 2420 3045 
Q 2306 3072 2169 3072 
Q 1681 3072 1420 2755 
Q 1159 2438 1159 1844 
L 1159 0 
L 581 0 
L 581 3500 
L 1159 3500 
L 1159 2956 
Q 1341 3275 1631 3429 
Q 1922 3584 2338 3584 
Q 2397 3584 2469 3576 
Q 2541 3569 2628 3553 
L 2631 2963 
z
" transform="scale(0.015625)"/>
      <path id="DejaVuSans-6f" d="M 1959 3097 
Q 1497 3097 1228 2736 
Q 959 2375 959 1747 
Q 959 1119 1226 758 
Q 1494 397 1959 397 
Q 2419 397 2687 759 
Q 2956 1122 2956 1747 
Q 2956 2369 2687 2733 
Q 2419 3097 1959 3097 
z
M 1959 3584 
Q 2709 3584 3137 3096 
Q 3566 2609 3566 1747 
Q 3566 888 3137 398 
Q 2709 -91 1959 -91 
Q 1206 -91 779 398 
Q 353 888 353 1747 
Q 353 2609 779 3096 
Q 1206 3584 1959 3584 
z
" transform="scale(0.015625)"/>
      <path id="DejaVuSans-67" d="M 2906 1791 
Q 2906 2416 2648 2759 
Q 2391 3103 1925 3103 
Q 1463 3103 1205 2759 
Q 947 2416 947 1791 
Q 947 1169 1205 825 
Q 1463 481 1925 481 
Q 2391 481 2648 825 
Q 2906 1169 2906 1791 
z
M 3481 434 
Q 3481 -459 3084 -895 
Q 2688 -1331 1869 -1331 
Q 1566 -1331 1297 -1286 
Q 1028 -1241 775 -1147 
L 775 -588 
Q 1028 -725 1275 -790 
Q 1522 -856 1778 -856 
Q 2344 -856 2625 -561 
Q 2906 -266 2906 331 
L 2906 616 
Q 2728 306 2450 153 
Q 2172 0 1784 0 
Q 1141 0 747 490 
Q 353 981 353 1791 
Q 353 2603 747 3093 
Q 1141 3584 1784 3584 
Q 2172 3584 2450 3431 
Q 2728 3278 2906 2969 
L 2906 3500 
L 3481 3500 
L 3481 434 
z
" transform="scale(0.015625)"/>
      <path id="DejaVuSans-65" d="M 3597 1894 
L 3597 1613 
L 953 1613 
Q 991 1019 1311 708 
Q 1631 397 2203 397 
Q 2534 397 2845 478 
Q 3156 559 3463 722 
L 3463 178 
Q 3153 47 2828 -22 
Q 2503 -91 2169 -91 
Q 1331 -91 842 396 
Q 353 884 353 1716 
Q 353 2575 817 3079 
Q 1281 3584 2069 3584 
Q 2775 3584 3186 3129 
Q 3597 2675 3597 1894 
z
M 3022 2063 
Q 3016 2534 2758 2815 
Q 2500 3097 2075 3097 
Q 1594 3097 1305 2825 
Q 1016 2553 972 2059 
L 3022 2063 
z
" transform="scale(0.015625)"/>
      <path id="DejaVuSans-73" d="M 2834 3397 
L 2834 2853 
Q 2591 2978 2328 3040 
Q 2066 3103 1784 3103 
Q 1356 3103 1142 2972 
Q 928 2841 928 2578 
Q 928 2378 1081 2264 
Q 1234 2150 1697 2047 
L 1894 2003 
Q 2506 1872 2764 1633 
Q 3022 1394 3022 966 
Q 3022 478 2636 193 
Q 2250 -91 1575 -91 
Q 1294 -91 989 -36 
Q 684 19 347 128 
L 347 722 
Q 666 556 975 473 
Q 1284 391 1588 391 
Q 1994 391 2212 530 
Q 2431 669 2431 922 
Q 2431 1156 2273 1281 
Q 2116 1406 1581 1522 
L 1381 1569 
Q 847 1681 609 1914 
Q 372 2147 372 2553 
Q 372 3047 722 3315 
Q 1072 3584 1716 3584 
Q 2034 3584 2315 3537 
Q 2597 3491 2834 3397 
z
" transform="scale(0.015625)"/>
     </defs>
     <use xlink:href="#DejaVuSans-69"/>
     <use xlink:href="#DejaVuSans-6e" transform="translate(27.783203 0)"/>
     <use xlink:href="#DejaVuSans-20" transform="translate(91.162109 0)"/>
     <use xlink:href="#DejaVuSans-70" transform="translate(122.949219 0)"/>
     <use xlink:href="#DejaVuSans-72" transform="translate(186.425781 0)"/>
     <use xlink:href="#DejaVuSans-6f" transform="translate(225.289062 0)"/>
     <use xlink:href="#DejaVuSans-67" transform="translate(286.470703 0)"/>
     <use xlink:href="#DejaVuSans-72" transform="translate(349.947266 0)"/>
     <use xlink:href="#DejaVuSans-65" transform="translate(388.810547 0)"/>
     <use xlink:href="#DejaVuSans-73" transform="translate(450.333984 0)"/>
     <use xlink:href="#DejaVuSans-73" transform="translate(502.433594 0)"/>
    </g>
   </g>
   <g id="text_3">
    <!-- Calibrate -->
    <g style="fill: #ffffff" transform="translate(74.65625 141.920937) scale(0.2 -0.2)">
     <defs>
      <path id="DejaVuSans-Bold-43" d="M 4288 256 
Q 3956 84 3597 -3 
Q 3238 -91 2847 -91 
Q 1681 -91 1000 561 
Q 319 1213 319 2328 
Q 319 3447 1000 4098 
Q 1681 4750 2847 4750 
Q 3238 4750 3597 4662 
Q 3956 4575 4288 4403 
L 4288 3438 
Q 3953 3666 3628 3772 
Q 3303 3878 2944 3878 
Q 2300 3878 1931 3465 
Q 1563 3053 1563 2328 
Q 1563 1606 1931 1193 
Q 2300 781 2944 781 
Q 3303 781 3628 887 
Q 3953 994 4288 1222 
L 4288 256 
z
" transform="scale(0.015625)"/>
      <path id="DejaVuSans-Bold-61" d="M 2106 1575 
Q 1756 1575 1579 1456 
Q 1403 1338 1403 1106 
Q 1403 894 1545 773 
Q 1688 653 1941 653 
Q 2256 653 2472 879 
Q 2688 1106 2688 1447 
L 2688 1575 
L 2106 1575 
z
M 3816 1997 
L 3816 0 
L 2688 0 
L 2688 519 
Q 2463 200 2181 54 
Q 1900 -91 1497 -91 
Q 953 -91 614 226 
Q 275 544 275 1050 
Q 275 1666 698 1953 
Q 1122 2241 2028 2241 
L 2688 2241 
L 2688 2328 
Q 2688 2594 2478 2717 
Q 2269 2841 1825 2841 
Q 1466 2841 1156 2769 
Q 847 2697 581 2553 
L 581 3406 
Q 941 3494 1303 3539 
Q 1666 3584 2028 3584 
Q 2975 3584 3395 3211 
Q 3816 2838 3816 1997 
z
" transform="scale(0.015625)"/>
      <path id="DejaVuSans-Bold-6c" d="M 538 4863 
L 1656 4863 
L 1656 0 
L 538 0 
L 538 4863 
z
" transform="scale(0.015625)"/>
      <path id="DejaVuSans-Bold-69" d="M 538 3500 
L 1656 3500 
L 1656 0 
L 538 0 
L 538 3500 
z
M 538 4863 
L 1656 4863 
L 1656 3950 
L 538 3950 
L 538 4863 
z
" transform="scale(0.015625)"/>
      <path id="DejaVuSans-Bold-62" d="M 2400 722 
Q 2759 722 2948 984 
Q 3138 1247 3138 1747 
Q 3138 2247 2948 2509 
Q 2759 2772 2400 2772 
Q 2041 2772 1848 2508 
Q 1656 2244 1656 1747 
Q 1656 1250 1848 986 
Q 2041 722 2400 722 
z
M 1656 2988 
Q 1888 3294 2169 3439 
Q 2450 3584 2816 3584 
Q 3463 3584 3878 3070 
Q 4294 2556 4294 1747 
Q 4294 938 3878 423 
Q 3463 -91 2816 -91 
Q 2450 -91 2169 54 
Q 1888 200 1656 506 
L 1656 0 
L 538 0 
L 538 4863 
L 1656 4863 
L 1656 2988 
z
" transform="scale(0.015625)"/>
      <path id="DejaVuSans-Bold-72" d="M 3138 2547 
Q 2991 2616 2845 2648 
Q 2700 2681 2553 2681 
Q 2122 2681 1889 2404 
Q 1656 2128 1656 1613 
L 1656 0 
L 538 0 
L 538 3500 
L 1656 3500 
L 1656 2925 
Q 1872 3269 2151 3426 
Q 2431 3584 2822 3584 
Q 2878 3584 2943 3579 
Q 3009 3575 3134 3559 
L 3138 2547 
z
" transform="scale(0.015625)"/>
      <path id="DejaVuSans-Bold-74" d="M 1759 4494 
L 1759 3500 
L 2913 3500 
L 2913 2700 
L 1759 2700 
L 1759 1216 
Q 1759 972 1856 886 
Q 1953 800 2241 800 
L 2816 800 
L 2816 0 
L 1856 0 
Q 1194 0 917 276 
Q 641 553 641 1216 
L 641 2700 
L 84 2700 
L 84 3500 
L 641 3500 
L 641 4494 
L 1759 4494 
z
" transform="scale(0.015625)"/>
     </defs>
     <use xlink:href="#DejaVuSans-Bold-43"/>
     <use xlink:href="#DejaVuSans-Bold-61" transform="translate(73.388672 0)"/>
     <use xlink:href="#DejaVuSans-Bold-6c" transform="translate(140.869141 0)"/>
     <use xlink:href="#DejaVuSans-Bold-69" transform="translate(175.146484 0)"/>
     <use xlink:href="#DejaVuSans-Bold-62" transform="translate(209.423828 0)"/>
     <use xlink:href="#DejaVuSans-Bold-72" transform="translate(281.005859 0)"/>
     <use xlink:href="#DejaVuSans-Bold-61" transform="translate(330.322266 0)"/>
     <use xlink:href="#DejaVuSans-Bold-74" transform="translate(397.802734 0)"/>
     <use xlink:href="#DejaVuSans-Bold-65" transform="translate(445.605469 0)"/>
    </g>
    <!-- microscope -->
    <g style="fill: #ffffff" transform="translate(61.73125 164.316562) scale(0.2 -0.2)">
     <defs>
      <path id="DejaVuSans-Bold-6d" d="M 3781 2919 
Q 3994 3244 4286 3414 
Q 4578 3584 4928 3584 
Q 5531 3584 5847 3212 
Q 6163 2841 6163 2131 
L 6163 0 
L 5038 0 
L 5038 1825 
Q 5041 1866 5042 1909 
Q 5044 1953 5044 2034 
Q 5044 2406 4934 2573 
Q 4825 2741 4581 2741 
Q 4263 2741 4089 2478 
Q 3916 2216 3909 1719 
L 3909 0 
L 2784 0 
L 2784 1825 
Q 2784 2406 2684 2573 
Q 2584 2741 2328 2741 
Q 2006 2741 1831 2477 
Q 1656 2213 1656 1722 
L 1656 0 
L 531 0 
L 531 3500 
L 1656 3500 
L 1656 2988 
Q 1863 3284 2130 3434 
Q 2397 3584 2719 3584 
Q 3081 3584 3359 3409 
Q 3638 3234 3781 2919 
z
" transform="scale(0.015625)"/>
      <path id="DejaVuSans-Bold-63" d="M 3366 3391 
L 3366 2478 
Q 3138 2634 2908 2709 
Q 2678 2784 2431 2784 
Q 1963 2784 1702 2511 
Q 1441 2238 1441 1747 
Q 1441 1256 1702 982 
Q 1963 709 2431 709 
Q 2694 709 2930 787 
Q 3166 866 3366 1019 
L 3366 103 
Q 3103 6 2833 -42 
Q 2563 -91 2291 -91 
Q 1344 -91 809 395 
Q 275 881 275 1747 
Q 275 2613 809 3098 
Q 1344 3584 2291 3584 
Q 2566 3584 2833 3536 
Q 3100 3488 3366 3391 
z
" transform="scale(0.015625)"/>
      <path id="DejaVuSans-Bold-73" d="M 3272 3391 
L 3272 2541 
Q 2913 2691 2578 2766 
Q 2244 2841 1947 2841 
Q 1628 2841 1473 2761 
Q 1319 2681 1319 2516 
Q 1319 2381 1436 2309 
Q 1553 2238 1856 2203 
L 2053 2175 
Q 2913 2066 3209 1816 
Q 3506 1566 3506 1031 
Q 3506 472 3093 190 
Q 2681 -91 1863 -91 
Q 1516 -91 1145 -36 
Q 775 19 384 128 
L 384 978 
Q 719 816 1070 734 
Q 1422 653 1784 653 
Q 2113 653 2278 743 
Q 2444 834 2444 1013 
Q 2444 1163 2330 1236 
Q 2216 1309 1875 1350 
L 1678 1375 
Q 931 1469 631 1722 
Q 331 1975 331 2491 
Q 331 3047 712 3315 
Q 1094 3584 1881 3584 
Q 2191 3584 2531 3537 
Q 2872 3491 3272 3391 
z
" transform="scale(0.015625)"/>
      <path id="DejaVuSans-Bold-70" d="M 1656 506 
L 1656 -1331 
L 538 -1331 
L 538 3500 
L 1656 3500 
L 1656 2988 
Q 1888 3294 2169 3439 
Q 2450 3584 2816 3584 
Q 3463 3584 3878 3070 
Q 4294 2556 4294 1747 
Q 4294 938 3878 423 
Q 3463 -91 2816 -91 
Q 2450 -91 2169 54 
Q 1888 200 1656 506 
z
M 2400 2772 
Q 2041 2772 1848 2508 
Q 1656 2244 1656 1747 
Q 1656 1250 1848 986 
Q 2041 722 2400 722 
Q 2759 722 2948 984 
Q 3138 1247 3138 1747 
Q 3138 2247 2948 2509 
Q 2759 2772 2400 2772 
z
" transform="scale(0.015625)"/>
     </defs>
     <use xlink:href="#DejaVuSans-Bold-6d"/>
     <use xlink:href="#DejaVuSans-Bold-69" transform="translate(104.199219 0)"/>
     <use xlink:href="#DejaVuSans-Bold-63" transform="translate(138.476562 0)"/>
     <use xlink:href="#DejaVuSans-Bold-72" transform="translate(197.753906 0)"/>
     <use xlink:href="#DejaVuSans-Bold-6f" transform="translate(247.070312 0)"/>
     <use xlink:href="#DejaVuSans-Bold-73" transform="translate(315.771484 0)"/>
     <use xlink:href="#DejaVuSans-Bold-63" transform="translate(375.292969 0)"/>
     <use xlink:href="#DejaVuSans-Bold-6f" transform="translate(434.570312 0)"/>
     <use xlink:href="#DejaVuSans-Bold-70" transform="translate(503.271484 0)"/>
     <use xlink:href="#DejaVuSans-Bold-65" transform="translate(574.853516 0)"/>
    </g>
   </g>
   <g id="text_4">
    <!-- Generate -->
    <g style="fill: #ffffff" transform="translate(286.265625 141.842812) scale(0.2 -0.2)">
     <defs>
      <path id="DejaVuSans-Bold-47" d="M 4781 347 
Q 4331 128 3847 18 
Q 3363 -91 2847 -91 
Q 1681 -91 1000 561 
Q 319 1213 319 2328 
Q 319 3456 1012 4103 
Q 1706 4750 2913 4750 
Q 3378 4750 3804 4662 
Q 4231 4575 4609 4403 
L 4609 3438 
Q 4219 3659 3833 3768 
Q 3447 3878 3059 3878 
Q 2341 3878 1952 3476 
Q 1563 3075 1563 2328 
Q 1563 1588 1938 1184 
Q 2313 781 3003 781 
Q 3191 781 3352 804 
Q 3513 828 3641 878 
L 3641 1784 
L 2906 1784 
L 2906 2591 
L 4781 2591 
L 4781 347 
z
" transform="scale(0.015625)"/>
     </defs>
     <use xlink:href="#DejaVuSans-Bold-47"/>
     <use xlink:href="#DejaVuSans-Bold-65" transform="translate(82.080078 0)"/>
     <use xlink:href="#DejaVuSans-Bold-6e" transform="translate(149.902344 0)"/>
     <use xlink:href="#DejaVuSans-Bold-65" transform="translate(221.09375 0)"/>
     <use xlink:href="#DejaVuSans-Bold-72" transform="translate(288.916016 0)"/>
     <use xlink:href="#DejaVuSans-Bold-61" transform="translate(338.232422 0)"/>
     <use xlink:href="#DejaVuSans-Bold-74" transform="translate(405.712891 0)"/>
     <use xlink:href="#DejaVuSans-Bold-65" transform="translate(453.515625 0)"/>
    </g>
    <!-- labeled images -->
    <g style="fill: #ffffff" transform="translate(252.94375 164.238437) scale(0.2 -0.2)">
     <defs>
      <path id="DejaVuSans-Bold-67" d="M 2919 594 
Q 2688 288 2409 144 
Q 2131 0 1766 0 
Q 1125 0 706 504 
Q 288 1009 288 1791 
Q 288 2575 706 3076 
Q 1125 3578 1766 3578 
Q 2131 3578 2409 3434 
Q 2688 3291 2919 2981 
L 2919 3500 
L 4044 3500 
L 4044 353 
Q 4044 -491 3511 -936 
Q 2978 -1381 1966 -1381 
Q 1638 -1381 1331 -1331 
Q 1025 -1281 716 -1178 
L 716 -306 
Q 1009 -475 1290 -558 
Q 1572 -641 1856 -641 
Q 2406 -641 2662 -400 
Q 2919 -159 2919 353 
L 2919 594 
z
M 2181 2772 
Q 1834 2772 1640 2515 
Q 1447 2259 1447 1791 
Q 1447 1309 1634 1061 
Q 1822 813 2181 813 
Q 2531 813 2725 1069 
Q 2919 1325 2919 1791 
Q 2919 2259 2725 2515 
Q 2531 2772 2181 2772 
z
" transform="scale(0.015625)"/>
     </defs>
     <use xlink:href="#DejaVuSans-Bold-6c"/>
     <use xlink:href="#DejaVuSans-Bold-61" transform="translate(34.277344 0)"/>
     <use xlink:href="#DejaVuSans-Bold-62" transform="translate(101.757812 0)"/>
     <use xlink:href="#DejaVuSans-Bold-65" transform="translate(173.339844 0)"/>
     <use xlink:href="#DejaVuSans-Bold-6c" transform="translate(241.162109 0)"/>
     <use xlink:href="#DejaVuSans-Bold-65" transform="translate(275.439453 0)"/>
     <use xlink:href="#DejaVuSans-Bold-64" transform="translate(343.261719 0)"/>
     <use xlink:href="#DejaVuSans-Bold-20" transform="translate(414.84375 0)"/>
     <use xlink:href="#DejaVuSans-Bold-69" transform="translate(449.658203 0)"/>
     <use xlink:href="#DejaVuSans-Bold-6d" transform="translate(483.935547 0)"/>
     <use xlink:href="#DejaVuSans-Bold-61" transform="translate(588.134766 0)"/>
     <use xlink:href="#DejaVuSans-Bold-67" transform="translate(655.615234 0)"/>
     <use xlink:href="#DejaVuSans-Bold-65" transform="translate(727.197266 0)"/>
     <use xlink:href="#DejaVuSans-Bold-73" transform="translate(795.019531 0)"/>
    </g>
   </g>
   <g id="text_5">
    <!-- Train -->
    <g style="fill: #ffffff" transform="translate(522.851563 141.920937) scale(0.2 -0.2)">
     <defs>
      <path id="DejaVuSans-Bold-54" d="M 31 4666 
L 4331 4666 
L 4331 3756 
L 2784 3756 
L 2784 0 
L 1581 0 
L 1581 3756 
L 31 3756 
L 31 4666 
z
" transform="scale(0.015625)"/>
     </defs>
     <use xlink:href="#DejaVuSans-Bold-54"/>
     <use xlink:href="#DejaVuSans-Bold-72" transform="translate(57.212891 0)"/>
     <use xlink:href="#DejaVuSans-Bold-61" transform="translate(106.529297 0)"/>
     <use xlink:href="#DejaVuSans-Bold-69" transform="translate(174.009766 0)"/>
     <use xlink:href="#DejaVuSans-Bold-6e" transform="translate(208.287109 0)"/>
    </g>
    <!-- detector -->
    <g style="fill: #ffffff" transform="translate(502.7875 164.316562) scale(0.2 -0.2)">
     <use xlink:href="#DejaVuSans-Bold-64"/>
     <use xlink:href="#DejaVuSans-Bold-65" transform="translate(71.582031 0)"/>
     <use xlink:href="#DejaVuSans-Bold-74" transform="translate(139.404297 0)"/>
     <use xlink:href="#DejaVuSans-Bold-65" transform="translate(187.207031 0)"/>
     <use xlink:href="#DejaVuSans-Bold-63" transform="translate(255.029297 0)"/>
     <use xlink:href="#DejaVuSans-Bold-74" transform="translate(314.306641 0)"/>
     <use xlink:href="#DejaVuSans-Bold-6f" transform="translate(362.109375 0)"/>
     <use xlink:href="#DejaVuSans-Bold-72" transform="translate(430.810547 0)"/>
    </g>
   </g>
   <g id="text_6">
    <!-- Detect on -->
    <g style="fill: #ffffff" transform="translate(708.375 141.842812) scale(0.2 -0.2)">
     <defs>
      <path id="DejaVuSans-Bold-44" d="M 1791 3756 
L 1791 909 
L 2222 909 
Q 2959 909 3348 1275 
Q 3738 1641 3738 2338 
Q 3738 3031 3350 3393 
Q 2963 3756 2222 3756 
L 1791 3756 
z
M 588 4666 
L 1856 4666 
Q 2919 4666 3439 4514 
Q 3959 4363 4331 4000 
Q 4659 3684 4818 3271 
Q 4978 2859 4978 2338 
Q 4978 1809 4818 1395 
Q 4659 981 4331 666 
Q 3956 303 3431 151 
Q 2906 0 1856 0 
L 588 0 
L 588 4666 
z
" transform="scale(0.015625)"/>
     </defs>
     <use xlink:href="#DejaVuSans-Bold-44"/>
     <use xlink:href="#DejaVuSans-Bold-65" transform="translate(83.007812 0)"/>
     <use xlink:href="#DejaVuSans-Bold-74" transform="translate(150.830078 0)"/>
     <use xlink:href="#DejaVuSans-Bold-65" transform="translate(198.632812 0)"/>
     <use xlink:href="#DejaVuSans-Bold-63" transform="translate(266.455078 0)"/>
     <use xlink:href="#DejaVuSans-Bold-74" transform="translate(325.732422 0)"/>
     <use xlink:href="#DejaVuSans-Bold-20" transform="translate(373.535156 0)"/>
     <use xlink:href="#DejaVuSans-Bold-6f" transform="translate(408.349609 0)"/>
     <use xlink:href="#DejaVuSans-Bold-6e" transform="translate(477.050781 0)"/>
    </g>
    <!-- real images -->
    <g style="fill: #ffffff" transform="translate(697.339063 164.238437) scale(0.2 -0.2)">
     <use xlink:href="#DejaVuSans-Bold-72"/>
     <use xlink:href="#DejaVuSans-Bold-65" transform="translate(49.316406 0)"/>
     <use xlink:href="#DejaVuSans-Bold-61" transform="translate(117.138672 0)"/>
     <use xlink:href="#DejaVuSans-Bold-6c" transform="translate(184.619141 0)"/>
     <use xlink:href="#DejaVuSans-Bold-20" transform="translate(218.896484 0)"/>
     <use xlink:href="#DejaVuSans-Bold-69" transform="translate(253.710938 0)"/>
     <use xlink:href="#DejaVuSans-Bold-6d" transform="translate(287.988281 0)"/>
     <use xlink:href="#DejaVuSans-Bold-61" transform="translate(392.1875 0)"/>
     <use xlink:href="#DejaVuSans-Bold-67" transform="translate(459.667969 0)"/>
     <use xlink:href="#DejaVuSans-Bold-65" transform="translate(531.25 0)"/>
     <use xlink:href="#DejaVuSans-Bold-73" transform="translate(599.072266 0)"/>
    </g>
   </g>
   <g id="text_7">
    <!-- $\alpha\ \pm$ error bar -->
    <g style="fill: #ffffff" transform="translate(899.2 153.11875) scale(0.2 -0.2)">
     <defs>
      <path id="DejaVuSans-Oblique-3b1" d="M 2619 1628 
L 2622 2350 
Q 2625 3088 2069 3091 
Q 1653 3094 1394 2747 
Q 1069 2319 959 1747 
Q 825 1059 994 731 
Q 1169 397 1547 397 
Q 1966 397 2319 1063 
L 2619 1628 
z
M 2166 3578 
Q 3141 3594 3128 2584 
Q 3128 2584 3616 3500 
L 4128 3500 
L 3119 1603 
L 3109 919 
Q 3109 766 3194 638 
Q 3291 488 3391 488 
L 3669 488 
L 3575 0 
L 3228 0 
Q 2934 0 2722 263 
Q 2622 394 2619 669 
Q 2416 334 2066 50 
Q 1900 -81 1453 -78 
Q 722 -72 456 397 
Q 184 884 353 1747 
Q 534 2675 1009 3097 
Q 1544 3569 2166 3578 
z
" transform="scale(0.015625)"/>
      <path id="DejaVuSans-b1" d="M 2944 4013 
L 2944 2803 
L 4684 2803 
L 4684 2272 
L 2944 2272 
L 2944 1063 
L 2419 1063 
L 2419 2272 
L 678 2272 
L 678 2803 
L 2419 2803 
L 2419 4013 
L 2944 4013 
z
M 678 531 
L 4684 531 
L 4684 0 
L 678 0 
L 678 531 
z
" transform="scale(0.015625)"/>
     </defs>
     <use xlink:href="#DejaVuSans-Oblique-3b1" transform="translate(0 0.015625)"/>
     <use xlink:href="#DejaVuSans-b1" transform="translate(117.870769 0.015625)"/>
     <use xlink:href="#DejaVuSans-Bold-20" transform="translate(221.142253 0.015625)"/>
     <use xlink:href="#DejaVuSans-Bold-65" transform="translate(255.956707 0.015625)"/>
     <use xlink:href="#DejaVuSans-Bold-72" transform="translate(323.778972 0.015625)"/>
     <use xlink:href="#DejaVuSans-Bold-72" transform="translate(373.095378 0.015625)"/>
     <use xlink:href="#DejaVuSans-Bold-6f" transform="translate(422.411785 0.015625)"/>
     <use xlink:href="#DejaVuSans-Bold-72" transform="translate(491.112957 0.015625)"/>
     <use xlink:href="#DejaVuSans-Bold-20" transform="translate(540.429363 0.015625)"/>
     <use xlink:href="#DejaVuSans-Bold-62" transform="translate(575.243816 0.015625)"/>
     <use xlink:href="#DejaVuSans-Bold-61" transform="translate(646.825847 0.015625)"/>
     <use xlink:href="#DejaVuSans-Bold-72" transform="translate(714.306316 0.015625)"/>
    </g>
   </g>
   <g id="text_8">
    <!-- Benchmark vs Spotiflow -->
    <g style="fill: #ffffff" transform="translate(661.141406 343.140703) scale(0.15 -0.15)">
     <defs>
      <path id="DejaVuSans-Bold-42" d="M 2456 2859 
Q 2741 2859 2887 2984 
Q 3034 3109 3034 3353 
Q 3034 3594 2887 3720 
Q 2741 3847 2456 3847 
L 1791 3847 
L 1791 2859 
L 2456 2859 
z
M 2497 819 
Q 2859 819 3042 972 
Q 3225 1125 3225 1434 
Q 3225 1738 3044 1889 
Q 2863 2041 2497 2041 
L 1791 2041 
L 1791 819 
L 2497 819 
z
M 3616 2497 
Q 4003 2384 4215 2081 
Q 4428 1778 4428 1338 
Q 4428 663 3972 331 
Q 3516 0 2584 0 
L 588 0 
L 588 4666 
L 2394 4666 
Q 3366 4666 3802 4372 
Q 4238 4078 4238 3431 
Q 4238 3091 4078 2852 
Q 3919 2613 3616 2497 
z
" transform="scale(0.015625)"/>
      <path id="DejaVuSans-Bold-68" d="M 4056 2131 
L 4056 0 
L 2931 0 
L 2931 347 
L 2931 1625 
Q 2931 2084 2911 2256 
Q 2891 2428 2841 2509 
Q 2775 2619 2662 2680 
Q 2550 2741 2406 2741 
Q 2056 2741 1856 2470 
Q 1656 2200 1656 1722 
L 1656 0 
L 538 0 
L 538 4863 
L 1656 4863 
L 1656 2988 
Q 1909 3294 2193 3439 
Q 2478 3584 2822 3584 
Q 3428 3584 3742 3212 
Q 4056 2841 4056 2131 
z
" transform="scale(0.015625)"/>
      <path id="DejaVuSans-Bold-6b" d="M 538 4863 
L 1656 4863 
L 1656 2216 
L 2944 3500 
L 4244 3500 
L 2534 1894 
L 4378 0 
L 3022 0 
L 1656 1459 
L 1656 0 
L 538 0 
L 538 4863 
z
" transform="scale(0.015625)"/>
      <path id="DejaVuSans-Bold-76" d="M 97 3500 
L 1216 3500 
L 2088 1081 
L 2956 3500 
L 4078 3500 
L 2700 0 
L 1472 0 
L 97 3500 
z
" transform="scale(0.015625)"/>
      <path id="DejaVuSans-Bold-53" d="M 3834 4519 
L 3834 3531 
Q 3450 3703 3084 3790 
Q 2719 3878 2394 3878 
Q 1963 3878 1756 3759 
Q 1550 3641 1550 3391 
Q 1550 3203 1689 3098 
Q 1828 2994 2194 2919 
L 2706 2816 
Q 3484 2659 3812 2340 
Q 4141 2022 4141 1434 
Q 4141 663 3683 286 
Q 3225 -91 2284 -91 
Q 1841 -91 1394 -6 
Q 947 78 500 244 
L 500 1259 
Q 947 1022 1364 901 
Q 1781 781 2169 781 
Q 2563 781 2772 912 
Q 2981 1044 2981 1288 
Q 2981 1506 2839 1625 
Q 2697 1744 2272 1838 
L 1806 1941 
Q 1106 2091 782 2419 
Q 459 2747 459 3303 
Q 459 4000 909 4375 
Q 1359 4750 2203 4750 
Q 2588 4750 2994 4692 
Q 3400 4634 3834 4519 
z
" transform="scale(0.015625)"/>
      <path id="DejaVuSans-Bold-66" d="M 2841 4863 
L 2841 4128 
L 2222 4128 
Q 1984 4128 1890 4042 
Q 1797 3956 1797 3744 
L 1797 3500 
L 2753 3500 
L 2753 2700 
L 1797 2700 
L 1797 0 
L 678 0 
L 678 2700 
L 122 2700 
L 122 3500 
L 678 3500 
L 678 3744 
Q 678 4316 997 4589 
Q 1316 4863 1984 4863 
L 2841 4863 
z
" transform="scale(0.015625)"/>
      <path id="DejaVuSans-Bold-77" d="M 225 3500 
L 1313 3500 
L 1900 1088 
L 2491 3500 
L 3425 3500 
L 4013 1113 
L 4603 3500 
L 5691 3500 
L 4769 0 
L 3547 0 
L 2956 2406 
L 2369 0 
L 1147 0 
L 225 3500 
z
" transform="scale(0.015625)"/>
     </defs>
     <use xlink:href="#DejaVuSans-Bold-42"/>
     <use xlink:href="#DejaVuSans-Bold-65" transform="translate(76.220703 0)"/>
     <use xlink:href="#DejaVuSans-Bold-6e" transform="translate(144.042969 0)"/>
     <use xlink:href="#DejaVuSans-Bold-63" transform="translate(215.234375 0)"/>
     <use xlink:href="#DejaVuSans-Bold-68" transform="translate(274.511719 0)"/>
     <use xlink:href="#DejaVuSans-Bold-6d" transform="translate(345.703125 0)"/>
     <use xlink:href="#DejaVuSans-Bold-61" transform="translate(449.902344 0)"/>
     <use xlink:href="#DejaVuSans-Bold-72" transform="translate(517.382812 0)"/>
     <use xlink:href="#DejaVuSans-Bold-6b" transform="translate(566.699219 0)"/>
     <use xlink:href="#DejaVuSans-Bold-20" transform="translate(633.203125 0)"/>
     <use xlink:href="#DejaVuSans-Bold-76" transform="translate(668.017578 0)"/>
     <use xlink:href="#DejaVuSans-Bold-73" transform="translate(733.203125 0)"/>
     <use xlink:href="#DejaVuSans-Bold-20" transform="translate(792.724609 0)"/>
     <use xlink:href="#DejaVuSans-Bold-53" transform="translate(827.539062 0)"/>
     <use xlink:href="#DejaVuSans-Bold-70" transform="translate(899.560547 0)"/>
     <use xlink:href="#DejaVuSans-Bold-6f" transform="translate(971.142578 0)"/>
     <use xlink:href="#DejaVuSans-Bold-74" transform="translate(1039.84375 0)"/>
     <use xlink:href="#DejaVuSans-Bold-69" transform="translate(1087.646484 0)"/>
     <use xlink:href="#DejaVuSans-Bold-66" transform="translate(1121.923828 0)"/>
     <use xlink:href="#DejaVuSans-Bold-6c" transform="translate(1165.429688 0)"/>
     <use xlink:href="#DejaVuSans-Bold-6f" transform="translate(1199.707031 0)"/>
     <use xlink:href="#DejaVuSans-Bold-77" transform="translate(1268.408203 0)"/>
    </g>
    <!-- (under-detects our small liposomes) -->
    <g style="fill: #ffffff" transform="translate(609.626953 359.937422) scale(0.15 -0.15)">
     <defs>
      <path id="DejaVuSans-Bold-28" d="M 2413 -844 
L 1484 -844 
Q 1006 -72 778 623 
Q 550 1319 550 2003 
Q 550 2688 779 3389 
Q 1009 4091 1484 4856 
L 2413 4856 
Q 2013 4116 1813 3408 
Q 1613 2700 1613 2009 
Q 1613 1319 1811 609 
Q 2009 -100 2413 -844 
z
" transform="scale(0.015625)"/>
      <path id="DejaVuSans-Bold-75" d="M 500 1363 
L 500 3500 
L 1625 3500 
L 1625 3150 
Q 1625 2866 1622 2436 
Q 1619 2006 1619 1863 
Q 1619 1441 1641 1255 
Q 1663 1069 1716 984 
Q 1784 875 1895 815 
Q 2006 756 2150 756 
Q 2500 756 2700 1025 
Q 2900 1294 2900 1772 
L 2900 3500 
L 4019 3500 
L 4019 0 
L 2900 0 
L 2900 506 
Q 2647 200 2364 54 
Q 2081 -91 1741 -91 
Q 1134 -91 817 281 
Q 500 653 500 1363 
z
" transform="scale(0.015625)"/>
      <path id="DejaVuSans-Bold-2d" d="M 347 2297 
L 2309 2297 
L 2309 1388 
L 347 1388 
L 347 2297 
z
" transform="scale(0.015625)"/>
      <path id="DejaVuSans-Bold-29" d="M 513 -844 
Q 913 -100 1113 609 
Q 1313 1319 1313 2009 
Q 1313 2700 1113 3408 
Q 913 4116 513 4856 
L 1441 4856 
Q 1916 4091 2145 3389 
Q 2375 2688 2375 2003 
Q 2375 1319 2147 623 
Q 1919 -72 1441 -844 
L 513 -844 
z
" transform="scale(0.015625)"/>
     </defs>
     <use xlink:href="#DejaVuSans-Bold-28"/>
     <use xlink:href="#DejaVuSans-Bold-75" transform="translate(45.703125 0)"/>
     <use xlink:href="#DejaVuSans-Bold-6e" transform="translate(116.894531 0)"/>
     <use xlink:href="#DejaVuSans-Bold-64" transform="translate(188.085938 0)"/>
     <use xlink:href="#DejaVuSans-Bold-65" transform="translate(259.667969 0)"/>
     <use xlink:href="#DejaVuSans-Bold-72" transform="translate(327.490234 0)"/>
     <use xlink:href="#DejaVuSans-Bold-2d" transform="translate(376.806641 0)"/>
     <use xlink:href="#DejaVuSans-Bold-64" transform="translate(418.310547 0)"/>
     <use xlink:href="#DejaVuSans-Bold-65" transform="translate(489.892578 0)"/>
     <use xlink:href="#DejaVuSans-Bold-74" transform="translate(557.714844 0)"/>
     <use xlink:href="#DejaVuSans-Bold-65" transform="translate(605.517578 0)"/>
     <use xlink:href="#DejaVuSans-Bold-63" transform="translate(673.339844 0)"/>
     <use xlink:href="#DejaVuSans-Bold-74" transform="translate(732.617188 0)"/>
     <use xlink:href="#DejaVuSans-Bold-73" transform="translate(780.419922 0)"/>
     <use xlink:href="#DejaVuSans-Bold-20" transform="translate(839.941406 0)"/>
     <use xlink:href="#DejaVuSans-Bold-6f" transform="translate(874.755859 0)"/>
     <use xlink:href="#DejaVuSans-Bold-75" transform="translate(943.457031 0)"/>
     <use xlink:href="#DejaVuSans-Bold-72" transform="translate(1014.648438 0)"/>
     <use xlink:href="#DejaVuSans-Bold-20" transform="translate(1063.964844 0)"/>
     <use xlink:href="#DejaVuSans-Bold-73" transform="translate(1098.779297 0)"/>
     <use xlink:href="#DejaVuSans-Bold-6d" transform="translate(1158.300781 0)"/>
     <use xlink:href="#DejaVuSans-Bold-61" transform="translate(1262.5 0)"/>
     <use xlink:href="#DejaVuSans-Bold-6c" transform="translate(1329.980469 0)"/>
     <use xlink:href="#DejaVuSans-Bold-6c" transform="translate(1364.257812 0)"/>
     <use xlink:href="#DejaVuSans-Bold-20" transform="translate(1398.535156 0)"/>
     <use xlink:href="#DejaVuSans-Bold-6c" transform="translate(1433.349609 0)"/>
     <use xlink:href="#DejaVuSans-Bold-69" transform="translate(1467.626953 0)"/>
     <use xlink:href="#DejaVuSans-Bold-70" transform="translate(1501.904297 0)"/>
     <use xlink:href="#DejaVuSans-Bold-6f" transform="translate(1573.486328 0)"/>
     <use xlink:href="#DejaVuSans-Bold-73" transform="translate(1642.1875 0)"/>
     <use xlink:href="#DejaVuSans-Bold-6f" transform="translate(1701.708984 0)"/>
     <use xlink:href="#DejaVuSans-Bold-6d" transform="translate(1770.410156 0)"/>
     <use xlink:href="#DejaVuSans-Bold-65" transform="translate(1874.609375 0)"/>
     <use xlink:href="#DejaVuSans-Bold-73" transform="translate(1942.431641 0)"/>
     <use xlink:href="#DejaVuSans-Bold-29" transform="translate(2001.953125 0)"/>
    </g>
   </g>
   <g id="text_9">
    <!-- Goal: unbiased curvature number α with uncertainty  +  a reusable recipe any lab can apply -->
    <g style="fill: #ffffff" transform="translate(98.045156 71.496562) scale(0.18 -0.18)">
     <defs>
      <path id="DejaVuSans-Bold-3a" d="M 716 3500 
L 1844 3500 
L 1844 2291 
L 716 2291 
L 716 3500 
z
M 716 1209 
L 1844 1209 
L 1844 0 
L 716 0 
L 716 1209 
z
" transform="scale(0.015625)"/>
      <path id="DejaVuSans-Bold-3b1" d="M 3006 3163 
L 3119 3500 
L 4088 3500 
L 3484 1697 
L 3569 1219 
Q 3659 703 3872 703 
L 4128 703 
L 4128 0 
L 3809 0 
Q 3313 0 3059 263 
Q 3003 322 2988 353 
Q 2838 163 2689 39 
Q 2541 -84 1763 -78 
Q 988 -72 648 400 
Q 309 872 309 1794 
Q 309 2713 663 3088 
Q 1109 3569 1966 3578 
Q 2688 3588 3006 3163 
z
M 2575 1841 
L 2481 2350 
Q 2394 2825 1981 2828 
Q 1772 2828 1598 2558 
Q 1425 2288 1425 1741 
Q 1425 1191 1581 944 
Q 1738 697 1969 691 
Q 2213 684 2363 1163 
L 2575 1841 
z
" transform="scale(0.015625)"/>
      <path id="DejaVuSans-Bold-79" d="M 78 3500 
L 1197 3500 
L 2138 1125 
L 2938 3500 
L 4056 3500 
L 2584 -331 
Q 2363 -916 2067 -1148 
Q 1772 -1381 1288 -1381 
L 641 -1381 
L 641 -647 
L 991 -647 
Q 1275 -647 1404 -556 
Q 1534 -466 1606 -231 
L 1638 -134 
L 78 3500 
z
" transform="scale(0.015625)"/>
      <path id="DejaVuSans-Bold-2b" d="M 3053 4013 
L 3053 2375 
L 4684 2375 
L 4684 1638 
L 3053 1638 
L 3053 0 
L 2309 0 
L 2309 1638 
L 678 1638 
L 678 2375 
L 2309 2375 
L 2309 4013 
L 3053 4013 
z
" transform="scale(0.015625)"/>
     </defs>
     <use xlink:href="#DejaVuSans-Bold-47"/>
     <use xlink:href="#DejaVuSans-Bold-6f" transform="translate(82.080078 0)"/>
     <use xlink:href="#DejaVuSans-Bold-61" transform="translate(150.78125 0)"/>
     <use xlink:href="#DejaVuSans-Bold-6c" transform="translate(218.261719 0)"/>
     <use xlink:href="#DejaVuSans-Bold-3a" transform="translate(252.539062 0)"/>
     <use xlink:href="#DejaVuSans-Bold-20" transform="translate(292.529297 0)"/>
     <use xlink:href="#DejaVuSans-Bold-75" transform="translate(327.34375 0)"/>
     <use xlink:href="#DejaVuSans-Bold-6e" transform="translate(398.535156 0)"/>
     <use xlink:href="#DejaVuSans-Bold-62" transform="translate(469.726562 0)"/>
     <use xlink:href="#DejaVuSans-Bold-69" transform="translate(541.308594 0)"/>
     <use xlink:href="#DejaVuSans-Bold-61" transform="translate(575.585938 0)"/>
     <use xlink:href="#DejaVuSans-Bold-73" transform="translate(643.066406 0)"/>
     <use xlink:href="#DejaVuSans-Bold-65" transform="translate(702.587891 0)"/>
     <use xlink:href="#DejaVuSans-Bold-64" transform="translate(770.410156 0)"/>
     <use xlink:href="#DejaVuSans-Bold-20" transform="translate(841.992188 0)"/>
     <use xlink:href="#DejaVuSans-Bold-63" transform="translate(876.806641 0)"/>
     <use xlink:href="#DejaVuSans-Bold-75" transform="translate(936.083984 0)"/>
     <use xlink:href="#DejaVuSans-Bold-72" transform="translate(1007.275391 0)"/>
     <use xlink:href="#DejaVuSans-Bold-76" transform="translate(1056.591797 0)"/>
     <use xlink:href="#DejaVuSans-Bold-61" transform="translate(1121.777344 0)"/>
     <use xlink:href="#DejaVuSans-Bold-74" transform="translate(1189.257812 0)"/>
     <use xlink:href="#DejaVuSans-Bold-75" transform="translate(1237.060547 0)"/>
     <use xlink:href="#DejaVuSans-Bold-72" transform="translate(1308.251953 0)"/>
     <use xlink:href="#DejaVuSans-Bold-65" transform="translate(1357.568359 0)"/>
     <use xlink:href="#DejaVuSans-Bold-20" transform="translate(1425.390625 0)"/>
     <use xlink:href="#DejaVuSans-Bold-6e" transform="translate(1460.205078 0)"/>
     <use xlink:href="#DejaVuSans-Bold-75" transform="translate(1531.396484 0)"/>
     <use xlink:href="#DejaVuSans-Bold-6d" transform="translate(1602.587891 0)"/>
     <use xlink:href="#DejaVuSans-Bold-62" transform="translate(1706.787109 0)"/>
     <use xlink:href="#DejaVuSans-Bold-65" transform="translate(1778.369141 0)"/>
     <use xlink:href="#DejaVuSans-Bold-72" transform="translate(1846.191406 0)"/>
     <use xlink:href="#DejaVuSans-Bold-20" transform="translate(1895.507812 0)"/>
     <use xlink:href="#DejaVuSans-Bold-3b1" transform="translate(1930.322266 0)"/>
     <use xlink:href="#DejaVuSans-Bold-20" transform="translate(1999.023438 0)"/>
     <use xlink:href="#DejaVuSans-Bold-77" transform="translate(2033.837891 0)"/>
     <use xlink:href="#DejaVuSans-Bold-69" transform="translate(2126.220703 0)"/>
     <use xlink:href="#DejaVuSans-Bold-74" transform="translate(2160.498047 0)"/>
     <use xlink:href="#DejaVuSans-Bold-68" transform="translate(2208.300781 0)"/>
     <use xlink:href="#DejaVuSans-Bold-20" transform="translate(2279.492188 0)"/>
     <use xlink:href="#DejaVuSans-Bold-75" transform="translate(2314.306641 0)"/>
     <use xlink:href="#DejaVuSans-Bold-6e" transform="translate(2385.498047 0)"/>
     <use xlink:href="#DejaVuSans-Bold-63" transform="translate(2456.689453 0)"/>
     <use xlink:href="#DejaVuSans-Bold-65" transform="translate(2515.966797 0)"/>
     <use xlink:href="#DejaVuSans-Bold-72" transform="translate(2583.789062 0)"/>
     <use xlink:href="#DejaVuSans-Bold-74" transform="translate(2633.105469 0)"/>
     <use xlink:href="#DejaVuSans-Bold-61" transform="translate(2680.908203 0)"/>
     <use xlink:href="#DejaVuSans-Bold-69" transform="translate(2748.388672 0)"/>
     <use xlink:href="#DejaVuSans-Bold-6e" transform="translate(2782.666016 0)"/>
     <use xlink:href="#DejaVuSans-Bold-74" transform="translate(2853.857422 0)"/>
     <use xlink:href="#DejaVuSans-Bold-79" transform="translate(2901.660156 0)"/>
     <use xlink:href="#DejaVuSans-Bold-20" transform="translate(2966.845703 0)"/>
     <use xlink:href="#DejaVuSans-Bold-20" transform="translate(3001.660156 0)"/>
     <use xlink:href="#DejaVuSans-Bold-2b" transform="translate(3036.474609 0)"/>
     <use xlink:href="#DejaVuSans-Bold-20" transform="translate(3120.263672 0)"/>
     <use xlink:href="#DejaVuSans-Bold-20" transform="translate(3155.078125 0)"/>
     <use xlink:href="#DejaVuSans-Bold-61" transform="translate(3189.892578 0)"/>
     <use xlink:href="#DejaVuSans-Bold-20" transform="translate(3257.373047 0)"/>
     <use xlink:href="#DejaVuSans-Bold-72" transform="translate(3292.1875 0)"/>
     <use xlink:href="#DejaVuSans-Bold-65" transform="translate(3341.503906 0)"/>
     <use xlink:href="#DejaVuSans-Bold-75" transform="translate(3409.326172 0)"/>
     <use xlink:href="#DejaVuSans-Bold-73" transform="translate(3480.517578 0)"/>
     <use xlink:href="#DejaVuSans-Bold-61" transform="translate(3540.039062 0)"/>
     <use xlink:href="#DejaVuSans-Bold-62" transform="translate(3607.519531 0)"/>
     <use xlink:href="#DejaVuSans-Bold-6c" transform="translate(3679.101562 0)"/>
     <use xlink:href="#DejaVuSans-Bold-65" transform="translate(3713.378906 0)"/>
     <use xlink:href="#DejaVuSans-Bold-20" transform="translate(3781.201172 0)"/>
     <use xlink:href="#DejaVuSans-Bold-72" transform="translate(3816.015625 0)"/>
     <use xlink:href="#DejaVuSans-Bold-65" transform="translate(3865.332031 0)"/>
     <use xlink:href="#DejaVuSans-Bold-63" transform="translate(3933.154297 0)"/>
     <use xlink:href="#DejaVuSans-Bold-69" transform="translate(3992.431641 0)"/>
     <use xlink:href="#DejaVuSans-Bold-70" transform="translate(4026.708984 0)"/>
     <use xlink:href="#DejaVuSans-Bold-65" transform="translate(4098.291016 0)"/>
     <use xlink:href="#DejaVuSans-Bold-20" transform="translate(4166.113281 0)"/>
     <use xlink:href="#DejaVuSans-Bold-61" transform="translate(4200.927734 0)"/>
     <use xlink:href="#DejaVuSans-Bold-6e" transform="translate(4268.408203 0)"/>
     <use xlink:href="#DejaVuSans-Bold-79" transform="translate(4339.599609 0)"/>
     <use xlink:href="#DejaVuSans-Bold-20" transform="translate(4404.785156 0)"/>
     <use xlink:href="#DejaVuSans-Bold-6c" transform="translate(4439.599609 0)"/>
     <use xlink:href="#DejaVuSans-Bold-61" transform="translate(4473.876953 0)"/>
     <use xlink:href="#DejaVuSans-Bold-62" transform="translate(4541.357422 0)"/>
     <use xlink:href="#DejaVuSans-Bold-20" transform="translate(4612.939453 0)"/>
     <use xlink:href="#DejaVuSans-Bold-63" transform="translate(4647.753906 0)"/>
     <use xlink:href="#DejaVuSans-Bold-61" transform="translate(4707.03125 0)"/>
     <use xlink:href="#DejaVuSans-Bold-6e" transform="translate(4774.511719 0)"/>
     <use xlink:href="#DejaVuSans-Bold-20" transform="translate(4845.703125 0)"/>
     <use xlink:href="#DejaVuSans-Bold-61" transform="translate(4880.517578 0)"/>
     <use xlink:href="#DejaVuSans-Bold-70" transform="translate(4947.998047 0)"/>
     <use xlink:href="#DejaVuSans-Bold-70" transform="translate(5019.580078 0)"/>
     <use xlink:href="#DejaVuSans-Bold-6c" transform="translate(5091.162109 0)"/>
     <use xlink:href="#DejaVuSans-Bold-79" transform="translate(5125.439453 0)"/>
    </g>
   </g>
  </g>
 </g>
 <defs>
  <clipPath id="p782ffdccc7">
   <rect x="7.2" y="7.2" width="1116" height="460.8"/>
  </clipPath>
 </defs>
</svg>
