<?xml version="1.0" encoding="utf-8" standalone="no"?>
<!DOCTYPE svg PUBLIC "-//W3C//DTD SVG 1.1//EN"
  "http://www.w3.org/Graphics/SVG/1.1/DTD/svg11.dtd">
<svg xmlns:xlink="http://www.w3.org/1999/xlink" width="1166.4pt" height="374.4pt" viewBox="0 0 1166.4 374.4" xmlns="http://www.w3.org/2000/svg" version="1.1">
 <metadata>
  <rdf:RDF xmlns:dc="http://purl.org/dc/elements/1.1/" xmlns:cc="http://creativecommons.org/ns#" xmlns:rdf="http://www.w3.org/1999/02/22-rdf-syntax-ns#">
   <cc:Work>
    <dc:type rdf:resource="http://purl.org/dc/dcmitype/StillImage"/>
    <dc:date>2026-06-12T14:05:56.333332</dc:date>
    <dc:format>image/svg+xml</dc:format>
    <dc:creator>
     <cc:Agent>
      <dc:title>Matplotlib v3.10.9, https://matplotlib.org/</dc:title>
     </cc:Agent>
    </dc:creator>
   </cc:Work>
  </rdf:RDF>
 </metadata>
 <defs>
  <style type="text/css">*{stroke-linejoin: round; stroke-linecap: butt}</style>
 </defs>
 <g id="figure_1">
  <g id="patch_1">
   <path d="M 0 374.4 
L 1166.4 374.4 
L 1166.4 -0 
L 0 -0 
L 0 374.4 
z
" style="fill: none"/>
  </g>
  <g id="axes_1">
   <g id="patch_2">
    <path d="M 43.2 216 
L 172.8 216 
L 172.8 86.4 
L 43.2 86.4 
z
" clip-path="url(#p9a67b9f6c7)" style="fill: #0d0018; stroke: #222222; stroke-width: 2; stroke-linejoin: miter"/>
   </g>
   <g id="patch_3">
    <path d="M 121.690448 111.328922 
C 122.645179 111.328922 123.560935 110.949603 124.236032 110.274506 
C 124.911129 109.599409 125.290448 108.683653 125.290448 107.728922 
C 125.290448 106.77419 124.911129 105.858434 124.236032 105.183337 
C 123.560935 104.50824 122.645179 104.128922 121.690448 104.128922 
C 120.735717 104.128922 119.81996 104.50824 119.144863 105.183337 
C 118.469767 105.858434 118.090448 106.77419 118.090448 107.728922 
C 118.090448 108.683653 118.469767 109.599409 119.144863 110.274506 
C 119.81996 110.949603 120.735717 111.328922 121.690448 111.328922 
z
" clip-path="url(#p9a67b9f6c7)" style="fill: #009e73; opacity: 0.95"/>
   </g>
   <g id="patch_4">
    <path d="M 77.926675 176.669802 
C 78.881406 176.669802 79.797162 176.290483 80.472259 175.615386 
C 81.147356 174.940289 81.526675 174.024533 81.526675 173.069802 
C 81.526675 172.115071 81.147356 171.199314 80.472259 170.524217 
C 79.797162 169.84912 78.881406 169.469802 77.926675 169.469802 
C 76.971944 169.469802 76.056187 169.84912 75.38109 170.524217 
C 74.705994 171.199314 74.326675 172.115071 74.326675 173.069802 
C 74.326675 174.024533 74.705994 174.940289 75.38109 175.615386 
C 76.056187 176.290483 76.971944 176.669802 77.926675 176.669802 
z
" clip-path="url(#p9a67b9f6c7)" style="fill: #009e73; opacity: 0.95"/>
   </g>
   <g id="patch_5">
    <path d="M 53.856235 119.644762 
C 54.810966 119.644762 55.726722 119.265443 56.401819 118.590346 
C 57.076916 117.915249 57.456235 116.999493 57.456235 116.044762 
C 57.456235 115.090031 57.076916 114.174274 56.401819 113.499177 
C 55.726722 112.824081 54.810966 112.444762 53.856235 112.444762 
C 52.901504 112.444762 51.985747 112.824081 51.310651 113.499177 
C 50.635554 114.174274 50.256235 115.090031 50.256235 116.044762 
C 50.256235 116.999493 50.635554 117.915249 51.310651 118.590346 
C 51.985747 119.265443 52.901504 119.644762 53.856235 119.644762 
z
" clip-path="url(#p9a67b9f6c7)" style="fill: #009e73; opacity: 0.95"/>
   </g>
   <g id="patch_6">
    <path d="M 104.490801 176.356131 
C 105.445532 176.356131 106.361289 175.976812 107.036386 175.301716 
C 107.711483 174.626619 108.090801 173.710862 108.090801 172.756131 
C 108.090801 171.8014 107.711483 170.885644 107.036386 170.210547 
C 106.361289 169.53545 105.445532 169.156131 104.490801 169.156131 
C 103.53607 169.156131 102.620314 169.53545 101.945217 170.210547 
C 101.27012 170.885644 100.890801 171.8014 100.890801 172.756131 
C 100.890801 173.710862 101.27012 174.626619 101.945217 175.301716 
C 102.620314 175.976812 103.53607 176.356131 104.490801 176.356131 
z
" clip-path="url(#p9a67b9f6c7)" style="fill: #0072b2; opacity: 0.95"/>
   </g>
   <g id="patch_7">
    <path d="M 81.172928 160.810849 
C 82.127659 160.810849 83.043415 160.43153 83.718512 159.756433 
C 84.393609 159.081337 84.772928 158.16558 84.772928 157.210849 
C 84.772928 156.256118 84.393609 155.340362 83.718512 154.665265 
C 83.043415 153.990168 82.127659 153.610849 81.172928 153.610849 
C 80.218197 153.610849 79.30244 153.990168 78.627343 154.665265 
C 77.952246 155.340362 77.572928 156.256118 77.572928 157.210849 
C 77.572928 158.16558 77.952246 159.081337 78.627343 159.756433 
C 79.30244 160.43153 80.218197 160.810849 81.172928 160.810849 
z
" clip-path="url(#p9a67b9f6c7)" style="fill: #009e73; opacity: 0.95"/>
   </g>
   <g id="patch_8">
    <path d="M 113.85475 100.572449 
C 114.809481 100.572449 115.725238 100.19313 116.400335 99.518033 
C 117.075432 98.842937 117.45475 97.92718 117.45475 96.972449 
C 117.45475 96.017718 117.075432 95.101961 116.400335 94.426865 
C 115.725238 93.751768 114.809481 93.372449 113.85475 93.372449 
C 112.900019 93.372449 111.984263 93.751768 111.309166 94.426865 
C 110.634069 95.101961 110.25475 96.017718 110.25475 96.972449 
C 110.25475 97.92718 110.634069 98.842937 111.309166 99.518033 
C 111.984263 100.19313 112.900019 100.572449 113.85475 100.572449 
z
" clip-path="url(#p9a67b9f6c7)" style="fill: #009e73; opacity: 0.95"/>
   </g>
   <g id="patch_9">
    <path d="M 121.371295 101.288201 
C 122.326026 101.288201 123.241782 100.908883 123.916879 100.233786 
C 124.591976 99.558689 124.971295 98.642933 124.971295 97.688201 
C 124.971295 96.73347 124.591976 95.817714 123.916879 95.142617 
C 123.241782 94.46752 122.326026 94.088201 121.371295 94.088201 
C 120.416564 94.088201 119.500807 94.46752 118.82571 95.142617 
C 118.150614 95.817714 117.771295 96.73347 117.771295 97.688201 
C 117.771295 98.642933 118.150614 99.558689 118.82571 100.233786 
C 119.500807 100.908883 120.416564 101.288201 121.371295 101.288201 
z
" clip-path="url(#p9a67b9f6c7)" style="fill: #0072b2; opacity: 0.95"/>
   </g>
   <g id="patch_10">
    <path d="M 70.813605 142.483666 
C 71.768336 142.483666 72.684093 142.104347 73.359189 141.42925 
C 74.034286 140.754153 74.413605 139.838397 74.413605 138.883666 
C 74.413605 137.928935 74.034286 137.013178 73.359189 136.338081 
C 72.684093 135.662984 71.768336 135.283666 70.813605 135.283666 
C 69.858874 135.283666 68.943117 135.662984 68.268021 136.338081 
C 67.592924 137.013178 67.213605 137.928935 67.213605 138.883666 
C 67.213605 139.838397 67.592924 140.754153 68.268021 141.42925 
C 68.943117 142.104347 69.858874 142.483666 70.813605 142.483666 
z
" clip-path="url(#p9a67b9f6c7)" style="fill: #0072b2; opacity: 0.95"/>
   </g>
   <g id="patch_11">
    <path d="M 57.18485 153.170568 
C 58.139581 153.170568 59.055337 152.791249 59.730434 152.116152 
C 60.405531 151.441055 60.78485 150.525299 60.78485 149.570568 
C 60.78485 148.615836 60.405531 147.70008 59.730434 147.024983 
C 59.055337 146.349886 58.139581 145.970568 57.18485 145.970568 
C 56.230119 145.970568 55.314362 146.349886 54.639265 147.024983 
C 53.964168 147.70008 53.58485 148.615836 53.58485 149.570568 
C 53.58485 150.525299 53.964168 151.441055 54.639265 152.116152 
C 55.314362 152.791249 56.230119 153.170568 57.18485 153.170568 
z
" clip-path="url(#p9a67b9f6c7)" style="fill: #0072b2; opacity: 0.95"/>
   </g>
   <g id="patch_12">
    <path d="M 153.654841 140.657479 
C 154.609572 140.657479 155.525329 140.27816 156.200426 139.603063 
C 156.875522 138.927966 157.254841 138.01221 157.254841 137.057479 
C 157.254841 136.102748 156.875522 135.186991 156.200426 134.511894 
C 155.525329 133.836797 154.609572 133.457479 153.654841 133.457479 
C 152.70011 133.457479 151.784354 133.836797 151.109257 134.511894 
C 150.43416 135.186991 150.054841 136.102748 150.054841 137.057479 
C 150.054841 138.01221 150.43416 138.927966 151.109257 139.603063 
C 151.784354 140.27816 152.70011 140.657479 153.654841 140.657479 
z
" clip-path="url(#p9a67b9f6c7)" style="fill: #009e73; opacity: 0.95"/>
   </g>
   <g id="patch_13">
    <path d="M 107.657829 182.431967 
C 108.61256 182.431967 109.528316 182.052648 110.203413 181.377551 
C 110.87851 180.702454 111.257829 179.786698 111.257829 178.831967 
C 111.257829 177.877236 110.87851 176.961479 110.203413 176.286383 
C 109.528316 175.611286 108.61256 175.231967 107.657829 175.231967 
C 106.703098 175.231967 105.787341 175.611286 105.112244 176.286383 
C 104.437147 176.961479 104.057829 177.877236 104.057829 178.831967 
C 104.057829 179.786698 104.437147 180.702454 105.112244 181.377551 
C 105.787341 182.052648 106.703098 182.431967 107.657829 182.431967 
z
" clip-path="url(#p9a67b9f6c7)" style="fill: #0072b2; opacity: 0.95"/>
   </g>
   <g id="patch_14">
    <path d="M 74.336491 133.784005 
C 75.291222 133.784005 76.206978 133.404686 76.882075 132.729589 
C 77.557172 132.054492 77.936491 131.138736 77.936491 130.184005 
C 77.936491 129.229274 77.557172 128.313517 76.882075 127.63842 
C 76.206978 126.963323 75.291222 126.584005 74.336491 126.584005 
C 73.381759 126.584005 72.466003 126.963323 71.790906 127.63842 
C 71.115809 128.313517 70.736491 129.229274 70.736491 130.184005 
C 70.736491 131.138736 71.115809 132.054492 71.790906 132.729589 
C 72.466003 133.404686 73.381759 133.784005 74.336491 133.784005 
z
" clip-path="url(#p9a67b9f6c7)" style="fill: #0072b2; opacity: 0.95"/>
   </g>
   <g id="patch_15">
    <path d="M 93.722054 209.111325 
C 94.676785 209.111325 95.592541 208.732006 96.267638 208.056909 
C 96.942735 207.381812 97.322054 206.466056 97.322054 205.511325 
C 97.322054 204.556593 96.942735 203.640837 96.267638 202.96574 
C 95.592541 202.290643 94.676785 201.911325 93.722054 201.911325 
C 92.767323 201.911325 91.851566 202.290643 91.176469 202.96574 
C 90.501373 203.640837 90.122054 204.556593 90.122054 205.511325 
C 90.122054 206.466056 90.501373 207.381812 91.176469 208.056909 
C 91.851566 208.732006 92.767323 209.111325 93.722054 209.111325 
z
" clip-path="url(#p9a67b9f6c7)" style="fill: #009e73; opacity: 0.95"/>
   </g>
   <g id="patch_16">
    <path d="M 70.184221 180.233932 
C 71.138952 180.233932 72.054708 179.854613 72.729805 179.179517 
C 73.404902 178.50442 73.784221 177.588663 73.784221 176.633932 
C 73.784221 175.679201 73.404902 174.763445 72.729805 174.088348 
C 72.054708 173.413251 71.138952 173.033932 70.184221 173.033932 
C 69.22949 173.033932 68.313733 173.413251 67.638636 174.088348 
C 66.963539 174.763445 66.584221 175.679201 66.584221 176.633932 
C 66.584221 177.588663 66.963539 178.50442 67.638636 179.179517 
C 68.313733 179.854613 69.22949 180.233932 70.184221 180.233932 
z
" clip-path="url(#p9a67b9f6c7)" style="fill: #009e73; opacity: 0.95"/>
   </g>
   <g id="patch_17">
    <path d="M 109.071506 116.807877 
C 110.026237 116.807877 110.941994 116.428558 111.617091 115.753461 
C 112.292188 115.078365 112.671506 114.162608 112.671506 113.207877 
C 112.671506 112.253146 112.292188 111.33739 111.617091 110.662293 
C 110.941994 109.987196 110.026237 109.607877 109.071506 109.607877 
C 108.116775 109.607877 107.201019 109.987196 106.525922 110.662293 
C 105.850825 111.33739 105.471506 112.253146 105.471506 113.207877 
C 105.471506 114.162608 105.850825 115.078365 106.525922 115.753461 
C 107.201019 116.428558 108.116775 116.807877 109.071506 116.807877 
z
" clip-path="url(#p9a67b9f6c7)" style="fill: #009e73; opacity: 0.95"/>
   </g>
   <g id="patch_18">
    <path d="M 134.459412 199.506721 
C 135.414144 199.506721 136.3299 199.127402 137.004997 198.452305 
C 137.680094 197.777209 138.059412 196.861452 138.059412 195.906721 
C 138.059412 194.95199 137.680094 194.036233 137.004997 193.361137 
C 136.3299 192.68604 135.414144 192.306721 134.459412 192.306721 
C 133.504681 192.306721 132.588925 192.68604 131.913828 193.361137 
C 131.238731 194.036233 130.859412 194.95199 130.859412 195.906721 
C 130.859412 196.861452 131.238731 197.777209 131.913828 198.452305 
C 132.588925 199.127402 133.504681 199.506721 134.459412 199.506721 
z
" clip-path="url(#p9a67b9f6c7)" style="fill: #009e73; opacity: 0.95"/>
   </g>
   <g id="patch_19">
    <path d="M 108.850594 114.160619 
C 109.805325 114.160619 110.721081 113.7813 111.396178 113.106203 
C 112.071275 112.431106 112.450594 111.51535 112.450594 110.560619 
C 112.450594 109.605887 112.071275 108.690131 111.396178 108.015034 
C 110.721081 107.339937 109.805325 106.960619 108.850594 106.960619 
C 107.895862 106.960619 106.980106 107.339937 106.305009 108.015034 
C 105.629912 108.690131 105.250594 109.605887 105.250594 110.560619 
C 105.250594 111.51535 105.629912 112.431106 106.305009 113.106203 
C 106.980106 113.7813 107.895862 114.160619 108.850594 114.160619 
z
" clip-path="url(#p9a67b9f6c7)" style="fill: #0072b2; opacity: 0.95"/>
   </g>
   <g id="patch_20">
    <path d="M 118.745264 203.0355 
C 119.699995 203.0355 120.615752 202.656182 121.290849 201.981085 
C 121.965946 201.305988 122.345264 200.390231 122.345264 199.4355 
C 122.345264 198.480769 121.965946 197.565013 121.290849 196.889916 
C 120.615752 196.214819 119.699995 195.8355 118.745264 195.8355 
C 117.790533 195.8355 116.874777 196.214819 116.19968 196.889916 
C 115.524583 197.565013 115.145264 198.480769 115.145264 199.4355 
C 115.145264 200.390231 115.524583 201.305988 116.19968 201.981085 
C 116.874777 202.656182 117.790533 203.0355 118.745264 203.0355 
z
" clip-path="url(#p9a67b9f6c7)" style="fill: #0072b2; opacity: 0.95"/>
   </g>
   <g id="patch_21">
    <path d="M 88.633098 193.082142 
C 89.587829 193.082142 90.503585 192.702823 91.178682 192.027726 
C 91.853779 191.352629 92.233098 190.436873 92.233098 189.482142 
C 92.233098 188.52741 91.853779 187.611654 91.178682 186.936557 
C 90.503585 186.26146 89.587829 185.882142 88.633098 185.882142 
C 87.678367 185.882142 86.76261 186.26146 86.087513 186.936557 
C 85.412416 187.611654 85.033098 188.52741 85.033098 189.482142 
C 85.033098 190.436873 85.412416 191.352629 86.087513 192.027726 
C 86.76261 192.702823 87.678367 193.082142 88.633098 193.082142 
z
" clip-path="url(#p9a67b9f6c7)" style="fill: #009e73; opacity: 0.95"/>
   </g>
   <g id="patch_22">
    <path d="M 94.806589 102.405832 
C 95.76132 102.405832 96.677077 102.026513 97.352173 101.351416 
C 98.02727 100.676319 98.406589 99.760563 98.406589 98.805832 
C 98.406589 97.8511 98.02727 96.935344 97.352173 96.260247 
C 96.677077 95.58515 95.76132 95.205832 94.806589 95.205832 
C 93.851858 95.205832 92.936101 95.58515 92.261005 96.260247 
C 91.585908 96.935344 91.206589 97.8511 91.206589 98.805832 
C 91.206589 99.760563 91.585908 100.676319 92.261005 101.351416 
C 92.936101 102.026513 93.851858 102.405832 94.806589 102.405832 
z
" clip-path="url(#p9a67b9f6c7)" style="fill: #009e73; opacity: 0.95"/>
   </g>
   <g id="patch_23">
    <path d="M 119.497356 139.697654 
C 120.452088 139.697654 121.367844 139.318335 122.042941 138.643239 
C 122.718038 137.968142 123.097356 137.052385 123.097356 136.097654 
C 123.097356 135.142923 122.718038 134.227167 122.042941 133.55207 
C 121.367844 132.876973 120.452088 132.497654 119.497356 132.497654 
C 118.542625 132.497654 117.626869 132.876973 116.951772 133.55207 
C 116.276675 134.227167 115.897356 135.142923 115.897356 136.097654 
C 115.897356 137.052385 116.276675 137.968142 116.951772 138.643239 
C 117.626869 139.318335 118.542625 139.697654 119.497356 139.697654 
z
" clip-path="url(#p9a67b9f6c7)" style="fill: #009e73; opacity: 0.95"/>
   </g>
   <g id="patch_24">
    <path d="M 69.782241 161.332094 
C 70.736972 161.332094 71.652728 160.952775 72.327825 160.277679 
C 73.002922 159.602582 73.382241 158.686825 73.382241 157.732094 
C 73.382241 156.777363 73.002922 155.861607 72.327825 155.18651 
C 71.652728 154.511413 70.736972 154.132094 69.782241 154.132094 
C 68.82751 154.132094 67.911753 154.511413 67.236656 155.18651 
C 66.56156 155.861607 66.182241 156.777363 66.182241 157.732094 
C 66.182241 158.686825 66.56156 159.602582 67.236656 160.277679 
C 67.911753 160.952775 68.82751 161.332094 69.782241 161.332094 
z
" clip-path="url(#p9a67b9f6c7)" style="fill: #0072b2; opacity: 0.95"/>
   </g>
   <g id="patch_25">
    <path d="M 97.329414 198.936704 
C 98.284145 198.936704 99.199901 198.557385 99.874998 197.882288 
C 100.550095 197.207191 100.929414 196.291435 100.929414 195.336704 
C 100.929414 194.381973 100.550095 193.466216 99.874998 192.79112 
C 99.199901 192.116023 98.284145 191.736704 97.329414 191.736704 
C 96.374683 191.736704 95.458926 192.116023 94.783829 192.79112 
C 94.108732 193.466216 93.729414 194.381973 93.729414 195.336704 
C 93.729414 196.291435 94.108732 197.207191 94.783829 197.882288 
C 95.458926 198.557385 96.374683 198.936704 97.329414 198.936704 
z
" clip-path="url(#p9a67b9f6c7)" style="fill: #009e73; opacity: 0.95"/>
   </g>
   <g id="patch_26">
    <path d="M 76.810042 136.002021 
C 77.764773 136.002021 78.680529 135.622702 79.355626 134.947605 
C 80.030723 134.272508 80.410042 133.356752 80.410042 132.402021 
C 80.410042 131.447289 80.030723 130.531533 79.355626 129.856436 
C 78.680529 129.181339 77.764773 128.802021 76.810042 128.802021 
C 75.855311 128.802021 74.939554 129.181339 74.264457 129.856436 
C 73.589361 130.531533 73.210042 131.447289 73.210042 132.402021 
C 73.210042 133.356752 73.589361 134.272508 74.264457 134.947605 
C 74.939554 135.622702 75.855311 136.002021 76.810042 136.002021 
z
" clip-path="url(#p9a67b9f6c7)" style="fill: #0072b2; opacity: 0.95"/>
   </g>
   <g id="patch_27">
    <path d="M 148.93899 137.047219 
C 149.893721 137.047219 150.809477 136.6679 151.484574 135.992803 
C 152.159671 135.317707 152.53899 134.40195 152.53899 133.447219 
C 152.53899 132.492488 152.159671 131.576732 151.484574 130.901635 
C 150.809477 130.226538 149.893721 129.847219 148.93899 129.847219 
C 147.984259 129.847219 147.068502 130.226538 146.393405 130.901635 
C 145.718308 131.576732 145.33899 132.492488 145.33899 133.447219 
C 145.33899 134.40195 145.718308 135.317707 146.393405 135.992803 
C 147.068502 136.6679 147.984259 137.047219 148.93899 137.047219 
z
" clip-path="url(#p9a67b9f6c7)" style="fill: #0072b2; opacity: 0.95"/>
   </g>
   <g id="patch_28">
    <path d="M 145.764934 106.104872 
C 146.719665 106.104872 147.635421 105.725553 148.310518 105.050457 
C 148.985615 104.37536 149.364934 103.459603 149.364934 102.504872 
C 149.364934 101.550141 148.985615 100.634385 148.310518 99.959288 
C 147.635421 99.284191 146.719665 98.904872 145.764934 98.904872 
C 144.810203 98.904872 143.894446 99.284191 143.219349 99.959288 
C 142.544252 100.634385 142.164934 101.550141 142.164934 102.504872 
C 142.164934 103.459603 142.544252 104.37536 143.219349 105.050457 
C 143.894446 105.725553 144.810203 106.104872 145.764934 106.104872 
z
" clip-path="url(#p9a67b9f6c7)" style="fill: #009e73; opacity: 0.95"/>
   </g>
   <g id="patch_29">
    <path d="M 115.630064 193.600863 
C 116.584795 193.600863 117.500551 193.221544 118.175648 192.546447 
C 118.850745 191.87135 119.230064 190.955594 119.230064 190.000863 
C 119.230064 189.046132 118.850745 188.130375 118.175648 187.455278 
C 117.500551 186.780181 116.584795 186.400863 115.630064 186.400863 
C 114.675332 186.400863 113.759576 186.780181 113.084479 187.455278 
C 112.409382 188.130375 112.030064 189.046132 112.030064 190.000863 
C 112.030064 190.955594 112.409382 191.87135 113.084479 192.546447 
C 113.759576 193.221544 114.675332 193.600863 115.630064 193.600863 
z
" clip-path="url(#p9a67b9f6c7)" style="fill: #0072b2; opacity: 0.95"/>
   </g>
   <g id="patch_30">
    <path d="M 154.829998 149.073389 
C 155.784729 149.073389 156.700486 148.69407 157.375583 148.018974 
C 158.050679 147.343877 158.429998 146.42812 158.429998 145.473389 
C 158.429998 144.518658 158.050679 143.602902 157.375583 142.927805 
C 156.700486 142.252708 155.784729 141.873389 154.829998 141.873389 
C 153.875267 141.873389 152.959511 142.252708 152.284414 142.927805 
C 151.609317 143.602902 151.229998 144.518658 151.229998 145.473389 
C 151.229998 146.42812 151.609317 147.343877 152.284414 148.018974 
C 152.959511 148.69407 153.875267 149.073389 154.829998 149.073389 
z
" clip-path="url(#p9a67b9f6c7)" style="fill: #0072b2; opacity: 0.95"/>
   </g>
   <g id="patch_31">
    <path d="M 150.031187 139.306393 
C 150.985918 139.306393 151.901674 138.927074 152.576771 138.251977 
C 153.251868 137.57688 153.631187 136.661124 153.631187 135.706393 
C 153.631187 134.751661 153.251868 133.835905 152.576771 133.160808 
C 151.901674 132.485711 150.985918 132.106393 150.031187 132.106393 
C 149.076455 132.106393 148.160699 132.485711 147.485602 133.160808 
C 146.810505 133.835905 146.431187 134.751661 146.431187 135.706393 
C 146.431187 136.661124 146.810505 137.57688 147.485602 138.251977 
C 148.160699 138.927074 149.076455 139.306393 150.031187 139.306393 
z
" clip-path="url(#p9a67b9f6c7)" style="fill: #009e73; opacity: 0.95"/>
   </g>
   <g id="patch_32">
    <path d="M 94.460941 164.545054 
C 95.415672 164.545054 96.331428 164.165735 97.006525 163.490638 
C 97.681622 162.815541 98.060941 161.899785 98.060941 160.945054 
C 98.060941 159.990323 97.681622 159.074566 97.006525 158.39947 
C 96.331428 157.724373 95.415672 157.345054 94.460941 157.345054 
C 93.50621 157.345054 92.590453 157.724373 91.915356 158.39947 
C 91.240259 159.074566 90.860941 159.990323 90.860941 160.945054 
C 90.860941 161.899785 91.240259 162.815541 91.915356 163.490638 
C 92.590453 164.165735 93.50621 164.545054 94.460941 164.545054 
z
" clip-path="url(#p9a67b9f6c7)" style="fill: #0072b2; opacity: 0.95"/>
   </g>
   <g id="patch_33">
    <path d="M 57.444989 113.626614 
C 58.399721 113.626614 59.315477 113.247295 59.990574 112.572198 
C 60.665671 111.897101 61.044989 110.981345 61.044989 110.026614 
C 61.044989 109.071882 60.665671 108.156126 59.990574 107.481029 
C 59.315477 106.805932 58.399721 106.426614 57.444989 106.426614 
C 56.490258 106.426614 55.574502 106.805932 54.899405 107.481029 
C 54.224308 108.156126 53.844989 109.071882 53.844989 110.026614 
C 53.844989 110.981345 54.224308 111.897101 54.899405 112.572198 
C 55.574502 113.247295 56.490258 113.626614 57.444989 113.626614 
z
" clip-path="url(#p9a67b9f6c7)" style="fill: #0072b2; opacity: 0.95"/>
   </g>
   <g id="patch_34">
    <path d="M 113.213196 174.262447 
C 114.167927 174.262447 115.083684 173.883129 115.758781 173.208032 
C 116.433877 172.532935 116.813196 171.617179 116.813196 170.662447 
C 116.813196 169.707716 116.433877 168.79196 115.758781 168.116863 
C 115.083684 167.441766 114.167927 167.062447 113.213196 167.062447 
C 112.258465 167.062447 111.342709 167.441766 110.667612 168.116863 
C 109.992515 168.79196 109.613196 169.707716 109.613196 170.662447 
C 109.613196 171.617179 109.992515 172.532935 110.667612 173.208032 
C 111.342709 173.883129 112.258465 174.262447 113.213196 174.262447 
z
" clip-path="url(#p9a67b9f6c7)" style="fill: #009e73; opacity: 0.95"/>
   </g>
   <g id="patch_35">
    <path d="M 56.037546 168.788044 
C 56.992277 168.788044 57.908033 168.408725 58.58313 167.733628 
C 59.258227 167.058531 59.637546 166.142775 59.637546 165.188044 
C 59.637546 164.233313 59.258227 163.317556 58.58313 162.642459 
C 57.908033 161.967362 56.992277 161.588044 56.037546 161.588044 
C 55.082814 161.588044 54.167058 161.967362 53.491961 162.642459 
C 52.816864 163.317556 52.437546 164.233313 52.437546 165.188044 
C 52.437546 166.142775 52.816864 167.058531 53.491961 167.733628 
C 54.167058 168.408725 55.082814 168.788044 56.037546 168.788044 
z
" clip-path="url(#p9a67b9f6c7)" style="fill: #0072b2; opacity: 0.95"/>
   </g>
   <g id="patch_36">
    <path d="M 66.729312 103.675297 
C 67.684043 103.675297 68.599799 103.295978 69.274896 102.620882 
C 69.949993 101.945785 70.329312 101.030028 70.329312 100.075297 
C 70.329312 99.120566 69.949993 98.20481 69.274896 97.529713 
C 68.599799 96.854616 67.684043 96.475297 66.729312 96.475297 
C 65.774581 96.475297 64.858824 96.854616 64.183727 97.529713 
C 63.50863 98.20481 63.129312 99.120566 63.129312 100.075297 
C 63.129312 101.030028 63.50863 101.945785 64.183727 102.620882 
C 64.858824 103.295978 65.774581 103.675297 66.729312 103.675297 
z
" clip-path="url(#p9a67b9f6c7)" style="fill: #009e73; opacity: 0.95"/>
   </g>
   <g id="patch_37">
    <path d="M 100.144424 152.201883 
C 101.099155 152.201883 102.014911 151.822564 102.690008 151.147467 
C 103.365105 150.47237 103.744424 149.556614 103.744424 148.601883 
C 103.744424 147.647151 103.365105 146.731395 102.690008 146.056298 
C 102.014911 145.381201 101.099155 145.001883 100.144424 145.001883 
C 99.189693 145.001883 98.273936 145.381201 97.598839 146.056298 
C 96.923742 146.731395 96.544424 147.647151 96.544424 148.601883 
C 96.544424 149.556614 96.923742 150.47237 97.598839 151.147467 
C 98.273936 151.822564 99.189693 152.201883 100.144424 152.201883 
z
" clip-path="url(#p9a67b9f6c7)" style="fill: #009e73; opacity: 0.95"/>
   </g>
   <g id="patch_38">
    <path d="M 90.950415 144.918555 
C 91.905147 144.918555 92.820903 144.539236 93.496 143.864139 
C 94.171097 143.189042 94.550415 142.273286 94.550415 141.318555 
C 94.550415 140.363824 94.171097 139.448067 93.496 138.77297 
C 92.820903 138.097874 91.905147 137.718555 90.950415 137.718555 
C 89.995684 137.718555 89.079928 138.097874 88.404831 138.77297 
C 87.729734 139.448067 87.350415 140.363824 87.350415 141.318555 
C 87.350415 142.273286 87.729734 143.189042 88.404831 143.864139 
C 89.079928 144.539236 89.995684 144.918555 90.950415 144.918555 
z
" clip-path="url(#p9a67b9f6c7)" style="fill: #009e73; opacity: 0.95"/>
   </g>
   <g id="patch_39">
    <path d="M 92.176484 152.709862 
C 93.131215 152.709862 94.046971 152.330543 94.722068 151.655446 
C 95.397165 150.980349 95.776484 150.064593 95.776484 149.109862 
C 95.776484 148.15513 95.397165 147.239374 94.722068 146.564277 
C 94.046971 145.88918 93.131215 145.509862 92.176484 145.509862 
C 91.221753 145.509862 90.305996 145.88918 89.630899 146.564277 
C 88.955802 147.239374 88.576484 148.15513 88.576484 149.109862 
C 88.576484 150.064593 88.955802 150.980349 89.630899 151.655446 
C 90.305996 152.330543 91.221753 152.709862 92.176484 152.709862 
z
" clip-path="url(#p9a67b9f6c7)" style="fill: #009e73; opacity: 0.95"/>
   </g>
   <g id="patch_40">
    <path d="M 152.780584 192.987744 
C 153.735315 192.987744 154.651072 192.608426 155.326169 191.933329 
C 156.001265 191.258232 156.380584 190.342475 156.380584 189.387744 
C 156.380584 188.433013 156.001265 187.517257 155.326169 186.84216 
C 154.651072 186.167063 153.735315 185.787744 152.780584 185.787744 
C 151.825853 185.787744 150.910097 186.167063 150.235 186.84216 
C 149.559903 187.517257 149.180584 188.433013 149.180584 189.387744 
C 149.180584 190.342475 149.559903 191.258232 150.235 191.933329 
C 150.910097 192.608426 151.825853 192.987744 152.780584 192.987744 
z
" clip-path="url(#p9a67b9f6c7)" style="fill: #009e73; opacity: 0.95"/>
   </g>
   <g id="patch_41">
    <path d="M 53.846775 127.114142 
C 54.801506 127.114142 55.717263 126.734823 56.392359 126.059726 
C 57.067456 125.38463 57.446775 124.468873 57.446775 123.514142 
C 57.446775 122.559411 57.067456 121.643654 56.392359 120.968558 
C 55.717263 120.293461 54.801506 119.914142 53.846775 119.914142 
C 52.892044 119.914142 51.976288 120.293461 51.301191 120.968558 
C 50.626094 121.643654 50.246775 122.559411 50.246775 123.514142 
C 50.246775 124.468873 50.626094 125.38463 51.301191 126.059726 
C 51.976288 126.734823 52.892044 127.114142 53.846775 127.114142 
z
" clip-path="url(#p9a67b9f6c7)" style="fill: #009e73; opacity: 0.95"/>
   </g>
   <g id="patch_42">
    <path d="M 68.247458 163.675184 
C 69.202189 163.675184 70.117945 163.295866 70.793042 162.620769 
C 71.468139 161.945672 71.847458 161.029916 71.847458 160.075184 
C 71.847458 159.120453 71.468139 158.204697 70.793042 157.5296 
C 70.117945 156.854503 69.202189 156.475184 68.247458 156.475184 
C 67.292727 156.475184 66.37697 156.854503 65.701873 157.5296 
C 65.026777 158.204697 64.647458 159.120453 64.647458 160.075184 
C 64.647458 161.029916 65.026777 161.945672 65.701873 162.620769 
C 66.37697 163.295866 67.292727 163.675184 68.247458 163.675184 
z
" clip-path="url(#p9a67b9f6c7)" style="fill: #009e73; opacity: 0.95"/>
   </g>
   <g id="patch_43">
    <path d="M 54.841839 140.741124 
C 55.79657 140.741124 56.712327 140.361806 57.387423 139.686709 
C 58.06252 139.011612 58.441839 138.095856 58.441839 137.141124 
C 58.441839 136.186393 58.06252 135.270637 57.387423 134.59554 
C 56.712327 133.920443 55.79657 133.541124 54.841839 133.541124 
C 53.887108 133.541124 52.971351 133.920443 52.296255 134.59554 
C 51.621158 135.270637 51.241839 136.186393 51.241839 137.141124 
C 51.241839 138.095856 51.621158 139.011612 52.296255 139.686709 
C 52.971351 140.361806 53.887108 140.741124 54.841839 140.741124 
z
" clip-path="url(#p9a67b9f6c7)" style="fill: #009e73; opacity: 0.95"/>
   </g>
   <g id="patch_44">
    <path d="M 109.423112 130.083039 
C 110.377843 130.083039 111.2936 129.703721 111.968697 129.028624 
C 112.643793 128.353527 113.023112 127.437771 113.023112 126.483039 
C 113.023112 125.528308 112.643793 124.612552 111.968697 123.937455 
C 111.2936 123.262358 110.377843 122.883039 109.423112 122.883039 
C 108.468381 122.883039 107.552625 123.262358 106.877528 123.937455 
C 106.202431 124.612552 105.823112 125.528308 105.823112 126.483039 
C 105.823112 127.437771 106.202431 128.353527 106.877528 129.028624 
C 107.552625 129.703721 108.468381 130.083039 109.423112 130.083039 
z
" clip-path="url(#p9a67b9f6c7)" style="fill: #0072b2; opacity: 0.95"/>
   </g>
   <g id="patch_45">
    <path d="M 75.006154 169.779387 
C 75.960886 169.779387 76.876642 169.400068 77.551739 168.724971 
C 78.226836 168.049874 78.606154 167.134118 78.606154 166.179387 
C 78.606154 165.224655 78.226836 164.308899 77.551739 163.633802 
C 76.876642 162.958705 75.960886 162.579387 75.006154 162.579387 
C 74.051423 162.579387 73.135667 162.958705 72.46057 163.633802 
C 71.785473 164.308899 71.406154 165.224655 71.406154 166.179387 
C 71.406154 167.134118 71.785473 168.049874 72.46057 168.724971 
C 73.135667 169.400068 74.051423 169.779387 75.006154 169.779387 
z
" clip-path="url(#p9a67b9f6c7)" style="fill: #0072b2; opacity: 0.95"/>
   </g>
   <g id="patch_46">
    <path d="M 91.152964 105.757303 
C 92.107695 105.757303 93.023451 105.377984 93.698548 104.702887 
C 94.373645 104.02779 94.752964 103.112034 94.752964 102.157303 
C 94.752964 101.202572 94.373645 100.286815 93.698548 99.611718 
C 93.023451 98.936621 92.107695 98.557303 91.152964 98.557303 
C 90.198233 98.557303 89.282476 98.936621 88.607379 99.611718 
C 87.932283 100.286815 87.552964 101.202572 87.552964 102.157303 
C 87.552964 103.112034 87.932283 104.02779 88.607379 104.702887 
C 89.282476 105.377984 90.198233 105.757303 91.152964 105.757303 
z
" clip-path="url(#p9a67b9f6c7)" style="fill: #009e73; opacity: 0.95"/>
   </g>
   <g id="patch_47">
    <path d="M 90.497049 179.804346 
C 91.45178 179.804346 92.367537 179.425027 93.042634 178.74993 
C 93.717731 178.074833 94.097049 177.159077 94.097049 176.204346 
C 94.097049 175.249614 93.717731 174.333858 93.042634 173.658761 
C 92.367537 172.983664 91.45178 172.604346 90.497049 172.604346 
C 89.542318 172.604346 88.626562 172.983664 87.951465 173.658761 
C 87.276368 174.333858 86.897049 175.249614 86.897049 176.204346 
C 86.897049 177.159077 87.276368 178.074833 87.951465 178.74993 
C 88.626562 179.425027 89.542318 179.804346 90.497049 179.804346 
z
" clip-path="url(#p9a67b9f6c7)" style="fill: #009e73; opacity: 0.95"/>
   </g>
   <g id="patch_48">
    <path d="M 101.923695 102.225598 
C 102.878426 102.225598 103.794183 101.84628 104.46928 101.171183 
C 105.144377 100.496086 105.523695 99.58033 105.523695 98.625598 
C 105.523695 97.670867 105.144377 96.755111 104.46928 96.080014 
C 103.794183 95.404917 102.878426 95.025598 101.923695 95.025598 
C 100.968964 95.025598 100.053208 95.404917 99.378111 96.080014 
C 98.703014 96.755111 98.323695 97.670867 98.323695 98.625598 
C 98.323695 99.58033 98.703014 100.496086 99.378111 101.171183 
C 100.053208 101.84628 100.968964 102.225598 101.923695 102.225598 
z
" clip-path="url(#p9a67b9f6c7)" style="fill: #009e73; opacity: 0.95"/>
   </g>
   <g id="patch_49">
    <path d="M 56.16 246.6 
C 57.783043 246.6 59.339829 245.955158 60.487494 244.807494 
C 61.635158 243.659829 62.28 242.103043 62.28 240.48 
C 62.28 238.856957 61.635158 237.300171 60.487494 236.152506 
C 59.339829 235.004842 57.783043 234.36 56.16 234.36 
C 54.536957 234.36 52.980171 235.004842 51.832506 236.152506 
C 50.684842 237.300171 50.04 238.856957 50.04 240.48 
C 50.04 242.103043 50.684842 243.659829 51.832506 244.807494 
C 52.980171 245.955158 54.536957 246.6 56.16 246.6 
z
" clip-path="url(#p9a67b9f6c7)" style="fill: #0072b2"/>
   </g>
   <g id="patch_50">
    <path d="M 56.16 273.96 
C 57.783043 273.96 59.339829 273.315158 60.487494 272.167494 
C 61.635158 271.019829 62.28 269.463043 62.28 267.84 
C 62.28 266.216957 61.635158 264.660171 60.487494 263.512506 
C 59.339829 262.364842 57.783043 261.72 56.16 261.72 
C 54.536957 261.72 52.980171 262.364842 51.832506 263.512506 
C 50.684842 264.660171 50.04 266.216957 50.04 267.84 
C 50.04 269.463043 50.684842 271.019829 51.832506 272.167494 
C 52.980171 273.315158 54.536957 273.96 56.16 273.96 
z
" clip-path="url(#p9a67b9f6c7)" style="fill: #009e73"/>
   </g>
   <g id="patch_51">
    <path d="M 183.6 151.2 
Q 208.8 151.2 230.422291 151.2 
" clip-path="url(#p9a67b9f6c7)" style="fill: none; stroke: #444444; stroke-width: 3.2; stroke-linecap: round"/>
    <path d="M 221.622291 146.8 
L 230.422291 151.2 
L 221.622291 155.6 
z
" clip-path="url(#p9a67b9f6c7)" style="fill: #444444; stroke: #444444; stroke-width: 3.2; stroke-linecap: round"/>
   </g>
   <g id="patch_52">
    <path d="M 241.92 210.24 
L 398.88 210.24 
Q 404.64 210.24 404.64 204.48 
L 404.64 97.92 
Q 404.64 92.16 398.88 92.16 
L 241.92 92.16 
Q 236.16 92.16 236.16 97.92 
L 236.16 204.48 
Q 236.16 210.24 241.92 210.24 
z
" clip-path="url(#p9a67b9f6c7)" style="fill: #0072b2; stroke: #0072b2; stroke-width: 2; stroke-linejoin: miter"/>
   </g>
   <g id="patch_53">
    <path d="M 406.8 151.2 
Q 430.2 151.2 450.022291 151.2 
" clip-path="url(#p9a67b9f6c7)" style="fill: none; stroke: #444444; stroke-width: 3.2; stroke-linecap: round"/>
    <path d="M 441.222291 146.8 
L 450.022291 151.2 
L 441.222291 155.6 
z
" clip-path="url(#p9a67b9f6c7)" style="fill: #444444; stroke: #444444; stroke-width: 3.2; stroke-linecap: round"/>
   </g>
   <g id="patch_54">
    <path d="M 461.52 221.04 
L 740.88 221.04 
Q 746.64 221.04 746.64 215.28 
L 746.64 87.12 
Q 746.64 81.36 740.88 81.36 
L 461.52 81.36 
Q 455.76 81.36 455.76 87.12 
L 455.76 215.28 
Q 455.76 221.04 461.52 221.04 
z
" clip-path="url(#p9a67b9f6c7)" style="fill: #56b4e9; stroke: #56b4e9; stroke-width: 2; stroke-linejoin: miter"/>
   </g>
   <g id="patch_55">
    <path d="M 748.8 151.2 
Q 774 151.2 795.622291 151.2 
" clip-path="url(#p9a67b9f6c7)" style="fill: none; stroke: #444444; stroke-width: 3.2; stroke-linecap: round"/>
    <path d="M 786.822291 146.8 
L 795.622291 151.2 
L 786.822291 155.6 
z
" clip-path="url(#p9a67b9f6c7)" style="fill: #444444; stroke: #444444; stroke-width: 3.2; stroke-linecap: round"/>
   </g>
   <g id="line2d_1">
    <path d="M 835.2 255.6 
L 835.2 46.8 
" clip-path="url(#p9a67b9f6c7)" style="fill: none; stroke: #222222; stroke-width: 2.2; stroke-linecap: square"/>
   </g>
   <g id="line2d_2">
    <path d="M 835.2 255.6 
L 1116 255.6 
" clip-path="url(#p9a67b9f6c7)" style="fill: none; stroke: #222222; stroke-width: 2.2; stroke-linecap: square"/>
   </g>
   <g id="PathCollection_1">
    <defs>
     <path id="C0_0_a281d8e910" d="M 0 1.581139 
C 0.419323 1.581139 0.821528 1.41454 1.118034 1.118034 
C 1.41454 0.821528 1.581139 0.419323 1.581139 -0 
C 1.581139 -0.419323 1.41454 -0.821528 1.118034 -1.118034 
C 0.821528 -1.41454 0.419323 -1.581139 0 -1.581139 
C -0.419323 -1.581139 -0.821528 -1.41454 -1.118034 -1.118034 
C -1.41454 -0.821528 -1.581139 -0.419323 -1.581139 0 
C -1.581139 0.419323 -1.41454 0.821528 -1.118034 1.118034 
C -0.821528 1.41454 -0.419323 1.581139 0 1.581139 
z
"/>
    </defs>
    <g clip-path="url(#p9a67b9f6c7)">
     <use xlink:href="#C0_0_a281d8e910" x="922.559043" y="132.416282" style="fill: #0072b2; fill-opacity: 0.28"/>
    </g>
    <g clip-path="url(#p9a67b9f6c7)">
     <use xlink:href="#C0_0_a281d8e910" x="931.321496" y="128.997667" style="fill: #0072b2; fill-opacity: 0.28"/>
    </g>
    <g clip-path="url(#p9a67b9f6c7)">
     <use xlink:href="#C0_0_a281d8e910" x="1053.860036" y="197.513048" style="fill: #0072b2; fill-opacity: 0.28"/>
    </g>
    <g clip-path="url(#p9a67b9f6c7)">
     <use xlink:href="#C0_0_a281d8e910" x="882.239228" y="84.476129" style="fill: #0072b2; fill-opacity: 0.28"/>
    </g>
    <g clip-path="url(#p9a67b9f6c7)">
     <use xlink:href="#C0_0_a281d8e910" x="1002.983885" y="150.403704" style="fill: #0072b2; fill-opacity: 0.28"/>
    </g>
    <g clip-path="url(#p9a67b9f6c7)">
     <use xlink:href="#C0_0_a281d8e910" x="1033.505981" y="193.42486" style="fill: #0072b2; fill-opacity: 0.28"/>
    </g>
    <g clip-path="url(#p9a67b9f6c7)">
     <use xlink:href="#C0_0_a281d8e910" x="905.045295" y="99.910505" style="fill: #0072b2; fill-opacity: 0.28"/>
    </g>
    <g clip-path="url(#p9a67b9f6c7)">
     <use xlink:href="#C0_0_a281d8e910" x="873.502839" y="92.261257" style="fill: #0072b2; fill-opacity: 0.28"/>
    </g>
    <g clip-path="url(#p9a67b9f6c7)">
     <use xlink:href="#C0_0_a281d8e910" x="925.732722" y="94.889426" style="fill: #0072b2; fill-opacity: 0.28"/>
    </g>
    <g clip-path="url(#p9a67b9f6c7)">
     <use xlink:href="#C0_0_a281d8e910" x="1016.606084" y="174.431649" style="fill: #0072b2; fill-opacity: 0.28"/>
    </g>
    <g clip-path="url(#p9a67b9f6c7)">
     <use xlink:href="#C0_0_a281d8e910" x="993.994321" y="154.381753" style="fill: #0072b2; fill-opacity: 0.28"/>
    </g>
    <g clip-path="url(#p9a67b9f6c7)">
     <use xlink:href="#C0_0_a281d8e910" x="896.054794" y="111.593554" style="fill: #0072b2; fill-opacity: 0.28"/>
    </g>
    <g clip-path="url(#p9a67b9f6c7)">
     <use xlink:href="#C0_0_a281d8e910" x="963.193076" y="150.837977" style="fill: #0072b2; fill-opacity: 0.28"/>
    </g>
    <g clip-path="url(#p9a67b9f6c7)">
     <use xlink:href="#C0_0_a281d8e910" x="1019.425038" y="173.255281" style="fill: #0072b2; fill-opacity: 0.28"/>
    </g>
    <g clip-path="url(#p9a67b9f6c7)">
     <use xlink:href="#C0_0_a281d8e910" x="960.853638" y="144.5053" style="fill: #0072b2; fill-opacity: 0.28"/>
    </g>
    <g clip-path="url(#p9a67b9f6c7)">
     <use xlink:href="#C0_0_a281d8e910" x="1010.844613" y="166.308669" style="fill: #0072b2; fill-opacity: 0.28"/>
    </g>
    <g clip-path="url(#p9a67b9f6c7)">
     <use xlink:href="#C0_0_a281d8e910" x="1090.262782" y="236.502991" style="fill: #0072b2; fill-opacity: 0.28"/>
    </g>
    <g clip-path="url(#p9a67b9f6c7)">
     <use xlink:href="#C0_0_a281d8e910" x="1022.696202" y="169.935037" style="fill: #0072b2; fill-opacity: 0.28"/>
    </g>
    <g clip-path="url(#p9a67b9f6c7)">
     <use xlink:href="#C0_0_a281d8e910" x="953.45006" y="145.95599" style="fill: #0072b2; fill-opacity: 0.28"/>
    </g>
    <g clip-path="url(#p9a67b9f6c7)">
     <use xlink:href="#C0_0_a281d8e910" x="904.891211" y="86.322053" style="fill: #0072b2; fill-opacity: 0.28"/>
    </g>
    <g clip-path="url(#p9a67b9f6c7)">
     <use xlink:href="#C0_0_a281d8e910" x="942.600254" y="132.341478" style="fill: #0072b2; fill-opacity: 0.28"/>
    </g>
    <g clip-path="url(#p9a67b9f6c7)">
     <use xlink:href="#C0_0_a281d8e910" x="981.829275" y="140.153007" style="fill: #0072b2; fill-opacity: 0.28"/>
    </g>
    <g clip-path="url(#p9a67b9f6c7)">
     <use xlink:href="#C0_0_a281d8e910" x="1072.151356" y="223.604363" style="fill: #0072b2; fill-opacity: 0.28"/>
    </g>
    <g clip-path="url(#p9a67b9f6c7)">
     <use xlink:href="#C0_0_a281d8e910" x="1044.673993" y="185.939747" style="fill: #0072b2; fill-opacity: 0.28"/>
    </g>
    <g clip-path="url(#p9a67b9f6c7)">
     <use xlink:href="#C0_0_a281d8e910" x="935.991632" y="135.243212" style="fill: #0072b2; fill-opacity: 0.28"/>
    </g>
    <g clip-path="url(#p9a67b9f6c7)">
     <use xlink:href="#C0_0_a281d8e910" x="1079.993935" y="217.896195" style="fill: #0072b2; fill-opacity: 0.28"/>
    </g>
    <g clip-path="url(#p9a67b9f6c7)">
     <use xlink:href="#C0_0_a281d8e910" x="972.288189" y="146.727673" style="fill: #0072b2; fill-opacity: 0.28"/>
    </g>
    <g clip-path="url(#p9a67b9f6c7)">
     <use xlink:href="#C0_0_a281d8e910" x="1025.237101" y="182.753977" style="fill: #0072b2; fill-opacity: 0.28"/>
    </g>
    <g clip-path="url(#p9a67b9f6c7)">
     <use xlink:href="#C0_0_a281d8e910" x="885.872456" y="91.593628" style="fill: #0072b2; fill-opacity: 0.28"/>
    </g>
    <g clip-path="url(#p9a67b9f6c7)">
     <use xlink:href="#C0_0_a281d8e910" x="885.239549" y="85.641282" style="fill: #0072b2; fill-opacity: 0.28"/>
    </g>
    <g clip-path="url(#p9a67b9f6c7)">
     <use xlink:href="#C0_0_a281d8e910" x="908.37321" y="100.754622" style="fill: #0072b2; fill-opacity: 0.28"/>
    </g>
    <g clip-path="url(#p9a67b9f6c7)">
     <use xlink:href="#C0_0_a281d8e910" x="1070.545242" y="207.56854" style="fill: #0072b2; fill-opacity: 0.28"/>
    </g>
    <g clip-path="url(#p9a67b9f6c7)">
     <use xlink:href="#C0_0_a281d8e910" x="1021.923203" y="192.79957" style="fill: #0072b2; fill-opacity: 0.28"/>
    </g>
    <g clip-path="url(#p9a67b9f6c7)">
     <use xlink:href="#C0_0_a281d8e910" x="1062.17855" y="210.759554" style="fill: #0072b2; fill-opacity: 0.28"/>
    </g>
    <g clip-path="url(#p9a67b9f6c7)">
     <use xlink:href="#C0_0_a281d8e910" x="1013.518058" y="174.253934" style="fill: #0072b2; fill-opacity: 0.28"/>
    </g>
    <g clip-path="url(#p9a67b9f6c7)">
     <use xlink:href="#C0_0_a281d8e910" x="956.994474" y="162.18554" style="fill: #0072b2; fill-opacity: 0.28"/>
    </g>
    <g clip-path="url(#p9a67b9f6c7)">
     <use xlink:href="#C0_0_a281d8e910" x="983.138979" y="144.923292" style="fill: #0072b2; fill-opacity: 0.28"/>
    </g>
    <g clip-path="url(#p9a67b9f6c7)">
     <use xlink:href="#C0_0_a281d8e910" x="1001.40218" y="167.416499" style="fill: #0072b2; fill-opacity: 0.28"/>
    </g>
    <g clip-path="url(#p9a67b9f6c7)">
     <use xlink:href="#C0_0_a281d8e910" x="1065.239233" y="206.240188" style="fill: #0072b2; fill-opacity: 0.28"/>
    </g>
    <g clip-path="url(#p9a67b9f6c7)">
     <use xlink:href="#C0_0_a281d8e910" x="964.513033" y="131.373514" style="fill: #0072b2; fill-opacity: 0.28"/>
    </g>
    <g clip-path="url(#p9a67b9f6c7)">
     <use xlink:href="#C0_0_a281d8e910" x="1072.39625" y="199.988247" style="fill: #0072b2; fill-opacity: 0.28"/>
    </g>
    <g clip-path="url(#p9a67b9f6c7)">
     <use xlink:href="#C0_0_a281d8e910" x="1006.219145" y="165.029308" style="fill: #0072b2; fill-opacity: 0.28"/>
    </g>
    <g clip-path="url(#p9a67b9f6c7)">
     <use xlink:href="#C0_0_a281d8e910" x="1057.455015" y="210.162645" style="fill: #0072b2; fill-opacity: 0.28"/>
    </g>
    <g clip-path="url(#p9a67b9f6c7)">
     <use xlink:href="#C0_0_a281d8e910" x="978.738119" y="147.344015" style="fill: #0072b2; fill-opacity: 0.28"/>
    </g>
    <g clip-path="url(#p9a67b9f6c7)">
     <use xlink:href="#C0_0_a281d8e910" x="1024.942308" y="174.934646" style="fill: #0072b2; fill-opacity: 0.28"/>
    </g>
    <g clip-path="url(#p9a67b9f6c7)">
     <use xlink:href="#C0_0_a281d8e910" x="940.952429" y="138.212243" style="fill: #0072b2; fill-opacity: 0.28"/>
    </g>
    <g clip-path="url(#p9a67b9f6c7)">
     <use xlink:href="#C0_0_a281d8e910" x="984.624053" y="142.468352" style="fill: #0072b2; fill-opacity: 0.28"/>
    </g>
    <g clip-path="url(#p9a67b9f6c7)">
     <use xlink:href="#C0_0_a281d8e910" x="911.774678" y="104.485308" style="fill: #0072b2; fill-opacity: 0.28"/>
    </g>
    <g clip-path="url(#p9a67b9f6c7)">
     <use xlink:href="#C0_0_a281d8e910" x="884.327176" y="116.391391" style="fill: #0072b2; fill-opacity: 0.28"/>
    </g>
    <g clip-path="url(#p9a67b9f6c7)">
     <use xlink:href="#C0_0_a281d8e910" x="869.572341" y="83.354137" style="fill: #0072b2; fill-opacity: 0.28"/>
    </g>
    <g clip-path="url(#p9a67b9f6c7)">
     <use xlink:href="#C0_0_a281d8e910" x="1027.183196" y="194.850045" style="fill: #0072b2; fill-opacity: 0.28"/>
    </g>
    <g clip-path="url(#p9a67b9f6c7)">
     <use xlink:href="#C0_0_a281d8e910" x="968.847916" y="131.835659" style="fill: #0072b2; fill-opacity: 0.28"/>
    </g>
    <g clip-path="url(#p9a67b9f6c7)">
     <use xlink:href="#C0_0_a281d8e910" x="1073.701633" y="199.176755" style="fill: #0072b2; fill-opacity: 0.28"/>
    </g>
    <g clip-path="url(#p9a67b9f6c7)">
     <use xlink:href="#C0_0_a281d8e910" x="1058.839529" y="212.179747" style="fill: #0072b2; fill-opacity: 0.28"/>
    </g>
    <g clip-path="url(#p9a67b9f6c7)">
     <use xlink:href="#C0_0_a281d8e910" x="951.898604" y="144.847433" style="fill: #0072b2; fill-opacity: 0.28"/>
    </g>
    <g clip-path="url(#p9a67b9f6c7)">
     <use xlink:href="#C0_0_a281d8e910" x="1091.746076" y="218.236393" style="fill: #0072b2; fill-opacity: 0.28"/>
    </g>
    <g clip-path="url(#p9a67b9f6c7)">
     <use xlink:href="#C0_0_a281d8e910" x="1001.073934" y="167.20803" style="fill: #0072b2; fill-opacity: 0.28"/>
    </g>
    <g clip-path="url(#p9a67b9f6c7)">
     <use xlink:href="#C0_0_a281d8e910" x="1042.373875" y="171.916858" style="fill: #0072b2; fill-opacity: 0.28"/>
    </g>
    <g clip-path="url(#p9a67b9f6c7)">
     <use xlink:href="#C0_0_a281d8e910" x="957.14938" y="129.299969" style="fill: #0072b2; fill-opacity: 0.28"/>
    </g>
    <g clip-path="url(#p9a67b9f6c7)">
     <use xlink:href="#C0_0_a281d8e910" x="907.009971" y="110.702029" style="fill: #0072b2; fill-opacity: 0.28"/>
    </g>
    <g clip-path="url(#p9a67b9f6c7)">
     <use xlink:href="#C0_0_a281d8e910" x="901.214219" y="97.284289" style="fill: #0072b2; fill-opacity: 0.28"/>
    </g>
    <g clip-path="url(#p9a67b9f6c7)">
     <use xlink:href="#C0_0_a281d8e910" x="903.454599" y="128.705554" style="fill: #0072b2; fill-opacity: 0.28"/>
    </g>
    <g clip-path="url(#p9a67b9f6c7)">
     <use xlink:href="#C0_0_a281d8e910" x="1003.864191" y="162.578353" style="fill: #0072b2; fill-opacity: 0.28"/>
    </g>
    <g clip-path="url(#p9a67b9f6c7)">
     <use xlink:href="#C0_0_a281d8e910" x="887.161566" y="85.438122" style="fill: #0072b2; fill-opacity: 0.28"/>
    </g>
    <g clip-path="url(#p9a67b9f6c7)">
     <use xlink:href="#C0_0_a281d8e910" x="865.130794" y="84.128681" style="fill: #0072b2; fill-opacity: 0.28"/>
    </g>
    <g clip-path="url(#p9a67b9f6c7)">
     <use xlink:href="#C0_0_a281d8e910" x="1058.320079" y="207.33323" style="fill: #0072b2; fill-opacity: 0.28"/>
    </g>
    <g clip-path="url(#p9a67b9f6c7)">
     <use xlink:href="#C0_0_a281d8e910" x="884.020082" y="86.9968" style="fill: #0072b2; fill-opacity: 0.28"/>
    </g>
    <g clip-path="url(#p9a67b9f6c7)">
     <use xlink:href="#C0_0_a281d8e910" x="967.458886" y="121.520931" style="fill: #0072b2; fill-opacity: 0.28"/>
    </g>
    <g clip-path="url(#p9a67b9f6c7)">
     <use xlink:href="#C0_0_a281d8e910" x="976.467261" y="147.183704" style="fill: #0072b2; fill-opacity: 0.28"/>
    </g>
    <g clip-path="url(#p9a67b9f6c7)">
     <use xlink:href="#C0_0_a281d8e910" x="1007.776724" y="181.429433" style="fill: #0072b2; fill-opacity: 0.28"/>
    </g>
    <g clip-path="url(#p9a67b9f6c7)">
     <use xlink:href="#C0_0_a281d8e910" x="980.153841" y="135.122414" style="fill: #0072b2; fill-opacity: 0.28"/>
    </g>
    <g clip-path="url(#p9a67b9f6c7)">
     <use xlink:href="#C0_0_a281d8e910" x="1083.112731" y="235.81828" style="fill: #0072b2; fill-opacity: 0.28"/>
    </g>
    <g clip-path="url(#p9a67b9f6c7)">
     <use xlink:href="#C0_0_a281d8e910" x="1038.694231" y="181.46019" style="fill: #0072b2; fill-opacity: 0.28"/>
    </g>
    <g clip-path="url(#p9a67b9f6c7)">
     <use xlink:href="#C0_0_a281d8e910" x="996.89324" y="168.627293" style="fill: #0072b2; fill-opacity: 0.28"/>
    </g>
    <g clip-path="url(#p9a67b9f6c7)">
     <use xlink:href="#C0_0_a281d8e910" x="1007.06386" y="157.366694" style="fill: #0072b2; fill-opacity: 0.28"/>
    </g>
    <g clip-path="url(#p9a67b9f6c7)">
     <use xlink:href="#C0_0_a281d8e910" x="980.756634" y="161.92936" style="fill: #0072b2; fill-opacity: 0.28"/>
    </g>
    <g clip-path="url(#p9a67b9f6c7)">
     <use xlink:href="#C0_0_a281d8e910" x="1089.627406" y="202.874974" style="fill: #0072b2; fill-opacity: 0.28"/>
    </g>
    <g clip-path="url(#p9a67b9f6c7)">
     <use xlink:href="#C0_0_a281d8e910" x="914.246353" y="108.375007" style="fill: #0072b2; fill-opacity: 0.28"/>
    </g>
    <g clip-path="url(#p9a67b9f6c7)">
     <use xlink:href="#C0_0_a281d8e910" x="1024.112848" y="198.313112" style="fill: #0072b2; fill-opacity: 0.28"/>
    </g>
    <g clip-path="url(#p9a67b9f6c7)">
     <use xlink:href="#C0_0_a281d8e910" x="992.290971" y="181.872248" style="fill: #0072b2; fill-opacity: 0.28"/>
    </g>
    <g clip-path="url(#p9a67b9f6c7)">
     <use xlink:href="#C0_0_a281d8e910" x="870.382001" y="88.891118" style="fill: #0072b2; fill-opacity: 0.28"/>
    </g>
    <g clip-path="url(#p9a67b9f6c7)">
     <use xlink:href="#C0_0_a281d8e910" x="930.76524" y="106.936282" style="fill: #0072b2; fill-opacity: 0.28"/>
    </g>
    <g clip-path="url(#p9a67b9f6c7)">
     <use xlink:href="#C0_0_a281d8e910" x="1080.694864" y="211.248653" style="fill: #0072b2; fill-opacity: 0.28"/>
    </g>
    <g clip-path="url(#p9a67b9f6c7)">
     <use xlink:href="#C0_0_a281d8e910" x="1046.81261" y="191.404109" style="fill: #0072b2; fill-opacity: 0.28"/>
    </g>
    <g clip-path="url(#p9a67b9f6c7)">
     <use xlink:href="#C0_0_a281d8e910" x="863.448668" y="83.76529" style="fill: #0072b2; fill-opacity: 0.28"/>
    </g>
    <g clip-path="url(#p9a67b9f6c7)">
     <use xlink:href="#C0_0_a281d8e910" x="930.878416" y="113.413582" style="fill: #0072b2; fill-opacity: 0.28"/>
    </g>
    <g clip-path="url(#p9a67b9f6c7)">
     <use xlink:href="#C0_0_a281d8e910" x="862.729751" y="76.265166" style="fill: #0072b2; fill-opacity: 0.28"/>
    </g>
    <g clip-path="url(#p9a67b9f6c7)">
     <use xlink:href="#C0_0_a281d8e910" x="1057.006146" y="195.125655" style="fill: #0072b2; fill-opacity: 0.28"/>
    </g>
    <g clip-path="url(#p9a67b9f6c7)">
     <use xlink:href="#C0_0_a281d8e910" x="886.62334" y="106.436942" style="fill: #0072b2; fill-opacity: 0.28"/>
    </g>
    <g clip-path="url(#p9a67b9f6c7)">
     <use xlink:href="#C0_0_a281d8e910" x="874.05135" y="73.789476" style="fill: #0072b2; fill-opacity: 0.28"/>
    </g>
    <g clip-path="url(#p9a67b9f6c7)">
     <use xlink:href="#C0_0_a281d8e910" x="1093.695482" y="204.888515" style="fill: #0072b2; fill-opacity: 0.28"/>
    </g>
    <g clip-path="url(#p9a67b9f6c7)">
     <use xlink:href="#C0_0_a281d8e910" x="966.338683" y="158.396855" style="fill: #0072b2; fill-opacity: 0.28"/>
    </g>
    <g clip-path="url(#p9a67b9f6c7)">
     <use xlink:href="#C0_0_a281d8e910" x="936.050177" y="98.535368" style="fill: #0072b2; fill-opacity: 0.28"/>
    </g>
    <g clip-path="url(#p9a67b9f6c7)">
     <use xlink:href="#C0_0_a281d8e910" x="872.045581" y="77.934652" style="fill: #0072b2; fill-opacity: 0.28"/>
    </g>
    <g clip-path="url(#p9a67b9f6c7)">
     <use xlink:href="#C0_0_a281d8e910" x="952.96784" y="140.92355" style="fill: #0072b2; fill-opacity: 0.28"/>
    </g>
    <g clip-path="url(#p9a67b9f6c7)">
     <use xlink:href="#C0_0_a281d8e910" x="947.37088" y="153.847804" style="fill: #0072b2; fill-opacity: 0.28"/>
    </g>
    <g clip-path="url(#p9a67b9f6c7)">
     <use xlink:href="#C0_0_a281d8e910" x="984.779035" y="147.014363" style="fill: #0072b2; fill-opacity: 0.28"/>
    </g>
    <g clip-path="url(#p9a67b9f6c7)">
     <use xlink:href="#C0_0_a281d8e910" x="862.012227" y="73.754576" style="fill: #0072b2; fill-opacity: 0.28"/>
    </g>
    <g clip-path="url(#p9a67b9f6c7)">
     <use xlink:href="#C0_0_a281d8e910" x="895.55598" y="107.368333" style="fill: #0072b2; fill-opacity: 0.28"/>
    </g>
    <g clip-path="url(#p9a67b9f6c7)">
     <use xlink:href="#C0_0_a281d8e910" x="910.269039" y="130.050833" style="fill: #0072b2; fill-opacity: 0.28"/>
    </g>
    <g clip-path="url(#p9a67b9f6c7)">
     <use xlink:href="#C0_0_a281d8e910" x="965.063874" y="129.678678" style="fill: #0072b2; fill-opacity: 0.28"/>
    </g>
    <g clip-path="url(#p9a67b9f6c7)">
     <use xlink:href="#C0_0_a281d8e910" x="932.22728" y="129.509119" style="fill: #0072b2; fill-opacity: 0.28"/>
    </g>
    <g clip-path="url(#p9a67b9f6c7)">
     <use xlink:href="#C0_0_a281d8e910" x="1006.126656" y="172.953689" style="fill: #0072b2; fill-opacity: 0.28"/>
    </g>
    <g clip-path="url(#p9a67b9f6c7)">
     <use xlink:href="#C0_0_a281d8e910" x="928.218787" y="87.520464" style="fill: #0072b2; fill-opacity: 0.28"/>
    </g>
    <g clip-path="url(#p9a67b9f6c7)">
     <use xlink:href="#C0_0_a281d8e910" x="1076.528803" y="185.672914" style="fill: #0072b2; fill-opacity: 0.28"/>
    </g>
    <g clip-path="url(#p9a67b9f6c7)">
     <use xlink:href="#C0_0_a281d8e910" x="1088.940302" y="206.722227" style="fill: #0072b2; fill-opacity: 0.28"/>
    </g>
    <g clip-path="url(#p9a67b9f6c7)">
     <use xlink:href="#C0_0_a281d8e910" x="874.521724" y="93.005071" style="fill: #0072b2; fill-opacity: 0.28"/>
    </g>
    <g clip-path="url(#p9a67b9f6c7)">
     <use xlink:href="#C0_0_a281d8e910" x="910.072589" y="101.822806" style="fill: #0072b2; fill-opacity: 0.28"/>
    </g>
    <g clip-path="url(#p9a67b9f6c7)">
     <use xlink:href="#C0_0_a281d8e910" x="994.174308" y="186.55787" style="fill: #0072b2; fill-opacity: 0.28"/>
    </g>
    <g clip-path="url(#p9a67b9f6c7)">
     <use xlink:href="#C0_0_a281d8e910" x="1043.508871" y="188.947816" style="fill: #0072b2; fill-opacity: 0.28"/>
    </g>
    <g clip-path="url(#p9a67b9f6c7)">
     <use xlink:href="#C0_0_a281d8e910" x="875.612157" y="97.172596" style="fill: #0072b2; fill-opacity: 0.28"/>
    </g>
    <g clip-path="url(#p9a67b9f6c7)">
     <use xlink:href="#C0_0_a281d8e910" x="904.309118" y="120.621758" style="fill: #0072b2; fill-opacity: 0.28"/>
    </g>
    <g clip-path="url(#p9a67b9f6c7)">
     <use xlink:href="#C0_0_a281d8e910" x="968.916701" y="163.201605" style="fill: #0072b2; fill-opacity: 0.28"/>
    </g>
    <g clip-path="url(#p9a67b9f6c7)">
     <use xlink:href="#C0_0_a281d8e910" x="1019.280924" y="169.441838" style="fill: #0072b2; fill-opacity: 0.28"/>
    </g>
    <g clip-path="url(#p9a67b9f6c7)">
     <use xlink:href="#C0_0_a281d8e910" x="1075.030715" y="208.250481" style="fill: #0072b2; fill-opacity: 0.28"/>
    </g>
    <g clip-path="url(#p9a67b9f6c7)">
     <use xlink:href="#C0_0_a281d8e910" x="1066.392776" y="202.20409" style="fill: #0072b2; fill-opacity: 0.28"/>
    </g>
    <g clip-path="url(#p9a67b9f6c7)">
     <use xlink:href="#C0_0_a281d8e910" x="1048.996287" y="183.796608" style="fill: #0072b2; fill-opacity: 0.28"/>
    </g>
    <g clip-path="url(#p9a67b9f6c7)">
     <use xlink:href="#C0_0_a281d8e910" x="872.929157" y="96.540314" style="fill: #0072b2; fill-opacity: 0.28"/>
    </g>
    <g clip-path="url(#p9a67b9f6c7)">
     <use xlink:href="#C0_0_a281d8e910" x="1092.448831" y="234.069588" style="fill: #0072b2; fill-opacity: 0.28"/>
    </g>
    <g clip-path="url(#p9a67b9f6c7)">
     <use xlink:href="#C0_0_a281d8e910" x="1006.435601" y="188.170154" style="fill: #0072b2; fill-opacity: 0.28"/>
    </g>
    <g clip-path="url(#p9a67b9f6c7)">
     <use xlink:href="#C0_0_a281d8e910" x="880.861118" y="95.462142" style="fill: #0072b2; fill-opacity: 0.28"/>
    </g>
    <g clip-path="url(#p9a67b9f6c7)">
     <use xlink:href="#C0_0_a281d8e910" x="920.971077" y="107.152744" style="fill: #0072b2; fill-opacity: 0.28"/>
    </g>
    <g clip-path="url(#p9a67b9f6c7)">
     <use xlink:href="#C0_0_a281d8e910" x="1007.89117" y="170.309947" style="fill: #0072b2; fill-opacity: 0.28"/>
    </g>
    <g clip-path="url(#p9a67b9f6c7)">
     <use xlink:href="#C0_0_a281d8e910" x="952.028092" y="127.34638" style="fill: #0072b2; fill-opacity: 0.28"/>
    </g>
    <g clip-path="url(#p9a67b9f6c7)">
     <use xlink:href="#C0_0_a281d8e910" x="966.512986" y="157.116639" style="fill: #0072b2; fill-opacity: 0.28"/>
    </g>
    <g clip-path="url(#p9a67b9f6c7)">
     <use xlink:href="#C0_0_a281d8e910" x="1051.569412" y="200.464527" style="fill: #0072b2; fill-opacity: 0.28"/>
    </g>
    <g clip-path="url(#p9a67b9f6c7)">
     <use xlink:href="#C0_0_a281d8e910" x="1056.18976" y="206.684051" style="fill: #0072b2; fill-opacity: 0.28"/>
    </g>
    <g clip-path="url(#p9a67b9f6c7)">
     <use xlink:href="#C0_0_a281d8e910" x="990.316586" y="172.318638" style="fill: #0072b2; fill-opacity: 0.28"/>
    </g>
    <g clip-path="url(#p9a67b9f6c7)">
     <use xlink:href="#C0_0_a281d8e910" x="1048.686382" y="171.891824" style="fill: #0072b2; fill-opacity: 0.28"/>
    </g>
    <g clip-path="url(#p9a67b9f6c7)">
     <use xlink:href="#C0_0_a281d8e910" x="956.866771" y="127.848048" style="fill: #0072b2; fill-opacity: 0.28"/>
    </g>
   </g>
   <g id="text_1">
    <!-- Two-channel -->
    <g style="fill: #222222" transform="translate(48.30875 44.975437) scale(0.17 -0.17)">
     <defs>
      <path id="DejaVuSans-Bold-54" d="M 31 4666 
L 4331 4666 
L 4331 3756 
L 2784 3756 
L 2784 0 
L 1581 0 
L 1581 3756 
L 31 3756 
L 31 4666 
z
" transform="scale(0.015625)"/>
      <path id="DejaVuSans-Bold-77" d="M 225 3500 
L 1313 3500 
L 1900 1088 
L 2491 3500 
L 3425 3500 
L 4013 1113 
L 4603 3500 
L 5691 3500 
L 4769 0 
L 3547 0 
L 2956 2406 
L 2369 0 
L 1147 0 
L 225 3500 
z
" transform="scale(0.015625)"/>
      <path id="DejaVuSans-Bold-6f" d="M 2203 2784 
Q 1831 2784 1636 2517 
Q 1441 2250 1441 1747 
Q 1441 1244 1636 976 
Q 1831 709 2203 709 
Q 2569 709 2762 976 
Q 2956 1244 2956 1747 
Q 2956 2250 2762 2517 
Q 2569 2784 2203 2784 
z
M 2203 3584 
Q 3106 3584 3614 3096 
Q 4122 2609 4122 1747 
Q 4122 884 3614 396 
Q 3106 -91 2203 -91 
Q 1297 -91 786 396 
Q 275 884 275 1747 
Q 275 2609 786 3096 
Q 1297 3584 2203 3584 
z
" transform="scale(0.015625)"/>
      <path id="DejaVuSans-Bold-2d" d="M 347 2297 
L 2309 2297 
L 2309 1388 
L 347 1388 
L 347 2297 
z
" transform="scale(0.015625)"/>
      <path id="DejaVuSans-Bold-63" d="M 3366 3391 
L 3366 2478 
Q 3138 2634 2908 2709 
Q 2678 2784 2431 2784 
Q 1963 2784 1702 2511 
Q 1441 2238 1441 1747 
Q 1441 1256 1702 982 
Q 1963 709 2431 709 
Q 2694 709 2930 787 
Q 3166 866 3366 1019 
L 3366 103 
Q 3103 6 2833 -42 
Q 2563 -91 2291 -91 
Q 1344 -91 809 395 
Q 275 881 275 1747 
Q 275 2613 809 3098 
Q 1344 3584 2291 3584 
Q 2566 3584 2833 3536 
Q 3100 3488 3366 3391 
z
" transform="scale(0.015625)"/>
      <path id="DejaVuSans-Bold-68" d="M 4056 2131 
L 4056 0 
L 2931 0 
L 2931 347 
L 2931 1625 
Q 2931 2084 2911 2256 
Q 2891 2428 2841 2509 
Q 2775 2619 2662 2680 
Q 2550 2741 2406 2741 
Q 2056 2741 1856 2470 
Q 1656 2200 1656 1722 
L 1656 0 
L 538 0 
L 538 4863 
L 1656 4863 
L 1656 2988 
Q 1909 3294 2193 3439 
Q 2478 3584 2822 3584 
Q 3428 3584 3742 3212 
Q 4056 2841 4056 2131 
z
" transform="scale(0.015625)"/>
      <path id="DejaVuSans-Bold-61" d="M 2106 1575 
Q 1756 1575 1579 1456 
Q 1403 1338 1403 1106 
Q 1403 894 1545 773 
Q 1688 653 1941 653 
Q 2256 653 2472 879 
Q 2688 1106 2688 1447 
L 2688 1575 
L 2106 1575 
z
M 3816 1997 
L 3816 0 
L 2688 0 
L 2688 519 
Q 2463 200 2181 54 
Q 1900 -91 1497 -91 
Q 953 -91 614 226 
Q 275 544 275 1050 
Q 275 1666 698 1953 
Q 1122 2241 2028 2241 
L 2688 2241 
L 2688 2328 
Q 2688 2594 2478 2717 
Q 2269 2841 1825 2841 
Q 1466 2841 1156 2769 
Q 847 2697 581 2553 
L 581 3406 
Q 941 3494 1303 3539 
Q 1666 3584 2028 3584 
Q 2975 3584 3395 3211 
Q 3816 2838 3816 1997 
z
" transform="scale(0.015625)"/>
      <path id="DejaVuSans-Bold-6e" d="M 4056 2131 
L 4056 0 
L 2931 0 
L 2931 347 
L 2931 1631 
Q 2931 2084 2911 2256 
Q 2891 2428 2841 2509 
Q 2775 2619 2662 2680 
Q 2550 2741 2406 2741 
Q 2056 2741 1856 2470 
Q 1656 2200 1656 1722 
L 1656 0 
L 538 0 
L 538 3500 
L 1656 3500 
L 1656 2988 
Q 1909 3294 2193 3439 
Q 2478 3584 2822 3584 
Q 3428 3584 3742 3212 
Q 4056 2841 4056 2131 
z
" transform="scale(0.015625)"/>
      <path id="DejaVuSans-Bold-65" d="M 4031 1759 
L 4031 1441 
L 1416 1441 
Q 1456 1047 1700 850 
Q 1944 653 2381 653 
Q 2734 653 3104 758 
Q 3475 863 3866 1075 
L 3866 213 
Q 3469 63 3072 -14 
Q 2675 -91 2278 -91 
Q 1328 -91 801 392 
Q 275 875 275 1747 
Q 275 2603 792 3093 
Q 1309 3584 2216 3584 
Q 3041 3584 3536 3087 
Q 4031 2591 4031 1759 
z
M 2881 2131 
Q 2881 2450 2695 2645 
Q 2509 2841 2209 2841 
Q 1884 2841 1681 2658 
Q 1478 2475 1428 2131 
L 2881 2131 
z
" transform="scale(0.015625)"/>
      <path id="DejaVuSans-Bold-6c" d="M 538 4863 
L 1656 4863 
L 1656 0 
L 538 0 
L 538 4863 
z
" transform="scale(0.015625)"/>
     </defs>
     <use xlink:href="#DejaVuSans-Bold-54"/>
     <use xlink:href="#DejaVuSans-Bold-77" transform="translate(57.212891 0)"/>
     <use xlink:href="#DejaVuSans-Bold-6f" transform="translate(149.595703 0)"/>
     <use xlink:href="#DejaVuSans-Bold-2d" transform="translate(218.296875 0)"/>
     <use xlink:href="#DejaVuSans-Bold-63" transform="translate(259.800781 0)"/>
     <use xlink:href="#DejaVuSans-Bold-68" transform="translate(319.078125 0)"/>
     <use xlink:href="#DejaVuSans-Bold-61" transform="translate(390.269531 0)"/>
     <use xlink:href="#DejaVuSans-Bold-6e" transform="translate(457.75 0)"/>
     <use xlink:href="#DejaVuSans-Bold-6e" transform="translate(528.941406 0)"/>
     <use xlink:href="#DejaVuSans-Bold-65" transform="translate(600.132812 0)"/>
     <use xlink:href="#DejaVuSans-Bold-6c" transform="translate(667.955078 0)"/>
    </g>
    <!-- confocal image -->
    <g style="fill: #222222" transform="translate(35.528203 64.011719) scale(0.17 -0.17)">
     <defs>
      <path id="DejaVuSans-Bold-66" d="M 2841 4863 
L 2841 4128 
L 2222 4128 
Q 1984 4128 1890 4042 
Q 1797 3956 1797 3744 
L 1797 3500 
L 2753 3500 
L 2753 2700 
L 1797 2700 
L 1797 0 
L 678 0 
L 678 2700 
L 122 2700 
L 122 3500 
L 678 3500 
L 678 3744 
Q 678 4316 997 4589 
Q 1316 4863 1984 4863 
L 2841 4863 
z
" transform="scale(0.015625)"/>
      <path id="DejaVuSans-Bold-20" transform="scale(0.015625)"/>
      <path id="DejaVuSans-Bold-69" d="M 538 3500 
L 1656 3500 
L 1656 0 
L 538 0 
L 538 3500 
z
M 538 4863 
L 1656 4863 
L 1656 3950 
L 538 3950 
L 538 4863 
z
" transform="scale(0.015625)"/>
      <path id="DejaVuSans-Bold-6d" d="M 3781 2919 
Q 3994 3244 4286 3414 
Q 4578 3584 4928 3584 
Q 5531 3584 5847 3212 
Q 6163 2841 6163 2131 
L 6163 0 
L 5038 0 
L 5038 1825 
Q 5041 1866 5042 1909 
Q 5044 1953 5044 2034 
Q 5044 2406 4934 2573 
Q 4825 2741 4581 2741 
Q 4263 2741 4089 2478 
Q 3916 2216 3909 1719 
L 3909 0 
L 2784 0 
L 2784 1825 
Q 2784 2406 2684 2573 
Q 2584 2741 2328 2741 
Q 2006 2741 1831 2477 
Q 1656 2213 1656 1722 
L 1656 0 
L 531 0 
L 531 3500 
L 1656 3500 
L 1656 2988 
Q 1863 3284 2130 3434 
Q 2397 3584 2719 3584 
Q 3081 3584 3359 3409 
Q 3638 3234 3781 2919 
z
" transform="scale(0.015625)"/>
      <path id="DejaVuSans-Bold-67" d="M 2919 594 
Q 2688 288 2409 144 
Q 2131 0 1766 0 
Q 1125 0 706 504 
Q 288 1009 288 1791 
Q 288 2575 706 3076 
Q 1125 3578 1766 3578 
Q 2131 3578 2409 3434 
Q 2688 3291 2919 2981 
L 2919 3500 
L 4044 3500 
L 4044 353 
Q 4044 -491 3511 -936 
Q 2978 -1381 1966 -1381 
Q 1638 -1381 1331 -1331 
Q 1025 -1281 716 -1178 
L 716 -306 
Q 1009 -475 1290 -558 
Q 1572 -641 1856 -641 
Q 2406 -641 2662 -400 
Q 2919 -159 2919 353 
L 2919 594 
z
M 2181 2772 
Q 1834 2772 1640 2515 
Q 1447 2259 1447 1791 
Q 1447 1309 1634 1061 
Q 1822 813 2181 813 
Q 2531 813 2725 1069 
Q 2919 1325 2919 1791 
Q 2919 2259 2725 2515 
Q 2531 2772 2181 2772 
z
" transform="scale(0.015625)"/>
     </defs>
     <use xlink:href="#DejaVuSans-Bold-63"/>
     <use xlink:href="#DejaVuSans-Bold-6f" transform="translate(59.277344 0)"/>
     <use xlink:href="#DejaVuSans-Bold-6e" transform="translate(127.978516 0)"/>
     <use xlink:href="#DejaVuSans-Bold-66" transform="translate(199.169922 0)"/>
     <use xlink:href="#DejaVuSans-Bold-6f" transform="translate(242.675781 0)"/>
     <use xlink:href="#DejaVuSans-Bold-63" transform="translate(311.376953 0)"/>
     <use xlink:href="#DejaVuSans-Bold-61" transform="translate(370.654297 0)"/>
     <use xlink:href="#DejaVuSans-Bold-6c" transform="translate(438.134766 0)"/>
     <use xlink:href="#DejaVuSans-Bold-20" transform="translate(472.412109 0)"/>
     <use xlink:href="#DejaVuSans-Bold-69" transform="translate(507.226562 0)"/>
     <use xlink:href="#DejaVuSans-Bold-6d" transform="translate(541.503906 0)"/>
     <use xlink:href="#DejaVuSans-Bold-61" transform="translate(645.703125 0)"/>
     <use xlink:href="#DejaVuSans-Bold-67" transform="translate(713.183594 0)"/>
     <use xlink:href="#DejaVuSans-Bold-65" transform="translate(784.765625 0)"/>
    </g>
   </g>
   <g id="text_2">
    <!-- lipid  →  size -->
    <g style="fill: #222222" transform="translate(69.12 244.067187) scale(0.13 -0.13)">
     <defs>
      <path id="DejaVuSans-6c" d="M 603 4863 
L 1178 4863 
L 1178 0 
L 603 0 
L 603 4863 
z
" transform="scale(0.015625)"/>
      <path id="DejaVuSans-69" d="M 603 3500 
L 1178 3500 
L 1178 0 
L 603 0 
L 603 3500 
z
M 603 4863 
L 1178 4863 
L 1178 4134 
L 603 4134 
L 603 4863 
z
" transform="scale(0.015625)"/>
      <path id="DejaVuSans-70" d="M 1159 525 
L 1159 -1331 
L 581 -1331 
L 581 3500 
L 1159 3500 
L 1159 2969 
Q 1341 3281 1617 3432 
Q 1894 3584 2278 3584 
Q 2916 3584 3314 3078 
Q 3713 2572 3713 1747 
Q 3713 922 3314 415 
Q 2916 -91 2278 -91 
Q 1894 -91 1617 61 
Q 1341 213 1159 525 
z
M 3116 1747 
Q 3116 2381 2855 2742 
Q 2594 3103 2138 3103 
Q 1681 3103 1420 2742 
Q 1159 2381 1159 1747 
Q 1159 1113 1420 752 
Q 1681 391 2138 391 
Q 2594 391 2855 752 
Q 3116 1113 3116 1747 
z
" transform="scale(0.015625)"/>
      <path id="DejaVuSans-64" d="M 2906 2969 
L 2906 4863 
L 3481 4863 
L 3481 0 
L 2906 0 
L 2906 525 
Q 2725 213 2448 61 
Q 2172 -91 1784 -91 
Q 1150 -91 751 415 
Q 353 922 353 1747 
Q 353 2572 751 3078 
Q 1150 3584 1784 3584 
Q 2172 3584 2448 3432 
Q 2725 3281 2906 2969 
z
M 947 1747 
Q 947 1113 1208 752 
Q 1469 391 1925 391 
Q 2381 391 2643 752 
Q 2906 1113 2906 1747 
Q 2906 2381 2643 2742 
Q 2381 3103 1925 3103 
Q 1469 3103 1208 2742 
Q 947 2381 947 1747 
z
" transform="scale(0.015625)"/>
      <path id="DejaVuSans-20" transform="scale(0.015625)"/>
      <path id="DejaVuSans-2192" d="M 5050 2147 
L 5050 1866 
L 3822 638 
L 3447 1013 
L 4175 1741 
L 366 1741 
L 366 2272 
L 4175 2272 
L 3447 3000 
L 3822 3375 
L 5050 2147 
z
" transform="scale(0.015625)"/>
      <path id="DejaVuSans-73" d="M 2834 3397 
L 2834 2853 
Q 2591 2978 2328 3040 
Q 2066 3103 1784 3103 
Q 1356 3103 1142 2972 
Q 928 2841 928 2578 
Q 928 2378 1081 2264 
Q 1234 2150 1697 2047 
L 1894 2003 
Q 2506 1872 2764 1633 
Q 3022 1394 3022 966 
Q 3022 478 2636 193 
Q 2250 -91 1575 -91 
Q 1294 -91 989 -36 
Q 684 19 347 128 
L 347 722 
Q 666 556 975 473 
Q 1284 391 1588 391 
Q 1994 391 2212 530 
Q 2431 669 2431 922 
Q 2431 1156 2273 1281 
Q 2116 1406 1581 1522 
L 1381 1569 
Q 847 1681 609 1914 
Q 372 2147 372 2553 
Q 372 3047 722 3315 
Q 1072 3584 1716 3584 
Q 2034 3584 2315 3537 
Q 2597 3491 2834 3397 
z
" transform="scale(0.015625)"/>
      <path id="DejaVuSans-7a" d="M 353 3500 
L 3084 3500 
L 3084 2975 
L 922 459 
L 3084 459 
L 3084 0 
L 275 0 
L 275 525 
L 2438 3041 
L 353 3041 
L 353 3500 
z
" transform="scale(0.015625)"/>
      <path id="DejaVuSans-65" d="M 3597 1894 
L 3597 1613 
L 953 1613 
Q 991 1019 1311 708 
Q 1631 397 2203 397 
Q 2534 397 2845 478 
Q 3156 559 3463 722 
L 3463 178 
Q 3153 47 2828 -22 
Q 2503 -91 2169 -91 
Q 1331 -91 842 396 
Q 353 884 353 1716 
Q 353 2575 817 3079 
Q 1281 3584 2069 3584 
Q 2775 3584 3186 3129 
Q 3597 2675 3597 1894 
z
M 3022 2063 
Q 3016 2534 2758 2815 
Q 2500 3097 2075 3097 
Q 1594 3097 1305 2825 
Q 1016 2553 972 2059 
L 3022 2063 
z
" transform="scale(0.015625)"/>
     </defs>
     <use xlink:href="#DejaVuSans-6c"/>
     <use xlink:href="#DejaVuSans-69" transform="translate(27.783203 0)"/>
     <use xlink:href="#DejaVuSans-70" transform="translate(55.566406 0)"/>
     <use xlink:href="#DejaVuSans-69" transform="translate(119.042969 0)"/>
     <use xlink:href="#DejaVuSans-64" transform="translate(146.826172 0)"/>
     <use xlink:href="#DejaVuSans-20" transform="translate(210.302734 0)"/>
     <use xlink:href="#DejaVuSans-20" transform="translate(242.089844 0)"/>
     <use xlink:href="#DejaVuSans-2192" transform="translate(273.876953 0)"/>
     <use xlink:href="#DejaVuSans-20" transform="translate(357.666016 0)"/>
     <use xlink:href="#DejaVuSans-20" transform="translate(389.453125 0)"/>
     <use xlink:href="#DejaVuSans-73" transform="translate(421.240234 0)"/>
     <use xlink:href="#DejaVuSans-69" transform="translate(473.339844 0)"/>
     <use xlink:href="#DejaVuSans-7a" transform="translate(501.123047 0)"/>
     <use xlink:href="#DejaVuSans-65" transform="translate(553.613281 0)"/>
    </g>
   </g>
   <g id="text_3">
    <!-- protein  →  binding -->
    <g style="fill: #222222" transform="translate(69.12 271.427187) scale(0.13 -0.13)">
     <defs>
      <path id="DejaVuSans-72" d="M 2631 2963 
Q 2534 3019 2420 3045 
Q 2306 3072 2169 3072 
Q 1681 3072 1420 2755 
Q 1159 2438 1159 1844 
L 1159 0 
L 581 0 
L 581 3500 
L 1159 3500 
L 1159 2956 
Q 1341 3275 1631 3429 
Q 1922 3584 2338 3584 
Q 2397 3584 2469 3576 
Q 2541 3569 2628 3553 
L 2631 2963 
z
" transform="scale(0.015625)"/>
      <path id="DejaVuSans-6f" d="M 1959 3097 
Q 1497 3097 1228 2736 
Q 959 2375 959 1747 
Q 959 1119 1226 758 
Q 1494 397 1959 397 
Q 2419 397 2687 759 
Q 2956 1122 2956 1747 
Q 2956 2369 2687 2733 
Q 2419 3097 1959 3097 
z
M 1959 3584 
Q 2709 3584 3137 3096 
Q 3566 2609 3566 1747 
Q 3566 888 3137 398 
Q 2709 -91 1959 -91 
Q 1206 -91 779 398 
Q 353 888 353 1747 
Q 353 2609 779 3096 
Q 1206 3584 1959 3584 
z
" transform="scale(0.015625)"/>
      <path id="DejaVuSans-74" d="M 1172 4494 
L 1172 3500 
L 2356 3500 
L 2356 3053 
L 1172 3053 
L 1172 1153 
Q 1172 725 1289 603 
Q 1406 481 1766 481 
L 2356 481 
L 2356 0 
L 1766 0 
Q 1100 0 847 248 
Q 594 497 594 1153 
L 594 3053 
L 172 3053 
L 172 3500 
L 594 3500 
L 594 4494 
L 1172 4494 
z
" transform="scale(0.015625)"/>
      <path id="DejaVuSans-6e" d="M 3513 2113 
L 3513 0 
L 2938 0 
L 2938 2094 
Q 2938 2591 2744 2837 
Q 2550 3084 2163 3084 
Q 1697 3084 1428 2787 
Q 1159 2491 1159 1978 
L 1159 0 
L 581 0 
L 581 3500 
L 1159 3500 
L 1159 2956 
Q 1366 3272 1645 3428 
Q 1925 3584 2291 3584 
Q 2894 3584 3203 3211 
Q 3513 2838 3513 2113 
z
" transform="scale(0.015625)"/>
      <path id="DejaVuSans-62" d="M 3116 1747 
Q 3116 2381 2855 2742 
Q 2594 3103 2138 3103 
Q 1681 3103 1420 2742 
Q 1159 2381 1159 1747 
Q 1159 1113 1420 752 
Q 1681 391 2138 391 
Q 2594 391 2855 752 
Q 3116 1113 3116 1747 
z
M 1159 2969 
Q 1341 3281 1617 3432 
Q 1894 3584 2278 3584 
Q 2916 3584 3314 3078 
Q 3713 2572 3713 1747 
Q 3713 922 3314 415 
Q 2916 -91 2278 -91 
Q 1894 -91 1617 61 
Q 1341 213 1159 525 
L 1159 0 
L 581 0 
L 581 4863 
L 1159 4863 
L 1159 2969 
z
" transform="scale(0.015625)"/>
      <path id="DejaVuSans-67" d="M 2906 1791 
Q 2906 2416 2648 2759 
Q 2391 3103 1925 3103 
Q 1463 3103 1205 2759 
Q 947 2416 947 1791 
Q 947 1169 1205 825 
Q 1463 481 1925 481 
Q 2391 481 2648 825 
Q 2906 1169 2906 1791 
z
M 3481 434 
Q 3481 -459 3084 -895 
Q 2688 -1331 1869 -1331 
Q 1566 -1331 1297 -1286 
Q 1028 -1241 775 -1147 
L 775 -588 
Q 1028 -725 1275 -790 
Q 1522 -856 1778 -856 
Q 2344 -856 2625 -561 
Q 2906 -266 2906 331 
L 2906 616 
Q 2728 306 2450 153 
Q 2172 0 1784 0 
Q 1141 0 747 490 
Q 353 981 353 1791 
Q 353 2603 747 3093 
Q 1141 3584 1784 3584 
Q 2172 3584 2450 3431 
Q 2728 3278 2906 2969 
L 2906 3500 
L 3481 3500 
L 3481 434 
z
" transform="scale(0.015625)"/>
     </defs>
     <use xlink:href="#DejaVuSans-70"/>
     <use xlink:href="#DejaVuSans-72" transform="translate(63.476562 0)"/>
     <use xlink:href="#DejaVuSans-6f" transform="translate(102.339844 0)"/>
     <use xlink:href="#DejaVuSans-74" transform="translate(163.521484 0)"/>
     <use xlink:href="#DejaVuSans-65" transform="translate(202.730469 0)"/>
     <use xlink:href="#DejaVuSans-69" transform="translate(264.253906 0)"/>
     <use xlink:href="#DejaVuSans-6e" transform="translate(292.037109 0)"/>
     <use xlink:href="#DejaVuSans-20" transform="translate(355.416016 0)"/>
     <use xlink:href="#DejaVuSans-20" transform="translate(387.203125 0)"/>
     <use xlink:href="#DejaVuSans-2192" transform="translate(418.990234 0)"/>
     <use xlink:href="#DejaVuSans-20" transform="translate(502.779297 0)"/>
     <use xlink:href="#DejaVuSans-20" transform="translate(534.566406 0)"/>
     <use xlink:href="#DejaVuSans-62" transform="translate(566.353516 0)"/>
     <use xlink:href="#DejaVuSans-69" transform="translate(629.830078 0)"/>
     <use xlink:href="#DejaVuSans-6e" transform="translate(657.613281 0)"/>
     <use xlink:href="#DejaVuSans-64" transform="translate(720.992188 0)"/>
     <use xlink:href="#DejaVuSans-69" transform="translate(784.46875 0)"/>
     <use xlink:href="#DejaVuSans-6e" transform="translate(812.251953 0)"/>
     <use xlink:href="#DejaVuSans-67" transform="translate(875.630859 0)"/>
    </g>
   </g>
   <g id="line2d_3">
    <path d="M 860.4 79.2 
L 1090.8 216 
" clip-path="url(#p9a67b9f6c7)" style="fill: none; stroke: #d55e00; stroke-width: 4; stroke-linecap: square"/>
   </g>
   <g id="text_4">
    <!-- slope = α − 2 -->
    <g style="fill: #d55e00" transform="translate(952.19375 83.596875) scale(0.2 -0.2)">
     <defs>
      <path id="DejaVuSans-Bold-73" d="M 3272 3391 
L 3272 2541 
Q 2913 2691 2578 2766 
Q 2244 2841 1947 2841 
Q 1628 2841 1473 2761 
Q 1319 2681 1319 2516 
Q 1319 2381 1436 2309 
Q 1553 2238 1856 2203 
L 2053 2175 
Q 2913 2066 3209 1816 
Q 3506 1566 3506 1031 
Q 3506 472 3093 190 
Q 2681 -91 1863 -91 
Q 1516 -91 1145 -36 
Q 775 19 384 128 
L 384 978 
Q 719 816 1070 734 
Q 1422 653 1784 653 
Q 2113 653 2278 743 
Q 2444 834 2444 1013 
Q 2444 1163 2330 1236 
Q 2216 1309 1875 1350 
L 1678 1375 
Q 931 1469 631 1722 
Q 331 1975 331 2491 
Q 331 3047 712 3315 
Q 1094 3584 1881 3584 
Q 2191 3584 2531 3537 
Q 2872 3491 3272 3391 
z
" transform="scale(0.015625)"/>
      <path id="DejaVuSans-Bold-70" d="M 1656 506 
L 1656 -1331 
L 538 -1331 
L 538 3500 
L 1656 3500 
L 1656 2988 
Q 1888 3294 2169 3439 
Q 2450 3584 2816 3584 
Q 3463 3584 3878 3070 
Q 4294 2556 4294 1747 
Q 4294 938 3878 423 
Q 3463 -91 2816 -91 
Q 2450 -91 2169 54 
Q 1888 200 1656 506 
z
M 2400 2772 
Q 2041 2772 1848 2508 
Q 1656 2244 1656 1747 
Q 1656 1250 1848 986 
Q 2041 722 2400 722 
Q 2759 722 2948 984 
Q 3138 1247 3138 1747 
Q 3138 2247 2948 2509 
Q 2759 2772 2400 2772 
z
" transform="scale(0.015625)"/>
      <path id="DejaVuSans-Bold-3d" d="M 678 3084 
L 4684 3084 
L 4684 2350 
L 678 2350 
L 678 3084 
z
M 678 1663 
L 4684 1663 
L 4684 922 
L 678 922 
L 678 1663 
z
" transform="scale(0.015625)"/>
      <path id="DejaVuSans-Bold-3b1" d="M 3006 3163 
L 3119 3500 
L 4088 3500 
L 3484 1697 
L 3569 1219 
Q 3659 703 3872 703 
L 4128 703 
L 4128 0 
L 3809 0 
Q 3313 0 3059 263 
Q 3003 322 2988 353 
Q 2838 163 2689 39 
Q 2541 -84 1763 -78 
Q 988 -72 648 400 
Q 309 872 309 1794 
Q 309 2713 663 3088 
Q 1109 3569 1966 3578 
Q 2688 3588 3006 3163 
z
M 2575 1841 
L 2481 2350 
Q 2394 2825 1981 2828 
Q 1772 2828 1598 2558 
Q 1425 2288 1425 1741 
Q 1425 1191 1581 944 
Q 1738 697 1969 691 
Q 2213 684 2363 1163 
L 2575 1841 
z
" transform="scale(0.015625)"/>
      <path id="DejaVuSans-Bold-2212" d="M 678 2375 
L 4684 2375 
L 4684 1638 
L 678 1638 
L 678 2375 
z
" transform="scale(0.015625)"/>
      <path id="DejaVuSans-Bold-32" d="M 1844 884 
L 3897 884 
L 3897 0 
L 506 0 
L 506 884 
L 2209 2388 
Q 2438 2594 2547 2791 
Q 2656 2988 2656 3200 
Q 2656 3528 2436 3728 
Q 2216 3928 1850 3928 
Q 1569 3928 1234 3808 
Q 900 3688 519 3450 
L 519 4475 
Q 925 4609 1322 4679 
Q 1719 4750 2100 4750 
Q 2938 4750 3402 4381 
Q 3866 4013 3866 3353 
Q 3866 2972 3669 2642 
Q 3472 2313 2841 1759 
L 1844 884 
z
" transform="scale(0.015625)"/>
     </defs>
     <use xlink:href="#DejaVuSans-Bold-73"/>
     <use xlink:href="#DejaVuSans-Bold-6c" transform="translate(59.521484 0)"/>
     <use xlink:href="#DejaVuSans-Bold-6f" transform="translate(93.798828 0)"/>
     <use xlink:href="#DejaVuSans-Bold-70" transform="translate(162.5 0)"/>
     <use xlink:href="#DejaVuSans-Bold-65" transform="translate(234.082031 0)"/>
     <use xlink:href="#DejaVuSans-Bold-20" transform="translate(301.904297 0)"/>
     <use xlink:href="#DejaVuSans-Bold-3d" transform="translate(336.71875 0)"/>
     <use xlink:href="#DejaVuSans-Bold-20" transform="translate(420.507812 0)"/>
     <use xlink:href="#DejaVuSans-Bold-3b1" transform="translate(455.322266 0)"/>
     <use xlink:href="#DejaVuSans-Bold-20" transform="translate(524.023438 0)"/>
     <use xlink:href="#DejaVuSans-Bold-2212" transform="translate(558.837891 0)"/>
     <use xlink:href="#DejaVuSans-Bold-20" transform="translate(642.626953 0)"/>
     <use xlink:href="#DejaVuSans-Bold-32" transform="translate(677.441406 0)"/>
    </g>
   </g>
   <g id="text_5">
    <!-- liposome size  (log) -->
    <g style="fill: #9a9a9a" transform="translate(912.408828 288.517969) scale(0.13 -0.13)">
     <defs>
      <path id="DejaVuSans-6d" d="M 3328 2828 
Q 3544 3216 3844 3400 
Q 4144 3584 4550 3584 
Q 5097 3584 5394 3201 
Q 5691 2819 5691 2113 
L 5691 0 
L 5113 0 
L 5113 2094 
Q 5113 2597 4934 2840 
Q 4756 3084 4391 3084 
Q 3944 3084 3684 2787 
Q 3425 2491 3425 1978 
L 3425 0 
L 2847 0 
L 2847 2094 
Q 2847 2600 2669 2842 
Q 2491 3084 2119 3084 
Q 1678 3084 1418 2786 
Q 1159 2488 1159 1978 
L 1159 0 
L 581 0 
L 581 3500 
L 1159 3500 
L 1159 2956 
Q 1356 3278 1631 3431 
Q 1906 3584 2284 3584 
Q 2666 3584 2933 3390 
Q 3200 3197 3328 2828 
z
" transform="scale(0.015625)"/>
      <path id="DejaVuSans-28" d="M 1984 4856 
Q 1566 4138 1362 3434 
Q 1159 2731 1159 2009 
Q 1159 1288 1364 580 
Q 1569 -128 1984 -844 
L 1484 -844 
Q 1016 -109 783 600 
Q 550 1309 550 2009 
Q 550 2706 781 3412 
Q 1013 4119 1484 4856 
L 1984 4856 
z
" transform="scale(0.015625)"/>
      <path id="DejaVuSans-29" d="M 513 4856 
L 1013 4856 
Q 1481 4119 1714 3412 
Q 1947 2706 1947 2009 
Q 1947 1309 1714 600 
Q 1481 -109 1013 -844 
L 513 -844 
Q 928 -128 1133 580 
Q 1338 1288 1338 2009 
Q 1338 2731 1133 3434 
Q 928 4138 513 4856 
z
" transform="scale(0.015625)"/>
     </defs>
     <use xlink:href="#DejaVuSans-6c"/>
     <use xlink:href="#DejaVuSans-69" transform="translate(27.783203 0)"/>
     <use xlink:href="#DejaVuSans-70" transform="translate(55.566406 0)"/>
     <use xlink:href="#DejaVuSans-6f" transform="translate(119.042969 0)"/>
     <use xlink:href="#DejaVuSans-73" transform="translate(180.224609 0)"/>
     <use xlink:href="#DejaVuSans-6f" transform="translate(232.324219 0)"/>
     <use xlink:href="#DejaVuSans-6d" transform="translate(293.505859 0)"/>
     <use xlink:href="#DejaVuSans-65" transform="translate(390.917969 0)"/>
     <use xlink:href="#DejaVuSans-20" transform="translate(452.441406 0)"/>
     <use xlink:href="#DejaVuSans-73" transform="translate(484.228516 0)"/>
     <use xlink:href="#DejaVuSans-69" transform="translate(536.328125 0)"/>
     <use xlink:href="#DejaVuSans-7a" transform="translate(564.111328 0)"/>
     <use xlink:href="#DejaVuSans-65" transform="translate(616.601562 0)"/>
     <use xlink:href="#DejaVuSans-20" transform="translate(678.125 0)"/>
     <use xlink:href="#DejaVuSans-20" transform="translate(709.912109 0)"/>
     <use xlink:href="#DejaVuSans-28" transform="translate(741.699219 0)"/>
     <use xlink:href="#DejaVuSans-6c" transform="translate(780.712891 0)"/>
     <use xlink:href="#DejaVuSans-6f" transform="translate(808.496094 0)"/>
     <use xlink:href="#DejaVuSans-67" transform="translate(869.677734 0)"/>
     <use xlink:href="#DejaVuSans-29" transform="translate(933.154297 0)"/>
    </g>
   </g>
   <g id="text_6">
    <!-- protein density  (log) -->
    <g style="fill: #9a9a9a" transform="translate(818.627188 219.313906) rotate(-90) scale(0.13 -0.13)">
     <defs>
      <path id="DejaVuSans-79" d="M 2059 -325 
Q 1816 -950 1584 -1140 
Q 1353 -1331 966 -1331 
L 506 -1331 
L 506 -850 
L 844 -850 
Q 1081 -850 1212 -737 
Q 1344 -625 1503 -206 
L 1606 56 
L 191 3500 
L 800 3500 
L 1894 763 
L 2988 3500 
L 3597 3500 
L 2059 -325 
z
" transform="scale(0.015625)"/>
     </defs>
     <use xlink:href="#DejaVuSans-70"/>
     <use xlink:href="#DejaVuSans-72" transform="translate(63.476562 0)"/>
     <use xlink:href="#DejaVuSans-6f" transform="translate(102.339844 0)"/>
     <use xlink:href="#DejaVuSans-74" transform="translate(163.521484 0)"/>
     <use xlink:href="#DejaVuSans-65" transform="translate(202.730469 0)"/>
     <use xlink:href="#DejaVuSans-69" transform="translate(264.253906 0)"/>
     <use xlink:href="#DejaVuSans-6e" transform="translate(292.037109 0)"/>
     <use xlink:href="#DejaVuSans-20" transform="translate(355.416016 0)"/>
     <use xlink:href="#DejaVuSans-64" transform="translate(387.203125 0)"/>
     <use xlink:href="#DejaVuSans-65" transform="translate(450.679688 0)"/>
     <use xlink:href="#DejaVuSans-6e" transform="translate(512.203125 0)"/>
     <use xlink:href="#DejaVuSans-73" transform="translate(575.582031 0)"/>
     <use xlink:href="#DejaVuSans-69" transform="translate(627.681641 0)"/>
     <use xlink:href="#DejaVuSans-74" transform="translate(655.464844 0)"/>
     <use xlink:href="#DejaVuSans-79" transform="translate(694.673828 0)"/>
     <use xlink:href="#DejaVuSans-20" transform="translate(753.853516 0)"/>
     <use xlink:href="#DejaVuSans-20" transform="translate(785.640625 0)"/>
     <use xlink:href="#DejaVuSans-28" transform="translate(817.427734 0)"/>
     <use xlink:href="#DejaVuSans-6c" transform="translate(856.441406 0)"/>
     <use xlink:href="#DejaVuSans-6f" transform="translate(884.224609 0)"/>
     <use xlink:href="#DejaVuSans-67" transform="translate(945.40625 0)"/>
     <use xlink:href="#DejaVuSans-29" transform="translate(1008.882812 0)"/>
    </g>
   </g>
   <g id="text_7">
    <!-- Sorting curve -->
    <g style="fill: #222222" transform="translate(914.60125 27.5075) scale(0.16 -0.16)">
     <defs>
      <path id="DejaVuSans-Bold-53" d="M 3834 4519 
L 3834 3531 
Q 3450 3703 3084 3790 
Q 2719 3878 2394 3878 
Q 1963 3878 1756 3759 
Q 1550 3641 1550 3391 
Q 1550 3203 1689 3098 
Q 1828 2994 2194 2919 
L 2706 2816 
Q 3484 2659 3812 2340 
Q 4141 2022 4141 1434 
Q 4141 663 3683 286 
Q 3225 -91 2284 -91 
Q 1841 -91 1394 -6 
Q 947 78 500 244 
L 500 1259 
Q 947 1022 1364 901 
Q 1781 781 2169 781 
Q 2563 781 2772 912 
Q 2981 1044 2981 1288 
Q 2981 1506 2839 1625 
Q 2697 1744 2272 1838 
L 1806 1941 
Q 1106 2091 782 2419 
Q 459 2747 459 3303 
Q 459 4000 909 4375 
Q 1359 4750 2203 4750 
Q 2588 4750 2994 4692 
Q 3400 4634 3834 4519 
z
" transform="scale(0.015625)"/>
      <path id="DejaVuSans-Bold-72" d="M 3138 2547 
Q 2991 2616 2845 2648 
Q 2700 2681 2553 2681 
Q 2122 2681 1889 2404 
Q 1656 2128 1656 1613 
L 1656 0 
L 538 0 
L 538 3500 
L 1656 3500 
L 1656 2925 
Q 1872 3269 2151 3426 
Q 2431 3584 2822 3584 
Q 2878 3584 2943 3579 
Q 3009 3575 3134 3559 
L 3138 2547 
z
" transform="scale(0.015625)"/>
      <path id="DejaVuSans-Bold-74" d="M 1759 4494 
L 1759 3500 
L 2913 3500 
L 2913 2700 
L 1759 2700 
L 1759 1216 
Q 1759 972 1856 886 
Q 1953 800 2241 800 
L 2816 800 
L 2816 0 
L 1856 0 
Q 1194 0 917 276 
Q 641 553 641 1216 
L 641 2700 
L 84 2700 
L 84 3500 
L 641 3500 
L 641 4494 
L 1759 4494 
z
" transform="scale(0.015625)"/>
      <path id="DejaVuSans-Bold-75" d="M 500 1363 
L 500 3500 
L 1625 3500 
L 1625 3150 
Q 1625 2866 1622 2436 
Q 1619 2006 1619 1863 
Q 1619 1441 1641 1255 
Q 1663 1069 1716 984 
Q 1784 875 1895 815 
Q 2006 756 2150 756 
Q 2500 756 2700 1025 
Q 2900 1294 2900 1772 
L 2900 3500 
L 4019 3500 
L 4019 0 
L 2900 0 
L 2900 506 
Q 2647 200 2364 54 
Q 2081 -91 1741 -91 
Q 1134 -91 817 281 
Q 500 653 500 1363 
z
" transform="scale(0.015625)"/>
      <path id="DejaVuSans-Bold-76" d="M 97 3500 
L 1216 3500 
L 2088 1081 
L 2956 3500 
L 4078 3500 
L 2700 0 
L 1472 0 
L 97 3500 
z
" transform="scale(0.015625)"/>
     </defs>
     <use xlink:href="#DejaVuSans-Bold-53"/>
     <use xlink:href="#DejaVuSans-Bold-6f" transform="translate(72.021484 0)"/>
     <use xlink:href="#DejaVuSans-Bold-72" transform="translate(140.722656 0)"/>
     <use xlink:href="#DejaVuSans-Bold-74" transform="translate(190.039062 0)"/>
     <use xlink:href="#DejaVuSans-Bold-69" transform="translate(237.841797 0)"/>
     <use xlink:href="#DejaVuSans-Bold-6e" transform="translate(272.119141 0)"/>
     <use xlink:href="#DejaVuSans-Bold-67" transform="translate(343.310547 0)"/>
     <use xlink:href="#DejaVuSans-Bold-20" transform="translate(414.892578 0)"/>
     <use xlink:href="#DejaVuSans-Bold-63" transform="translate(449.707031 0)"/>
     <use xlink:href="#DejaVuSans-Bold-75" transform="translate(508.984375 0)"/>
     <use xlink:href="#DejaVuSans-Bold-72" transform="translate(580.175781 0)"/>
     <use xlink:href="#DejaVuSans-Bold-76" transform="translate(629.492188 0)"/>
     <use xlink:href="#DejaVuSans-Bold-65" transform="translate(694.677734 0)"/>
    </g>
   </g>
   <g id="text_8">
    <!-- Detect each -->
    <g style="fill: #ffffff" transform="translate(259.727344 146.088844) scale(0.18 -0.18)">
     <defs>
      <path id="DejaVuSans-Bold-44" d="M 1791 3756 
L 1791 909 
L 2222 909 
Q 2959 909 3348 1275 
Q 3738 1641 3738 2338 
Q 3738 3031 3350 3393 
Q 2963 3756 2222 3756 
L 1791 3756 
z
M 588 4666 
L 1856 4666 
Q 2919 4666 3439 4514 
Q 3959 4363 4331 4000 
Q 4659 3684 4818 3271 
Q 4978 2859 4978 2338 
Q 4978 1809 4818 1395 
Q 4659 981 4331 666 
Q 3956 303 3431 151 
Q 2906 0 1856 0 
L 588 0 
L 588 4666 
z
" transform="scale(0.015625)"/>
     </defs>
     <use xlink:href="#DejaVuSans-Bold-44"/>
     <use xlink:href="#DejaVuSans-Bold-65" transform="translate(83.007812 0)"/>
     <use xlink:href="#DejaVuSans-Bold-74" transform="translate(150.830078 0)"/>
     <use xlink:href="#DejaVuSans-Bold-65" transform="translate(198.632812 0)"/>
     <use xlink:href="#DejaVuSans-Bold-63" transform="translate(266.455078 0)"/>
     <use xlink:href="#DejaVuSans-Bold-74" transform="translate(325.732422 0)"/>
     <use xlink:href="#DejaVuSans-Bold-20" transform="translate(373.535156 0)"/>
     <use xlink:href="#DejaVuSans-Bold-65" transform="translate(408.349609 0)"/>
     <use xlink:href="#DejaVuSans-Bold-61" transform="translate(476.171875 0)"/>
     <use xlink:href="#DejaVuSans-Bold-63" transform="translate(543.652344 0)"/>
     <use xlink:href="#DejaVuSans-Bold-68" transform="translate(602.929688 0)"/>
    </g>
    <!-- liposome -->
    <g style="fill: #ffffff" transform="translate(274.581562 166.244906) scale(0.18 -0.18)">
     <use xlink:href="#DejaVuSans-Bold-6c"/>
     <use xlink:href="#DejaVuSans-Bold-69" transform="translate(34.277344 0)"/>
     <use xlink:href="#DejaVuSans-Bold-70" transform="translate(68.554688 0)"/>
     <use xlink:href="#DejaVuSans-Bold-6f" transform="translate(140.136719 0)"/>
     <use xlink:href="#DejaVuSans-Bold-73" transform="translate(208.837891 0)"/>
     <use xlink:href="#DejaVuSans-Bold-6f" transform="translate(268.359375 0)"/>
     <use xlink:href="#DejaVuSans-Bold-6d" transform="translate(337.060547 0)"/>
     <use xlink:href="#DejaVuSans-Bold-65" transform="translate(441.259766 0)"/>
    </g>
   </g>
   <g id="text_9">
    <!-- Per vesicle: -->
    <g style="fill: #ffffff" transform="translate(552.192188 138.425156) scale(0.15 -0.15)">
     <defs>
      <path id="DejaVuSans-Bold-50" d="M 588 4666 
L 2584 4666 
Q 3475 4666 3951 4270 
Q 4428 3875 4428 3144 
Q 4428 2409 3951 2014 
Q 3475 1619 2584 1619 
L 1791 1619 
L 1791 0 
L 588 0 
L 588 4666 
z
M 1791 3794 
L 1791 2491 
L 2456 2491 
Q 2806 2491 2997 2661 
Q 3188 2831 3188 3144 
Q 3188 3456 2997 3625 
Q 2806 3794 2456 3794 
L 1791 3794 
z
" transform="scale(0.015625)"/>
      <path id="DejaVuSans-Bold-3a" d="M 716 3500 
L 1844 3500 
L 1844 2291 
L 716 2291 
L 716 3500 
z
M 716 1209 
L 1844 1209 
L 1844 0 
L 716 0 
L 716 1209 
z
" transform="scale(0.015625)"/>
     </defs>
     <use xlink:href="#DejaVuSans-Bold-50"/>
     <use xlink:href="#DejaVuSans-Bold-65" transform="translate(73.291016 0)"/>
     <use xlink:href="#DejaVuSans-Bold-72" transform="translate(141.113281 0)"/>
     <use xlink:href="#DejaVuSans-Bold-20" transform="translate(190.429688 0)"/>
     <use xlink:href="#DejaVuSans-Bold-76" transform="translate(225.244141 0)"/>
     <use xlink:href="#DejaVuSans-Bold-65" transform="translate(290.429688 0)"/>
     <use xlink:href="#DejaVuSans-Bold-73" transform="translate(358.251953 0)"/>
     <use xlink:href="#DejaVuSans-Bold-69" transform="translate(417.773438 0)"/>
     <use xlink:href="#DejaVuSans-Bold-63" transform="translate(452.050781 0)"/>
     <use xlink:href="#DejaVuSans-Bold-6c" transform="translate(511.328125 0)"/>
     <use xlink:href="#DejaVuSans-Bold-65" transform="translate(545.605469 0)"/>
     <use xlink:href="#DejaVuSans-Bold-3a" transform="translate(613.427734 0)"/>
    </g>
    <!-- lipid intensity ≈ size -->
    <g style="fill: #ffffff" transform="translate(514.715625 155.221875) scale(0.15 -0.15)">
     <defs>
      <path id="DejaVuSans-Bold-64" d="M 2919 2988 
L 2919 4863 
L 4044 4863 
L 4044 0 
L 2919 0 
L 2919 506 
Q 2688 197 2409 53 
Q 2131 -91 1766 -91 
Q 1119 -91 703 423 
Q 288 938 288 1747 
Q 288 2556 703 3070 
Q 1119 3584 1766 3584 
Q 2128 3584 2408 3439 
Q 2688 3294 2919 2988 
z
M 2181 722 
Q 2541 722 2730 984 
Q 2919 1247 2919 1747 
Q 2919 2247 2730 2509 
Q 2541 2772 2181 2772 
Q 1825 2772 1636 2509 
Q 1447 2247 1447 1747 
Q 1447 1247 1636 984 
Q 1825 722 2181 722 
z
" transform="scale(0.015625)"/>
      <path id="DejaVuSans-Bold-79" d="M 78 3500 
L 1197 3500 
L 2138 1125 
L 2938 3500 
L 4056 3500 
L 2584 -331 
Q 2363 -916 2067 -1148 
Q 1772 -1381 1288 -1381 
L 641 -1381 
L 641 -647 
L 991 -647 
Q 1275 -647 1404 -556 
Q 1534 -466 1606 -231 
L 1638 -134 
L 78 3500 
z
" transform="scale(0.015625)"/>
      <path id="DejaVuSans-Bold-2248" d="M 4684 3309 
L 4684 2547 
Q 4353 2297 4073 2189 
Q 3794 2081 3494 2081 
Q 3159 2081 2713 2263 
Q 2669 2281 2644 2291 
Q 2622 2300 2575 2319 
Q 2091 2509 1797 2509 
Q 1522 2509 1253 2389 
Q 984 2269 678 2009 
L 678 2772 
Q 1006 3016 1286 3123 
Q 1566 3231 1869 3231 
Q 2213 3231 2672 3047 
Q 2703 3034 2719 3028 
Q 2744 3019 2788 3000 
Q 3272 2809 3566 2809 
Q 3834 2809 4098 2926 
Q 4363 3044 4684 3309 
z
M 4684 2003 
L 4684 1241 
Q 4353 991 4073 883 
Q 3794 775 3494 775 
Q 3159 775 2713 956 
Q 2669 975 2641 988 
Q 2622 994 2575 1013 
Q 2091 1203 1797 1203 
Q 1522 1203 1253 1084 
Q 984 966 678 703 
L 678 1466 
Q 1013 1716 1291 1823 
Q 1569 1931 1869 1931 
Q 2203 1931 2650 1750 
Q 2697 1731 2719 1722 
Q 2744 1713 2788 1697 
Q 3272 1503 3566 1503 
Q 3834 1503 4098 1620 
Q 4363 1738 4684 2003 
z
" transform="scale(0.015625)"/>
      <path id="DejaVuSans-Bold-7a" d="M 366 3500 
L 3419 3500 
L 3419 2719 
L 1575 800 
L 3419 800 
L 3419 0 
L 288 0 
L 288 781 
L 2131 2700 
L 366 2700 
L 366 3500 
z
" transform="scale(0.015625)"/>
     </defs>
     <use xlink:href="#DejaVuSans-Bold-6c"/>
     <use xlink:href="#DejaVuSans-Bold-69" transform="translate(34.277344 0)"/>
     <use xlink:href="#DejaVuSans-Bold-70" transform="translate(68.554688 0)"/>
     <use xlink:href="#DejaVuSans-Bold-69" transform="translate(140.136719 0)"/>
     <use xlink:href="#DejaVuSans-Bold-64" transform="translate(174.414062 0)"/>
     <use xlink:href="#DejaVuSans-Bold-20" transform="translate(245.996094 0)"/>
     <use xlink:href="#DejaVuSans-Bold-69" transform="translate(280.810547 0)"/>
     <use xlink:href="#DejaVuSans-Bold-6e" transform="translate(315.087891 0)"/>
     <use xlink:href="#DejaVuSans-Bold-74" transform="translate(386.279297 0)"/>
     <use xlink:href="#DejaVuSans-Bold-65" transform="translate(434.082031 0)"/>
     <use xlink:href="#DejaVuSans-Bold-6e" transform="translate(501.904297 0)"/>
     <use xlink:href="#DejaVuSans-Bold-73" transform="translate(573.095703 0)"/>
     <use xlink:href="#DejaVuSans-Bold-69" transform="translate(632.617188 0)"/>
     <use xlink:href="#DejaVuSans-Bold-74" transform="translate(666.894531 0)"/>
     <use xlink:href="#DejaVuSans-Bold-79" transform="translate(714.697266 0)"/>
     <use xlink:href="#DejaVuSans-Bold-20" transform="translate(779.882812 0)"/>
     <use xlink:href="#DejaVuSans-Bold-2248" transform="translate(814.697266 0)"/>
     <use xlink:href="#DejaVuSans-Bold-20" transform="translate(898.486328 0)"/>
     <use xlink:href="#DejaVuSans-Bold-73" transform="translate(933.300781 0)"/>
     <use xlink:href="#DejaVuSans-Bold-69" transform="translate(992.822266 0)"/>
     <use xlink:href="#DejaVuSans-Bold-7a" transform="translate(1027.099609 0)"/>
     <use xlink:href="#DejaVuSans-Bold-65" transform="translate(1085.302734 0)"/>
    </g>
    <!-- protein intensity ≈ amount bound -->
    <g style="fill: #ffffff" transform="translate(457.380469 172.135781) scale(0.15 -0.15)">
     <defs>
      <path id="DejaVuSans-Bold-62" d="M 2400 722 
Q 2759 722 2948 984 
Q 3138 1247 3138 1747 
Q 3138 2247 2948 2509 
Q 2759 2772 2400 2772 
Q 2041 2772 1848 2508 
Q 1656 2244 1656 1747 
Q 1656 1250 1848 986 
Q 2041 722 2400 722 
z
M 1656 2988 
Q 1888 3294 2169 3439 
Q 2450 3584 2816 3584 
Q 3463 3584 3878 3070 
Q 4294 2556 4294 1747 
Q 4294 938 3878 423 
Q 3463 -91 2816 -91 
Q 2450 -91 2169 54 
Q 1888 200 1656 506 
L 1656 0 
L 538 0 
L 538 4863 
L 1656 4863 
L 1656 2988 
z
" transform="scale(0.015625)"/>
     </defs>
     <use xlink:href="#DejaVuSans-Bold-70"/>
     <use xlink:href="#DejaVuSans-Bold-72" transform="translate(71.582031 0)"/>
     <use xlink:href="#DejaVuSans-Bold-6f" transform="translate(120.898438 0)"/>
     <use xlink:href="#DejaVuSans-Bold-74" transform="translate(189.599609 0)"/>
     <use xlink:href="#DejaVuSans-Bold-65" transform="translate(237.402344 0)"/>
     <use xlink:href="#DejaVuSans-Bold-69" transform="translate(305.224609 0)"/>
     <use xlink:href="#DejaVuSans-Bold-6e" transform="translate(339.501953 0)"/>
     <use xlink:href="#DejaVuSans-Bold-20" transform="translate(410.693359 0)"/>
     <use xlink:href="#DejaVuSans-Bold-69" transform="translate(445.507812 0)"/>
     <use xlink:href="#DejaVuSans-Bold-6e" transform="translate(479.785156 0)"/>
     <use xlink:href="#DejaVuSans-Bold-74" transform="translate(550.976562 0)"/>
     <use xlink:href="#DejaVuSans-Bold-65" transform="translate(598.779297 0)"/>
     <use xlink:href="#DejaVuSans-Bold-6e" transform="translate(666.601562 0)"/>
     <use xlink:href="#DejaVuSans-Bold-73" transform="translate(737.792969 0)"/>
     <use xlink:href="#DejaVuSans-Bold-69" transform="translate(797.314453 0)"/>
     <use xlink:href="#DejaVuSans-Bold-74" transform="translate(831.591797 0)"/>
     <use xlink:href="#DejaVuSans-Bold-79" transform="translate(879.394531 0)"/>
     <use xlink:href="#DejaVuSans-Bold-20" transform="translate(944.580078 0)"/>
     <use xlink:href="#DejaVuSans-Bold-2248" transform="translate(979.394531 0)"/>
     <use xlink:href="#DejaVuSans-Bold-20" transform="translate(1063.183594 0)"/>
     <use xlink:href="#DejaVuSans-Bold-61" transform="translate(1097.998047 0)"/>
     <use xlink:href="#DejaVuSans-Bold-6d" transform="translate(1165.478516 0)"/>
     <use xlink:href="#DejaVuSans-Bold-6f" transform="translate(1269.677734 0)"/>
     <use xlink:href="#DejaVuSans-Bold-75" transform="translate(1338.378906 0)"/>
     <use xlink:href="#DejaVuSans-Bold-6e" transform="translate(1409.570312 0)"/>
     <use xlink:href="#DejaVuSans-Bold-74" transform="translate(1480.761719 0)"/>
     <use xlink:href="#DejaVuSans-Bold-20" transform="translate(1528.564453 0)"/>
     <use xlink:href="#DejaVuSans-Bold-62" transform="translate(1563.378906 0)"/>
     <use xlink:href="#DejaVuSans-Bold-6f" transform="translate(1634.960938 0)"/>
     <use xlink:href="#DejaVuSans-Bold-75" transform="translate(1703.662109 0)"/>
     <use xlink:href="#DejaVuSans-Bold-6e" transform="translate(1774.853516 0)"/>
     <use xlink:href="#DejaVuSans-Bold-64" transform="translate(1846.044922 0)"/>
    </g>
   </g>
  </g>
 </g>
 <defs>
  <clipPath id="p9a67b9f6c7">
   <rect x="7.2" y="7.2" width="1152" height="360"/>
  </clipPath>
 </defs>
</svg>
